SplineFontDB: 3.2
FontName: Samaano-Wide-Thin
FullName: Samaano Wide Thin
FamilyName: Samaano
Weight: Wide-Thin
Copyright: Copyright 2024 The Samaano Project Authors (https://github.com/mitradranirban/samaano-fonts)
UComments: "2024-8-27: Created with FontForge (http://fontforge.org)"
Version: 1.0
ItalicAngle: 0
UnderlinePosition: 0
UnderlineWidth: 102
Ascent: 1638
Descent: 410
InvalidEm: 0
UFOAscent: 1638
UFODescent: -410
LayerCount: 2
Layer: 0 0 "Back" 1
Layer: 1 0 "public.default" 0 "glyphs"
StyleMap: 0x0000
FSType: 256
OS2Version: 0
OS2_WeightWidthSlopeOnly: 0
OS2_UseTypoMetrics: 0
CreationTime: 1729151291
ModificationTime: 1729153952
PfmFamily: 16
TTFWeight: 100
TTFWidth: 9
LineGap: 0
VLineGap: 0
Panose: 2 0 2 9 0 2 1 0 0 4
OS2TypoAscent: 2457
OS2TypoAOffset: 0
OS2TypoDescent: -615
OS2TypoDOffset: 0
OS2TypoLinegap: 0
OS2WinAscent: 2476
OS2WinAOffset: 0
OS2WinDescent: 958
OS2WinDOffset: 0
HheadAscent: 2457
HheadAOffset: 0
HheadDescent: -615
HheadDOffset: 0
OS2CapHeight: 1548
OS2XHeight: 1023
OS2FamilyClass: 1031
OS2Vendor: 'anir'
MarkAttachClasses: 1
DEI: 91125
LangName: 1033 "Copyright 2024 The Samaano Project Authors (https://github.com/mitradranirban/samaano-fonts)" "" "" "" "" "Version 1.000" "" "" "Dr Anirban Mitra" "Dr Anirban Mitra" "A Monospace Variable Font Family in Latin and Devanagari created using mostly rectangular components" "https://fonts.atipra.in" "https://github.com/mitradranirban" "Copyright 2024 The Samaano Project Authors (https://github.com/mitradranirban/samaano-fonts)+AAoA +AAoA-This Font Software is licensed under the SIL Open Font License, Version 1.1.+AAoA-This license is available with a FAQ at: http://scripts.sil.org/OFL+AAoACgAA" "http://scripts.sil.org/OFL"
PickledDataWithLists: "(dp0
Vorg.unifiedfontobject.normalizer.modTimes
p1
Vversion: 0.6.1\\u000a1729145355.1 fontinfo.plist\\u000a1729145355.1 layercontents.plist\\u000a1729145355.1 metainfo.plist
p2
sVpublic.glyphOrder
p3
(lp4
V.notdef
p5
aVspace
p6
aVexclam
p7
aVquotedbl
p8

StartChar: .notdef
Encoding: 0 0 0
GlifName: _notdef
Width: 2048
VWidth: 0
Flags: W
LayerCount: 2
Fore
SplineSet
463 -16 m 257
 1461 -16 l 257
 1461 1624 l 257
 463 1624 l 257
 463 -16 l 257
537 64 m 257
 537 1546 l 257
 930 827 l 257
 537 64 l 257
629 64 m 257
 968 750 l 257
 1309 64 l 257
 629 64 l 257
657 1558 m 257
 1288 1558 l 257
 970 909 l 257
 657 1558 l 257
1008 832 m 257
 1384 1559 l 257
 1384 64 l 257
 1008 832 l 257
EndSplineSet
EndChar

StartChar: A
Encoding: 65 65 1
GlifName: A_
Width: 2048
VWidth: 0
Flags: W
LayerCount: 2
Fore
SplineSet
128 0 m 257
 187 0 l 257
 187 1553 l 257
 128 1553 l 257
 128 0 l 257
187 1492 m 257
 1875 1492 l 257
 1875 1553 l 257
 187 1553 l 257
 187 1492 l 257
181 970 m 257
 181 911 l 257
 1875 911 l 257
 1875 970 l 257
 181 970 l 257
1859 0 m 257
 1919 0 l 257
 1919 1553 l 257
 1859 1553 l 257
 1859 0 l 257
EndSplineSet
EndChar

StartChar: AE
Encoding: 198 198 2
GlifName: A_E_
Width: 2048
VWidth: 0
Flags: W
LayerCount: 2
Fore
SplineSet
1040 62 m 257
 1040 0 l 257
 1972 0 l 257
 1972 62 l 257
 1040 62 l 257
76 0 m 257
 138 0 l 257
 138 1550 l 257
 76 1550 l 257
 76 0 l 257
120 1489 m 257
 1950 1489 l 257
 1950 1550 l 257
 120 1550 l 257
 120 1489 l 257
124 1023 m 257
 124 964 l 257
 1898 964 l 257
 1898 1023 l 257
 124 1023 l 257
1014 0 m 257
 1074 0 l 257
 1074 1550 l 257
 1014 1550 l 257
 1014 0 l 257
EndSplineSet
EndChar

StartChar: B
Encoding: 66 66 12
GlifName: B_
Width: 2048
VWidth: 0
Flags: W
LayerCount: 2
Fore
SplineSet
114 0 m 257
 171 0 l 257
 171 1553 l 257
 114 1553 l 257
 114 0 l 257
1060 1494 m 257
 1899 1232 l 257
 1899 1288 l 257
 1060 1550 l 257
 1060 1494 l 257
1083 848 m 257
 1899 1232 l 257
 1899 1286 l 257
 1083 908 l 257
 1083 848 l 257
1065 62 m 257
 1065 0 l 257
 1933 434 l 257
 1933 500 l 257
 1065 62 l 257
1069 719 m 257
 1934 430 l 257
 1934 501 l 257
 1069 781 l 257
 1069 719 l 257
168 907 m 257
 168 847 l 257
 1083 847 l 257
 1083 907 l 257
 168 907 l 257
159 781 m 257
 159 721 l 257
 1069 721 l 257
 1069 781 l 257
 159 781 l 257
155 62 m 257
 155 0 l 257
 1065 0 l 257
 1065 62 l 257
 155 62 l 257
150 1553 m 257
 150 1494 l 257
 1060 1494 l 257
 1060 1553 l 257
 150 1553 l 257
EndSplineSet
EndChar

StartChar: C
Encoding: 67 67 13
GlifName: C_
Width: 2048
VWidth: 0
Flags: W
LayerCount: 2
Fore
SplineSet
71 1553 m 257
 71 0 l 257
 131 0 l 257
 131 1553 l 257
 71 1553 l 257
100 1553 m 257
 100 1495 l 257
 1977 1495 l 257
 1977 1553 l 257
 100 1553 l 257
105 58 m 257
 105 0 l 257
 1975 0 l 257
 1975 58 l 257
 105 58 l 257
EndSplineSet
EndChar

StartChar: D
Encoding: 68 68 19
GlifName: D_
Width: 2048
VWidth: 0
Flags: W
LayerCount: 2
Fore
SplineSet
108 1553 m 257
 108 0 l 257
 168 0 l 257
 168 1553 l 257
 108 1553 l 257
1248 1550 m 257
 1248 1493 l 257
 1938 961 l 257
 1938 1023 l 257
 1248 1550 l 257
1248 58 m 257
 1248 0 l 257
 1940 960 l 257
 1940 1023 l 257
 1248 58 l 257
168 1553 m 257
 168 1493 l 257
 1248 1493 l 257
 1248 1553 l 257
 168 1553 l 257
170 58 m 257
 170 0 l 257
 1248 0 l 257
 1248 58 l 257
 170 58 l 257
EndSplineSet
EndChar

StartChar: Dcroat
Encoding: 272 272 21
GlifName: D_croat
Width: 2048
VWidth: 0
Flags: W
LayerCount: 2
Fore
SplineSet
56 935 m 257
 56 876 l 257
 468 876 l 257
 468 935 l 257
 56 935 l 257
162 1550 m 257
 162 0 l 257
 224 0 l 257
 224 1550 l 257
 162 1550 l 257
1512 1550 m 257
 1512 1488 l 257
 1992 906 l 257
 1992 1019 l 257
 1512 1550 l 257
1520 61 m 257
 1520 0 l 257
 1992 915 l 257
 1992 1023 l 257
 1520 61 l 257
208 1550 m 257
 208 1488 l 257
 1512 1488 l 257
 1512 1550 l 257
 208 1550 l 257
204 61 m 257
 204 0 l 257
 1520 0 l 257
 1520 61 l 257
 204 61 l 257
EndSplineSet
EndChar

StartChar: E
Encoding: 69 69 22
GlifName: E_
Width: 2048
VWidth: 0
Flags: W
LayerCount: 2
Fore
SplineSet
116 1550 m 257
 116 0 l 257
 174 0 l 257
 174 1550 l 257
 116 1550 l 257
152 1553 m 257
 152 1490 l 257
 1912 1490 l 257
 1912 1553 l 257
 152 1553 l 257
158 60 m 257
 158 0 l 257
 1928 0 l 257
 1928 60 l 257
 158 60 l 257
158 859 m 257
 158 798 l 257
 1682 798 l 257
 1682 859 l 257
 158 859 l 257
EndSplineSet
EndChar

StartChar: Eng
Encoding: 330 330 31
GlifName: E_ng
Width: 1024
VWidth: 0
Flags: W
LayerCount: 2
Fore
SplineSet
524 -211 m 257
 524 -408 l 257
 911 -408 l 257
 911 -211 l 257
 524 -211 l 257
112 1490 m 257
 112 0 l 257
 313 0 l 257
 313 1490 l 257
 112 1490 l 257
711 1476 m 257
 711 -408 l 257
 912 -408 l 257
 912 1476 l 257
 711 1476 l 257
112 1550 m 257
 112 1353 l 257
 911 1353 l 257
 911 1550 l 257
 112 1550 l 257
EndSplineSet
EndChar

StartChar: Eth
Encoding: 208 208 33
AltUni2: 000189.ffffffff.0
GlifName: E_th
Width: 2048
VWidth: 0
Flags: W
LayerCount: 2
Fore
SplineSet
55 935 m 257
 55 873 l 257
 362 873 l 257
 362 935 l 257
 55 935 l 257
162 1553 m 257
 162 0 l 257
 223 0 l 257
 223 1553 l 257
 162 1553 l 257
1512 1553 m 257
 1512 1484 l 257
 1993 964 l 257
 1993 1023 l 257
 1512 1553 l 257
1520 60 m 257
 1520 0 l 257
 1993 964 l 257
 1993 1023 l 257
 1520 60 l 257
202 1553 m 257
 202 1484 l 257
 1512 1484 l 257
 1512 1553 l 257
 202 1553 l 257
210 60 m 257
 210 0 l 257
 1520 0 l 257
 1520 60 l 257
 210 60 l 257
EndSplineSet
EndChar

StartChar: Euro
Encoding: 8364 8364 34
GlifName: E_uro
Width: 2048
VWidth: 0
Flags: W
LayerCount: 2
Fore
SplineSet
688 520 m 257
 688 451 l 257
 1325 451 l 257
 1325 520 l 257
 688 520 l 257
700 856 m 257
 700 788 l 257
 1309 788 l 257
 1309 856 l 257
 700 856 l 257
956 1026 m 257
 956 179 l 257
 1036 179 l 257
 1036 1026 l 257
 956 1026 l 257
1274 1633 m 257
 956 1026 l 257
 1036 1026 l 257
 1299 1607 l 257
 1274 1633 l 257
956 179 m 257
 1300 -406 l 257
 1360 -406 l 257
 1036 179 l 257
 956 179 l 257
EndSplineSet
EndChar

StartChar: F
Encoding: 70 70 35
GlifName: F_
Width: 2048
VWidth: 0
Flags: W
LayerCount: 2
Fore
SplineSet
117 1553 m 257
 117 3 l 257
 176 3 l 257
 176 1553 l 257
 117 1553 l 257
176 1553 m 257
 176 1497 l 257
 1930 1497 l 257
 1930 1553 l 257
 176 1553 l 257
167 864 m 257
 167 806 l 257
 1757 806 l 257
 1757 864 l 257
 167 864 l 257
EndSplineSet
EndChar

StartChar: G
Encoding: 71 71 36
GlifName: G_
Width: 2048
VWidth: 0
Flags: W
LayerCount: 2
Fore
SplineSet
127 1529 m 257
 127 -4 l 257
 186 -4 l 257
 186 1529 l 257
 127 1529 l 257
180 1529 m 257
 180 1469 l 257
 1885 1469 l 257
 1885 1529 l 257
 180 1529 l 257
158 60 m 257
 158 0 l 257
 1921 0 l 257
 1921 60 l 257
 158 60 l 257
1860 561 m 257
 1860 18 l 257
 1921 18 l 257
 1921 561 l 257
 1860 561 l 257
EndSplineSet
EndChar

StartChar: H
Encoding: 72 72 40
GlifName: H_
Width: 2048
VWidth: 0
Flags: W
LayerCount: 2
Fore
SplineSet
114 1553 m 257
 114 0 l 257
 173 0 l 257
 173 1553 l 257
 114 1553 l 257
1873 1553 m 257
 1873 0 l 257
 1934 0 l 257
 1934 1553 l 257
 1873 1553 l 257
156 923 m 257
 156 864 l 257
 1897 864 l 257
 1897 923 l 257
 156 923 l 257
EndSplineSet
EndChar

StartChar: Hbar
Encoding: 294 294 41
GlifName: H_bar
Width: 2048
VWidth: 0
Flags: W
LayerCount: 2
Fore
SplineSet
110 1540 m 257
 110 0 l 257
 170 0 l 257
 170 1540 l 257
 110 1540 l 257
1870 1540 m 257
 1870 0 l 257
 1930 0 l 257
 1930 1540 l 257
 1870 1540 l 257
150 1020 m 257
 150 959 l 257
 1886 959 l 257
 1886 1020 l 257
 150 1020 l 257
50 1434 m 257
 50 1374 l 257
 1998 1374 l 257
 1998 1434 l 257
 50 1434 l 257
EndSplineSet
EndChar

StartChar: I
Encoding: 73 73 43
GlifName: I_
Width: 2048
VWidth: 0
Flags: W
LayerCount: 2
Fore
SplineSet
154 1550 m 257
 154 1489 l 257
 1879 1489 l 257
 1879 1550 l 257
 154 1550 l 257
1058 1515 m 257
 1058 34 l 257
 1117 34 l 257
 1117 1515 l 257
 1058 1515 l 257
134 66 m 257
 134 6 l 257
 1914 6 l 257
 1914 66 l 257
 134 66 l 257
EndSplineSet
EndChar

StartChar: J
Encoding: 74 74 54
GlifName: J_
Width: 2048
VWidth: 0
Flags: W
LayerCount: 2
Fore
SplineSet
1864 1527 m 257
 1864 0 l 257
 1924 0 l 257
 1924 1527 l 257
 1864 1527 l 257
124 60 m 257
 124 0 l 257
 1890 0 l 257
 1890 60 l 257
 124 60 l 257
124 503 m 257
 124 27 l 257
 184 27 l 257
 184 503 l 257
 124 503 l 257
EndSplineSet
EndChar

StartChar: K
Encoding: 75 75 56
GlifName: K_
Width: 2048
VWidth: 0
Flags: W
LayerCount: 2
Fore
SplineSet
172 1553 m 257
 172 5 l 257
 232 5 l 257
 232 1553 l 257
 172 1553 l 257
230 1015 m 257
 230 944 l 257
 1842 1550 l 257
 1772 1550 l 257
 230 1015 l 257
230 934 m 257
 210 844 l 257
 1826 0 l 257
 1876 0 l 257
 230 934 l 257
EndSplineSet
EndChar

StartChar: L
Encoding: 76 76 57
GlifName: L_
Width: 2048
VWidth: 0
Flags: W
LayerCount: 2
Fore
SplineSet
130 1553 m 257
 130 0 l 257
 190 0 l 257
 190 1553 l 257
 130 1553 l 257
144 61 m 257
 144 0 l 257
 1914 0 l 257
 1914 61 l 257
 144 61 l 257
EndSplineSet
EndChar

StartChar: Lcaron
Encoding: 317 317 59
GlifName: L_caron
Width: 2048
VWidth: 0
Flags: W
LayerCount: 2
Fore
SplineSet
94 1542 m 257
 94 3 l 257
 156 3 l 257
 156 1542 l 257
 94 1542 l 257
122 62 m 257
 122 3 l 257
 1954 3 l 257
 1954 62 l 257
 122 62 l 257
488 1496 m 257
 488 1264 l 257
 528 1264 l 257
 528 1496 l 257
 488 1496 l 257
EndSplineSet
EndChar

StartChar: Lslash
Encoding: 321 321 61
GlifName: L_slash
Width: 2048
VWidth: 0
Flags: W
LayerCount: 2
Fore
SplineSet
172 1542 m 257
 172 3 l 257
 232 3 l 257
 232 1542 l 257
 172 1542 l 257
196 64 m 257
 196 3 l 257
 2031 3 l 257
 2031 64 l 257
 196 64 l 257
17 902 m 257
 97 866 l 257
 531 1068 l 257
 451 1104 l 257
 17 902 l 257
EndSplineSet
EndChar

StartChar: M
Encoding: 77 77 62
GlifName: M_
Width: 2048
VWidth: 0
Flags: W
LayerCount: 2
Fore
SplineSet
100 1553 m 257
 100 0 l 257
 160 0 l 257
 160 1553 l 257
 100 1553 l 257
1886 1553 m 257
 1886 -3 l 257
 1948 -3 l 257
 1948 1553 l 257
 1886 1553 l 257
100 1553 m 257
 1046 1033 l 257
 1116 1033 l 257
 160 1553 l 257
 100 1553 l 257
1886 1553 m 257
 1048 1033 l 257
 1116 1033 l 257
 1948 1553 l 257
 1886 1553 l 257
EndSplineSet
EndChar

StartChar: N
Encoding: 78 78 63
GlifName: N_
Width: 2048
VWidth: 0
Flags: W
LayerCount: 2
Fore
SplineSet
98 1553 m 257
 98 0 l 257
 158 0 l 257
 158 1553 l 257
 98 1553 l 257
1890 1553 m 257
 1890 0 l 257
 1950 0 l 257
 1950 1553 l 257
 1890 1553 l 257
98 1553 m 257
 1890 0 l 257
 1950 0 l 257
 158 1553 l 257
 98 1553 l 257
EndSplineSet
EndChar

StartChar: O
Encoding: 79 79 67
GlifName: O_
Width: 2048
VWidth: 0
Flags: W
LayerCount: 2
Fore
SplineSet
112 1553 m 257
 112 0 l 257
 171 0 l 257
 171 1553 l 257
 112 1553 l 257
1877 1553 m 257
 1877 0 l 257
 1936 0 l 257
 1936 1553 l 257
 1877 1553 l 257
150 1553 m 257
 150 1493 l 257
 1906 1493 l 257
 1906 1553 l 257
 150 1553 l 257
152 61 m 257
 152 0 l 257
 1914 0 l 257
 1914 61 l 257
 152 61 l 257
EndSplineSet
EndChar

StartChar: OE
Encoding: 338 338 68
GlifName: O_E_
Width: 2048
VWidth: 0
Flags: W
LayerCount: 2
Fore
SplineSet
123 1553 m 257
 123 0 l 257
 182 0 l 257
 182 1553 l 257
 123 1553 l 257
1099 1553 m 257
 1099 0 l 257
 1158 0 l 257
 1158 1553 l 257
 1099 1553 l 257
161 1553 m 257
 161 1493 l 257
 1917 1493 l 257
 1917 1553 l 257
 161 1553 l 257
163 61 m 257
 163 0 l 257
 1925 0 l 257
 1925 61 l 257
 163 61 l 257
1131 859 m 257
 1131 798 l 257
 1866 798 l 257
 1866 859 l 257
 1131 859 l 257
EndSplineSet
EndChar

StartChar: Oslash
Encoding: 216 216 76
GlifName: O_slash
Width: 2048
VWidth: 0
Flags: W
LayerCount: 2
Fore
SplineSet
1923 1630 m 257
 69 -48 l 257
 109 -75 l 257
 1979 1588 l 257
 1923 1630 l 257
107 1540 m 257
 107 0 l 257
 167 0 l 257
 167 1540 l 257
 107 1540 l 257
1872 1537 m 257
 1872 0 l 257
 1931 0 l 257
 1931 1537 l 257
 1872 1537 l 257
137 1538 m 257
 137 1478 l 257
 1901 1478 l 257
 1901 1538 l 257
 137 1538 l 257
147 75 m 257
 147 0 l 257
 1872 0 l 257
 1872 75 l 257
 147 75 l 257
EndSplineSet
EndChar

StartChar: P
Encoding: 80 80 78
GlifName: P_
Width: 2048
VWidth: 0
Flags: W
LayerCount: 2
Fore
SplineSet
133 1535 m 257
 133 0 l 257
 192 0 l 257
 192 1535 l 257
 133 1535 l 257
133 1550 m 257
 133 1472 l 257
 1917 1472 l 257
 1917 1550 l 257
 133 1550 l 257
1856 1536 m 257
 1856 872 l 257
 1917 872 l 257
 1917 1536 l 257
 1856 1536 l 257
178 931 m 257
 178 871 l 257
 1889 871 l 257
 1889 931 l 257
 178 931 l 257
EndSplineSet
EndChar

StartChar: Q
Encoding: 81 81 79
GlifName: Q_
Width: 2048
VWidth: 0
Flags: W
LayerCount: 2
Fore
SplineSet
112 1553 m 257
 112 0 l 257
 170 0 l 257
 170 1553 l 257
 112 1553 l 257
1878 1553 m 257
 1878 0 l 257
 1936 0 l 257
 1936 1553 l 257
 1878 1553 l 257
152 1553 m 257
 152 1496 l 257
 1886 1496 l 257
 1886 1553 l 257
 152 1553 l 257
152 62 m 257
 152 0 l 257
 1888 0 l 257
 1888 62 l 257
 152 62 l 257
1416 13 m 257
 1522 -204 l 257
 1584 -165 l 257
 1464 52 l 257
 1416 13 l 257
EndSplineSet
EndChar

StartChar: R
Encoding: 82 82 80
GlifName: R_
Width: 2048
VWidth: 0
Flags: W
LayerCount: 2
Fore
SplineSet
122 1550 m 257
 122 0 l 257
 182 0 l 257
 182 1550 l 257
 122 1550 l 257
164 1550 m 257
 164 1491 l 257
 1880 1491 l 257
 1880 1550 l 257
 164 1550 l 257
1820 1550 m 257
 1820 872 l 257
 1908 872 l 257
 1908 1550 l 257
 1820 1550 l 257
152 929 m 257
 152 868 l 257
 1896 868 l 257
 1896 929 l 257
 152 929 l 257
414 875 m 257
 1870 0 l 257
 1926 0 l 257
 472 875 l 257
 414 875 l 257
EndSplineSet
EndChar

StartChar: S
Encoding: 83 83 83
GlifName: S_
Width: 2048
VWidth: 0
Flags: W
LayerCount: 2
Fore
SplineSet
126 1553 m 257
 126 1494 l 257
 1748 1494 l 257
 1748 1553 l 257
 126 1553 l 257
126 1542 m 257
 126 1028 l 257
 185 1028 l 257
 185 1542 l 257
 126 1542 l 257
154 60 m 257
 154 0 l 257
 1886 0 l 257
 1886 60 l 257
 154 60 l 257
1863 0 m 257
 1922 0 l 257
 1922 355 l 257
 1863 355 l 257
 1863 0 l 257
126 1028 m 257
 1863 355 l 257
 1922 355 l 257
 185 1028 l 257
 126 1028 l 257
EndSplineSet
EndChar

StartChar: T
Encoding: 84 84 88
GlifName: T_
Width: 2048
VWidth: 0
Flags: W
LayerCount: 2
Fore
SplineSet
120 1553 m 257
 120 1494 l 257
 1928 1494 l 257
 1928 1553 l 257
 120 1553 l 257
1066 1512 m 257
 1066 12 l 257
 1126 12 l 257
 1126 1512 l 257
 1066 1512 l 257
EndSplineSet
EndChar

StartChar: Thorn
Encoding: 222 222 90
GlifName: T_horn
Width: 2048
VWidth: 0
Flags: W
LayerCount: 2
Fore
SplineSet
646 1542 m 257
 646 9 l 257
 706 9 l 257
 706 1542 l 257
 646 1542 l 257
694 1240 m 257
 694 1187 l 257
 1382 1187 l 257
 1382 1240 l 257
 694 1240 l 257
1342 1242 m 257
 1342 531 l 257
 1402 531 l 257
 1402 1242 l 257
 1342 1242 l 257
714 544 m 257
 714 484 l 257
 1400 484 l 257
 1400 544 l 257
 714 544 l 257
EndSplineSet
EndChar

StartChar: U
Encoding: 85 85 91
GlifName: U_
Width: 2048
VWidth: 0
Flags: W
LayerCount: 2
Fore
SplineSet
156 1553 m 257
 156 0 l 257
 218 0 l 257
 218 1553 l 257
 156 1553 l 257
1830 1553 m 257
 1830 0 l 257
 1890 0 l 257
 1890 1553 l 257
 1830 1553 l 257
204 61 m 257
 204 0 l 257
 1848 0 l 257
 1848 61 l 257
 204 61 l 257
EndSplineSet
EndChar

StartChar: V
Encoding: 86 86 102
GlifName: V_
Width: 2048
VWidth: 0
Flags: W
LayerCount: 2
Fore
SplineSet
106 1553 m 257
 1062 0 l 257
 1122 0 l 257
 170 1553 l 257
 106 1553 l 257
1872 1553 m 257
 1062 0 l 257
 1122 0 l 257
 1942 1553 l 257
 1872 1553 l 257
EndSplineSet
EndChar

StartChar: W
Encoding: 87 87 103
GlifName: W_
Width: 2048
VWidth: 0
Flags: W
LayerCount: 2
Fore
SplineSet
103 1546 m 257
 103 0 l 257
 163 0 l 257
 163 1546 l 257
 103 1546 l 257
1885 1533 m 257
 1885 12 l 257
 1945 12 l 257
 1945 1533 l 257
 1885 1533 l 257
1069 1028 m 257
 1069 0 l 257
 1129 0 l 257
 1129 1028 l 257
 1069 1028 l 257
111 60 m 257
 111 0 l 257
 1945 0 l 257
 1945 60 l 257
 111 60 l 257
EndSplineSet
EndChar

StartChar: X
Encoding: 88 88 108
GlifName: X_
Width: 2048
VWidth: 0
Flags: W
LayerCount: 2
Fore
SplineSet
102 1553 m 257
 1872 0 l 257
 1946 0 l 257
 174 1553 l 257
 102 1553 l 257
102 0 m 257
 172 0 l 257
 1946 1553 l 257
 1870 1553 l 257
 102 0 l 257
EndSplineSet
EndChar

StartChar: Y
Encoding: 89 89 109
GlifName: Y_
Width: 2048
VWidth: 0
Flags: W
LayerCount: 2
Fore
SplineSet
1060 895 m 257
 1060 0 l 257
 1119 0 l 257
 1119 895 l 257
 1060 895 l 257
171 1547 m 257
 171 859 l 257
 232 859 l 257
 232 1547 l 257
 171 1547 l 257
1817 1536 m 257
 1817 859 l 257
 1877 859 l 257
 1877 1536 l 257
 1817 1536 l 257
217 919 m 257
 217 859 l 257
 1850 859 l 257
 1850 919 l 257
 217 919 l 257
EndSplineSet
EndChar

StartChar: Z
Encoding: 90 90 114
GlifName: Z_
Width: 2048
VWidth: 0
Flags: W
LayerCount: 2
Fore
SplineSet
98 1550 m 257
 98 1491 l 257
 1950 1491 l 257
 1950 1550 l 257
 98 1550 l 257
99 60 m 257
 99 0 l 257
 1950 0 l 257
 1950 60 l 257
 99 60 l 257
1890 1491 m 257
 99 60 l 257
 159 60 l 257
 1950 1491 l 257
 1890 1491 l 257
EndSplineSet
EndChar

StartChar: a
Encoding: 97 97 118
GlifName: a
Width: 2048
VWidth: 0
Flags: W
LayerCount: 2
Fore
SplineSet
166 1023 m 257
 166 957 l 257
 1839 957 l 257
 1839 1023 l 257
 166 1023 l 257
1801 1023 m 257
 1801 0 l 257
 1878 0 l 257
 1878 1023 l 257
 1801 1023 l 257
169 600 m 257
 169 538 l 257
 1817 538 l 257
 1817 600 l 257
 169 600 l 257
170 577 m 257
 170 0 l 257
 241 0 l 257
 241 577 l 257
 170 577 l 257
179 74 m 257
 179 0 l 257
 1867 0 l 257
 1867 74 l 257
 179 74 l 257
EndSplineSet
EndChar

StartChar: acute
Encoding: 180 180 122
GlifName: acute
Width: 2048
VWidth: 0
Flags: W
LayerCount: 2
Fore
SplineSet
522 1556 m 257
 392 1302 l 257
 480 1256 l 257
 611 1511 l 257
 522 1556 l 257
EndSplineSet
EndChar

StartChar: acutecomb
Encoding: 769 769 123
GlifName: acutecomb
Width: 0
VWidth: 0
LayerCount: 2
Fore
SplineSet
1037 949 m 257
 958 764 l 257
 1011 730 l 257
 1090 915 l 257
 1037 949 l 257
EndSplineSet
EndChar

StartChar: ae
Encoding: 230 230 125
GlifName: ae
Width: 2048
VWidth: 0
Flags: W
LayerCount: 2
Fore
SplineSet
104 1023 m 257
 104 961 l 257
 1894 961 l 257
 1894 1023 l 257
 104 1023 l 257
1024 1023 m 257
 1024 0 l 257
 1084 0 l 257
 1084 1023 l 257
 1024 1023 l 257
128 599 m 257
 128 538 l 257
 1868 538 l 257
 1868 599 l 257
 128 599 l 257
128 575 m 257
 128 0 l 257
 188 0 l 257
 188 575 l 257
 128 575 l 257
126 61 m 257
 126 0 l 257
 1946 0 l 257
 1946 61 l 257
 126 61 l 257
1862 1023 m 257
 1862 538 l 257
 1924 538 l 257
 1924 1023 l 257
 1862 1023 l 257
EndSplineSet
EndChar

StartChar: ampersand
Encoding: 38 38 128
GlifName: ampersand
Width: 2048
VWidth: 0
Flags: W
LayerCount: 2
Fore
SplineSet
772 1534 m 257
 1290 43 l 257
 1366 56 l 257
 850 1534 l 257
 772 1534 l 257
1316 1467 m 257
 1316 1536 l 257
 850 1536 l 257
 850 1467 l 257
 1316 1467 l 257
1258 1485 m 257
 1258 1006 l 257
 1316 1006 l 257
 1316 1485 l 257
 1258 1485 l 257
620 1045 m 257
 620 985 l 257
 1316 985 l 257
 1316 1045 l 257
 620 1045 l 257
620 1045 m 257
 620 24 l 257
 710 24 l 257
 710 1045 l 257
 620 1045 l 257
620 71 m 257
 620 6 l 257
 1428 6 l 257
 1428 71 l 257
 620 71 l 257
EndSplineSet
EndChar

StartChar: asciicircum
Encoding: 94 94 131
GlifName: asciicircum
Width: 2048
VWidth: 0
Flags: W
LayerCount: 2
Fore
SplineSet
1022 1027 m 257
 950 1027 l 257
 686 407 l 257
 740 373 l 257
 1022 1027 l 257
956 1030 m 257
 1280 364 l 257
 1362 400 l 257
 1030 1030 l 257
 956 1030 l 257
EndSplineSet
EndChar

StartChar: asciitilde
Encoding: 126 126 132
GlifName: asciitilde
Width: 2048
VWidth: 0
Flags: W
LayerCount: 2
Fore
SplineSet
878 766 m 257
 878 716 l 257
 1228 645 l 257
 1228 695 l 257
 878 766 l 257
638 710 m 257
 652 652 l 257
 878 716 l 257
 878 766 l 257
 638 710 l 257
1228 695 m 257
 1228 645 l 257
 1410 796 l 257
 1396 843 l 257
 1228 695 l 257
EndSplineSet
EndChar

StartChar: asterisk
Encoding: 42 42 133
GlifName: asterisk
Width: 2048
VWidth: 0
Flags: W
LayerCount: 2
Fore
SplineSet
998 1297 m 257
 998 289 l 257
 1098 289 l 257
 1098 1297 l 257
 998 1297 l 257
652 1153 m 257
 1376 424 l 257
 1444 496 l 257
 712 1222 l 257
 652 1153 l 257
1352 1200 m 257
 604 449 l 257
 660 399 l 257
 1404 1134 l 257
 1352 1200 l 257
EndSplineSet
EndChar

StartChar: at
Encoding: 64 64 134
GlifName: at
Width: 2048
VWidth: 0
Flags: W
LayerCount: 2
Fore
SplineSet
594 1023 m 257
 594 956 l 257
 1492 956 l 257
 1492 1023 l 257
 594 1023 l 257
1252 598 m 257
 1252 0 l 257
 1320 0 l 257
 1320 598 l 257
 1252 598 l 257
832 601 m 257
 832 551 l 257
 1256 551 l 257
 1256 601 l 257
 832 601 l 257
828 589 m 257
 828 12 l 257
 882 12 l 257
 882 589 l 257
 828 589 l 257
826 76 m 257
 826 0 l 257
 1320 0 l 257
 1320 76 l 257
 826 76 l 257
540 1023 m 257
 540 -223 l 257
 606 -223 l 257
 606 1023 l 257
 540 1023 l 257
538 -179 m 257
 538 -258 l 257
 1486 -258 l 257
 1486 -179 l 257
 538 -179 l 257
1424 1033 m 257
 1424 0 l 257
 1510 0 l 257
 1510 1033 l 257
 1424 1033 l 257
1266 76 m 257
 1266 0 l 257
 1456 0 l 257
 1456 76 l 257
 1266 76 l 257
EndSplineSet
EndChar

StartChar: b
Encoding: 98 98 136
GlifName: b
Width: 2048
VWidth: 0
Flags: W
LayerCount: 2
Fore
SplineSet
135 1536 m 257
 135 0 l 257
 195 0 l 257
 195 1536 l 257
 135 1536 l 257
178 1033 m 257
 178 972 l 257
 1866 972 l 257
 1866 1033 l 257
 178 1033 l 257
1853 1033 m 257
 1853 0 l 257
 1913 0 l 257
 1913 1033 l 257
 1853 1033 l 257
170 60 m 257
 170 0 l 257
 1891 0 l 257
 1891 60 l 257
 170 60 l 257
EndSplineSet
EndChar

StartChar: backslash
Encoding: 92 92 137
GlifName: backslash
Width: 2048
VWidth: 0
Flags: W
LayerCount: 2
Fore
SplineSet
707 1550 m 257
 1263 0 l 257
 1341 0 l 257
 790 1550 l 257
 707 1550 l 257
EndSplineSet
EndChar

StartChar: bar
Encoding: 124 124 138
GlifName: bar
Width: 2048
VWidth: 0
Flags: W
LayerCount: 2
Fore
SplineSet
984 1435 m 257
 984 -90 l 257
 1064 -90 l 257
 1064 1435 l 257
 984 1435 l 257
EndSplineSet
EndChar

StartChar: braceleft
Encoding: 123 123 139
GlifName: braceleft
Width: 2048
VWidth: 0
Flags: W
LayerCount: 2
Fore
SplineSet
1024 1600 m 257
 1024 838 l 257
 1098 838 l 257
 1098 1600 l 257
 1024 1600 l 257
1036 424 m 257
 1036 -261 l 257
 1122 -261 l 257
 1122 424 l 257
 1036 424 l 257
736 690 m 257
 736 630 l 257
 1100 836 l 257
 1024 836 l 257
 736 690 l 257
736 690 m 257
 736 630 l 257
 1034 425 l 257
 1120 425 l 257
 736 690 l 257
1044 1600 m 257
 1044 1529 l 257
 1300 1571 l 257
 1304 1600 l 257
 1044 1600 l 257
1042 -179 m 257
 1042 -263 l 257
 1312 -263 l 257
 1312 -250 l 257
 1042 -179 l 257
EndSplineSet
EndChar

StartChar: braceright
Encoding: 125 125 140
GlifName: braceright
Width: 2048
VWidth: 0
Flags: W
LayerCount: 2
Fore
SplineSet
1040 1544 m 257
 981 1544 l 257
 981 838 l 257
 1039 838 l 257
 1040 1544 l 257
1026 424 m 257
 966 424 l 257
 966 -286 l 257
 1026 -286 l 257
 1026 424 l 257
1313 690 m 257
 1035 838 l 257
 980 838 l 257
 1313 630 l 257
 1313 690 l 257
1313 690 m 257
 966 424 l 257
 1026 424 l 257
 1313 630 l 257
 1313 690 l 257
1041 1603 m 257
 766 1603 l 257
 770 1574 l 257
 1038 1509 l 257
 1041 1603 l 257
1014 -200 m 257
 735 -274 l 257
 735 -284 l 257
 1011 -284 l 257
 1014 -200 l 257
EndSplineSet
EndChar

StartChar: bracketleft
Encoding: 91 91 141
GlifName: bracketleft
Width: 2048
VWidth: 0
Flags: W
LayerCount: 2
Fore
SplineSet
890 1542 m 257
 890 -242 l 257
 947 -242 l 257
 947 1542 l 257
 890 1542 l 257
944 1543 m 257
 944 1481 l 257
 1153 1481 l 257
 1153 1543 l 257
 944 1543 l 257
926 -168 m 257
 926 -242 l 257
 1158 -242 l 257
 1158 -168 l 257
 926 -168 l 257
EndSplineSet
EndChar

StartChar: bracketright
Encoding: 93 93 142
GlifName: bracketright
Width: 2048
VWidth: 0
Flags: W
LayerCount: 2
Fore
SplineSet
1098 1542 m 257
 1098 -242 l 257
 1160 -242 l 257
 1160 1542 l 257
 1098 1542 l 257
886 1543 m 257
 886 1478 l 257
 1114 1478 l 257
 1114 1543 l 257
 886 1543 l 257
886 -165 m 257
 886 -242 l 257
 1124 -242 l 257
 1124 -165 l 257
 886 -165 l 257
EndSplineSet
EndChar

StartChar: breve
Encoding: 728 728 143
GlifName: breve
Width: 2048
VWidth: 0
Flags: W
LayerCount: 2
Fore
SplineSet
1189 1550 m 257
 1189 1480 l 257
 1354 1550 l 257
 1354 1645 l 257
 1189 1550 l 257
865 1550 m 257
 865 1480 l 257
 1189 1480 l 257
 1189 1550 l 257
 865 1550 l 257
694 1630 m 257
 694 1550 l 257
 865 1480 l 257
 865 1550 l 257
 694 1630 l 257
EndSplineSet
EndChar

StartChar: brokenbar
Encoding: 166 166 144
GlifName: brokenbar
Width: 2048
VWidth: 0
Flags: W
LayerCount: 2
Fore
SplineSet
1002 -332 m 257
 1046 -332 l 257
 1046 682 l 257
 1002 682 l 257
 1002 -332 l 257
1009 790 m 257
 1046 790 l 257
 1046 1636 l 257
 1009 1636 l 257
 1009 790 l 257
EndSplineSet
EndChar

StartChar: bullet
Encoding: 8226 8226 145
GlifName: bullet
Width: 2048
VWidth: 0
Flags: W
LayerCount: 2
Fore
SplineSet
947 1009 m 257
 947 844 l 257
 1101 844 l 257
 1101 1009 l 257
 947 1009 l 257
EndSplineSet
EndChar

StartChar: c
Encoding: 99 99 146
GlifName: c
Width: 2048
VWidth: 0
Flags: W
LayerCount: 2
Fore
SplineSet
164 1027 m 257
 164 967 l 257
 1884 967 l 257
 1884 1027 l 257
 164 1027 l 257
166 984 m 257
 166 0 l 257
 226 0 l 257
 226 984 l 257
 166 984 l 257
214 60 m 257
 214 0 l 257
 1878 0 l 257
 1878 60 l 257
 214 60 l 257
EndSplineSet
EndChar

StartChar: caron
Encoding: 711 711 148
GlifName: caron
Width: 2048
VWidth: 0
Flags: W
LayerCount: 2
Fore
SplineSet
1023 1102 m 257
 882 1429 l 257
 855 1412 l 257
 987 1102 l 257
 1023 1102 l 257
990 1101 m 257
 1027 1101 l 257
 1193 1416 l 257
 1152 1434 l 257
 990 1101 l 257
EndSplineSet
EndChar

StartChar: cedilla
Encoding: 184 184 153
GlifName: cedilla
Width: 2048
VWidth: 0
Flags: W
LayerCount: 2
Fore
SplineSet
805 187 m 257
 805 -53 l 257
 863 -53 l 257
 863 187 l 257
 805 187 l 257
811 -340 m 257
 811 -401 l 257
 1257 -401 l 257
 1257 -340 l 257
 811 -340 l 257
1198 7 m 257
 1198 -365 l 257
 1257 -365 l 257
 1257 7 l 257
 1198 7 l 257
811 7 m 257
 811 -53 l 257
 1257 -53 l 257
 1257 7 l 257
 811 7 l 257
EndSplineSet
EndChar

StartChar: cent
Encoding: 162 162 154
GlifName: cent
Width: 2048
VWidth: 0
Flags: W
LayerCount: 2
Fore
SplineSet
1116 1183 m 257
 1056 1183 l 257
 1056 -86 l 257
 1116 -86 l 257
 1116 1183 l 257
676 1027 m 257
 676 966 l 257
 1372 966 l 257
 1372 1027 l 257
 676 1027 l 257
678 984 m 257
 678 0 l 257
 743 0 l 257
 743 984 l 257
 678 984 l 257
727 61 m 257
 727 0 l 257
 1366 0 l 257
 1366 61 l 257
 727 61 l 257
EndSplineSet
EndChar

StartChar: circumflex
Encoding: 710 710 155
GlifName: circumflex
Width: 2048
VWidth: 0
Flags: W
LayerCount: 2
Fore
SplineSet
1023 2308 m 257
 987 2308 l 257
 855 1998 l 257
 882 1981 l 257
 1023 2308 l 257
990 2310 m 257
 1152 1976 l 257
 1193 1994 l 257
 1027 2310 l 257
 990 2310 l 257
EndSplineSet
EndChar

StartChar: colon
Encoding: 58 58 156
GlifName: colon
Width: 2048
VWidth: 0
Flags: W
LayerCount: 2
Fore
SplineSet
956 164 m 257
 956 7 l 257
 1092 7 l 257
 1092 164 l 257
 956 164 l 257
956 553 m 257
 956 396 l 257
 1092 396 l 257
 1092 553 l 257
 956 553 l 257
EndSplineSet
EndChar

StartChar: comma
Encoding: 44 44 157
GlifName: comma
Width: 2048
VWidth: 0
Flags: W
LayerCount: 2
Fore
SplineSet
956 165 m 257
 956 8 l 257
 1092 8 l 257
 1092 165 l 257
 956 165 l 257
1040 135 m 257
 998 -99 l 257
 1048 -148 l 257
 1090 26 l 257
 1040 135 l 257
EndSplineSet
EndChar

StartChar: copyright
Encoding: 169 169 158
GlifName: copyright
Width: 2048
VWidth: 0
Flags: W
LayerCount: 2
Fore
SplineSet
524 1540 m 257
 524 0 l 257
 584 0 l 257
 584 1540 l 257
 524 1540 l 257
1464 1537 m 257
 1464 0 l 257
 1524 0 l 257
 1524 1537 l 257
 1464 1537 l 257
576 1538 m 257
 576 1476 l 257
 1520 1476 l 257
 1520 1538 l 257
 576 1538 l 257
536 60 m 257
 536 0 l 257
 1506 0 l 257
 1506 60 l 257
 536 60 l 257
770 1197 m 257
 770 1135 l 257
 1204 1135 l 257
 1204 1197 l 257
 770 1197 l 257
770 1154 m 257
 770 340 l 257
 830 340 l 257
 830 1154 l 257
 770 1154 l 257
770 356 m 257
 770 294 l 257
 1210 294 l 257
 1210 356 l 257
 770 356 l 257
EndSplineSet
EndChar

StartChar: currency
Encoding: 164 164 159
GlifName: currency
Width: 2048
VWidth: 0
Flags: W
LayerCount: 2
Fore
SplineSet
610 1182 m 257
 610 160 l 257
 670 160 l 257
 670 1182 l 257
 610 1182 l 257
1368 1184 m 257
 1368 160 l 257
 1428 160 l 257
 1428 1184 l 257
 1368 1184 l 257
672 1187 m 257
 672 1127 l 257
 1372 1127 l 257
 1372 1187 l 257
 672 1187 l 257
656 222 m 257
 656 160 l 257
 1376 160 l 257
 1376 222 l 257
 656 222 l 257
536 1251 m 257
 536 1137 l 257
 680 1137 l 257
 680 1251 l 257
 536 1251 l 257
1372 1241 m 257
 1372 1127 l 257
 1514 1127 l 257
 1514 1241 l 257
 1372 1241 l 257
530 223 m 257
 530 109 l 257
 674 109 l 257
 674 223 l 257
 530 223 l 257
1374 220 m 257
 1374 106 l 257
 1518 106 l 257
 1518 220 l 257
 1374 220 l 257
EndSplineSet
EndChar

StartChar: d
Encoding: 100 100 160
GlifName: d
Width: 2048
VWidth: 0
Flags: W
LayerCount: 2
Fore
SplineSet
1804 1550 m 257
 1804 0 l 257
 1864 0 l 257
 1864 1550 l 257
 1804 1550 l 257
228 1026 m 257
 228 966 l 257
 1838 966 l 257
 1838 1026 l 257
 228 1026 l 257
184 1023 m 257
 184 0 l 257
 244 0 l 257
 244 1023 l 257
 184 1023 l 257
224 59 m 257
 224 -4 l 257
 1816 -4 l 257
 1816 59 l 257
 224 59 l 257
EndSplineSet
EndChar

StartChar: dagger
Encoding: 8224 8224 161
GlifName: dagger
Width: 2048
VWidth: 0
Flags: W
LayerCount: 2
Fore
SplineSet
209 1251 m 257
 209 1200 l 257
 815 1200 l 257
 815 1251 l 257
 209 1251 l 257
481 1550 m 257
 481 0 l 257
 547 0 l 257
 547 1550 l 257
 481 1550 l 257
EndSplineSet
EndChar

StartChar: daggerdbl
Encoding: 8225 8225 162
GlifName: daggerdbl
Width: 2048
VWidth: 0
Flags: W
LayerCount: 2
Fore
SplineSet
209 823 m 257
 209 772 l 257
 815 772 l 257
 815 823 l 257
 209 823 l 257
209 1251 m 257
 209 1200 l 257
 815 1200 l 257
 815 1251 l 257
 209 1251 l 257
490 1550 m 257
 490 0 l 257
 552 0 l 257
 552 1550 l 257
 490 1550 l 257
EndSplineSet
EndChar

StartChar: dcaron
Encoding: 271 271 163
GlifName: dcaron
Width: 2048
VWidth: 0
Flags: W
LayerCount: 2
Fore
SplineSet
1770 1527 m 257
 1770 0 l 257
 1830 0 l 257
 1830 1527 l 257
 1770 1527 l 257
114 1023 m 257
 114 962 l 257
 1790 962 l 257
 1790 1023 l 257
 114 1023 l 257
70 1023 m 257
 70 0 l 257
 128 0 l 257
 128 1023 l 257
 70 1023 l 257
86 60 m 257
 86 0 l 257
 1782 0 l 257
 1782 60 l 257
 86 60 l 257
1928 1496 m 257
 1928 1264 l 257
 1978 1264 l 257
 1978 1496 l 257
 1928 1496 l 257
EndSplineSet
EndChar

StartChar: dcroat
Encoding: 273 273 164
GlifName: dcroat
Width: 2048
VWidth: 0
Flags: W
LayerCount: 2
Fore
SplineSet
1792 1527 m 257
 1792 0 l 257
 1852 0 l 257
 1852 1527 l 257
 1792 1527 l 257
122 1023 m 257
 122 962 l 257
 1814 962 l 257
 1814 1023 l 257
 122 1023 l 257
90 1023 m 257
 90 0 l 257
 150 0 l 257
 150 1023 l 257
 90 1023 l 257
138 61 m 257
 138 0 l 257
 1804 0 l 257
 1804 61 l 257
 138 61 l 257
1650 1260 m 257
 1650 1202 l 257
 1958 1202 l 257
 1958 1260 l 257
 1650 1260 l 257
EndSplineSet
EndChar

StartChar: degree
Encoding: 176 176 165
GlifName: degree
Width: 2048
VWidth: 0
Flags: W
LayerCount: 2
Fore
SplineSet
903 1439 m 257
 1153 1439 l 257
 1153 1231 l 257
 903 1231 l 257
 903 1439 l 257
844 1488 m 257
 844 1179 l 257
 1204 1179 l 257
 1204 1488 l 257
 844 1488 l 257
EndSplineSet
EndChar

StartChar: dieresis
Encoding: 168 168 166
GlifName: dieresis
Width: 2048
VWidth: 0
Flags: W
LayerCount: 2
Fore
SplineSet
865 1023 m 257
 865 923 l 257
 977 923 l 257
 977 1023 l 257
 865 1023 l 257
1107 1023 m 257
 1107 923 l 257
 1219 923 l 257
 1219 1023 l 257
 1107 1023 l 257
EndSplineSet
EndChar

StartChar: divide
Encoding: 247 247 167
GlifName: divide
Width: 2048
VWidth: 0
Flags: W
LayerCount: 2
Fore
SplineSet
1030 280 m 257
 1030 185 l 257
 1182 185 l 257
 1182 280 l 257
 1030 280 l 257
1021 1127 m 257
 1021 1031 l 257
 1158 1031 l 257
 1158 1127 l 257
 1021 1127 l 257
111 662 m 257
 111 600 l 257
 1937 600 l 257
 1937 662 l 257
 111 662 l 257
EndSplineSet
EndChar

StartChar: dollar
Encoding: 36 36 168
GlifName: dollar
Width: 2048
VWidth: 0
Flags: W
LayerCount: 2
Fore
SplineSet
638 1539 m 257
 638 1457 l 257
 1236 1457 l 257
 1236 1539 l 257
 638 1539 l 257
638 1542 m 257
 638 1028 l 257
 722 1028 l 257
 722 1542 l 257
 638 1542 l 257
666 69 m 257
 666 0 l 257
 1374 0 l 257
 1374 69 l 257
 666 69 l 257
1330 0 m 257
 1410 0 l 257
 1410 355 l 257
 1330 355 l 257
 1330 0 l 257
638 1028 m 257
 1329 355 l 257
 1410 355 l 257
 722 1028 l 257
 638 1028 l 257
933 1636 m 257
 933 -215 l 257
 1003 -215 l 257
 1003 1636 l 257
 933 1636 l 257
EndSplineSet
EndChar

StartChar: dotaccent
Encoding: 729 729 169
GlifName: dotaccent
Width: 2048
VWidth: 0
Flags: W
LayerCount: 2
Fore
SplineSet
968 1078 m 257
 968 977 l 257
 1080 977 l 257
 1080 1078 l 257
 968 1078 l 257
EndSplineSet
EndChar

StartChar: dotbelowcomb
Encoding: 803 803 170
GlifName: dotbelowcomb
Width: 0
VWidth: 0
LayerCount: 2
Fore
SplineSet
984 -290 m 257
 984 -365 l 257
 1064 -365 l 257
 1064 -290 l 257
 984 -290 l 257
EndSplineSet
EndChar

StartChar: dotlessi
Encoding: 305 305 171
GlifName: dotlessi
Width: 2048
VWidth: 0
Flags: W
LayerCount: 2
Fore
SplineSet
1022 1023 m 257
 1022 52 l 257
 1082 52 l 257
 1082 1023 l 257
 1022 1023 l 257
141 60 m 257
 141 0 l 257
 1907 0 l 257
 1907 60 l 257
 141 60 l 257
191 1023 m 257
 191 962 l 257
 1039 962 l 257
 1039 1023 l 257
 191 1023 l 257
EndSplineSet
EndChar

StartChar: e
Encoding: 101 101 172
GlifName: e
Width: 2048
VWidth: 0
Flags: W
LayerCount: 2
Fore
SplineSet
218 1023 m 257
 218 968 l 257
 1880 968 l 257
 1880 1023 l 257
 218 1023 l 257
166 1023 m 257
 166 0 l 257
 224 0 l 257
 224 1023 l 257
 166 1023 l 257
208 61 m 257
 208 0 l 257
 1876 0 l 257
 1876 61 l 257
 208 61 l 257
186 506 m 257
 194 446 l 257
 1848 446 l 257
 1848 506 l 257
 186 506 l 257
1822 993 m 257
 1822 445 l 257
 1882 445 l 257
 1882 993 l 257
 1822 993 l 257
EndSplineSet
EndChar

StartChar: eight
Encoding: 56 56 180
GlifName: eight
Width: 2048
VWidth: 0
Flags: W
LayerCount: 2
Fore
SplineSet
56 1550 m 257
 56 0 l 257
 1993 -3 l 257
 1993 1550 l 257
 56 1550 l 257
1931 899 m 257
 1931 57 l 257
 119 57 l 257
 119 899 l 257
 1931 899 l 257
1932 959 m 257
 118 959 l 257
 118 1489 l 257
 1932 1489 l 257
 1932 959 l 257
EndSplineSet
EndChar

StartChar: ellipsis
Encoding: 8230 8230 181
GlifName: ellipsis
Width: 2048
VWidth: 0
Flags: W
LayerCount: 2
Fore
SplineSet
692 114 m 257
 692 0 l 257
 834 0 l 257
 834 114 l 257
 692 114 l 257
948 114 m 257
 948 0 l 257
 1092 0 l 257
 1092 114 l 257
 948 114 l 257
1214 114 m 257
 1214 0 l 257
 1356 0 l 257
 1356 114 l 257
 1214 114 l 257
EndSplineSet
EndChar

StartChar: emdash
Encoding: 8212 8212 183
GlifName: emdash
Width: 2048
VWidth: 0
Flags: W
LayerCount: 2
Fore
SplineSet
0 600 m 257
 2014 600 l 257
 2014 688 l 257
 0 688 l 257
 0 600 l 257
EndSplineSet
EndChar

StartChar: endash
Encoding: 8211 8211 184
GlifName: endash
Width: 2048
VWidth: 0
Flags: W
LayerCount: 2
Fore
SplineSet
611 600 m 257
 1437 600 l 257
 1437 678 l 257
 611 678 l 257
 611 600 l 257
EndSplineSet
EndChar

StartChar: eng
Encoding: 331 331 185
GlifName: eng
Width: 1024
VWidth: 0
Flags: W
LayerCount: 2
Fore
SplineSet
456 -211 m 257
 456 -408 l 257
 843 -408 l 257
 843 -211 l 257
 456 -211 l 257
244 990 m 257
 244 0 l 257
 445 0 l 257
 445 990 l 257
 244 990 l 257
643 976 m 257
 643 -408 l 257
 844 -408 l 257
 844 976 l 257
 643 976 l 257
65 1023 m 257
 65 826 l 257
 843 826 l 257
 843 1023 l 257
 65 1023 l 257
EndSplineSet
EndChar

StartChar: equal
Encoding: 61 61 187
GlifName: equal
Width: 2048
VWidth: 0
Flags: W
LayerCount: 2
Fore
SplineSet
616 824 m 257
 616 724 l 257
 1432 724 l 257
 1432 824 l 257
 616 824 l 257
616 540 m 257
 616 450 l 257
 1432 450 l 257
 1432 540 l 257
 616 540 l 257
EndSplineSet
EndChar

StartChar: eth
Encoding: 240 240 188
GlifName: eth
Width: 2048
VWidth: 0
Flags: W
LayerCount: 2
Fore
SplineSet
752 1550 m 257
 1856 0 l 257
 1904 0 l 257
 808 1550 l 257
 752 1550 l 257
184 1023 m 257
 184 964 l 257
 1176 964 l 257
 1176 1023 l 257
 184 1023 l 257
144 1023 m 257
 144 0 l 257
 204 0 l 257
 204 1023 l 257
 144 1023 l 257
190 59 m 257
 190 0 l 257
 1856 0 l 257
 1856 59 l 257
 190 59 l 257
672 1416 m 257
 672 1351 l 257
 1016 1351 l 257
 1016 1416 l 257
 672 1416 l 257
EndSplineSet
EndChar

StartChar: exclam
Encoding: 33 33 189
GlifName: exclam
Width: 2048
VWidth: 0
Flags: W
LayerCount: 2
Fore
SplineSet
990 76 m 257
 1057 76 l 257
 1057 174 l 257
 990 174 l 257
 990 76 l 257
988 411 m 257
 1060 411 l 257
 1060 1429 l 257
 988 1429 l 257
 988 411 l 257
EndSplineSet
EndChar

StartChar: exclamdown
Encoding: 161 161 190
GlifName: exclamdown
Width: 2048
VWidth: 0
Flags: W
LayerCount: 2
Fore
SplineSet
1054 1520 m 257
 994 1520 l 257
 994 1272 l 257
 1054 1272 l 257
 1054 1520 l 257
1050 1035 m 257
 996 1035 l 257
 996 17 l 257
 1054 17 l 257
 1050 1035 l 257
EndSplineSet
EndChar

StartChar: f
Encoding: 102 102 191
GlifName: f
Width: 2048
VWidth: 0
Flags: W
LayerCount: 2
Fore
SplineSet
929 1023 m 257
 929 -410 l 257
 989 -410 l 257
 989 1023 l 257
 929 1023 l 257
930 1023 m 257
 930 963 l 257
 1840 963 l 257
 1840 1023 l 257
 930 1023 l 257
207 462 m 257
 207 402 l 257
 1710 402 l 257
 1710 462 l 257
 207 462 l 257
EndSplineSet
EndChar

StartChar: five
Encoding: 53 53 192
GlifName: five
Width: 2048
VWidth: 0
Flags: W
LayerCount: 2
Fore
SplineSet
1941 899 m 257
 1941 58 l 257
 59 58 l 257
 59 0 l 257
 2001 0 l 257
 2001 959 l 257
 120 959 l 257
 120 1492 l 257
 2011 1492 l 257
 2011 1550 l 257
 60 1550 l 257
 60 899 l 257
 1941 899 l 257
EndSplineSet
EndChar

StartChar: four
Encoding: 52 52 193
GlifName: four
Width: 2048
VWidth: 0
Flags: W
LayerCount: 2
Fore
SplineSet
91 761 m 257
 1896 761 l 257
 1896 7 l 257
 1953 7 l 257
 1953 1550 l 257
 1893 1550 l 257
 1893 821 l 257
 151 821 l 257
 151 1550 l 257
 91 1550 l 257
 91 761 l 257
EndSplineSet
EndChar

StartChar: g
Encoding: 103 103 194
GlifName: g
Width: 2048
VWidth: 0
Flags: W
LayerCount: 2
Fore
SplineSet
223 1023 m 257
 223 0 l 257
 283 0 l 257
 283 1023 l 257
 223 1023 l 257
263 1023 m 257
 263 962 l 257
 1803 962 l 257
 1803 1023 l 257
 263 1023 l 257
1765 1023 m 257
 1765 -411 l 257
 1825 -411 l 257
 1825 1023 l 257
 1765 1023 l 257
286 58 m 257
 286 0 l 257
 1767 0 l 257
 1767 58 l 257
 286 58 l 257
263 -354 m 257
 263 -413 l 257
 1776 -413 l 257
 1776 -354 l 257
 263 -354 l 257
EndSplineSet
EndChar

StartChar: germandbls
Encoding: 223 223 198
GlifName: germandbls
Width: 2048
VWidth: 0
Flags: W
LayerCount: 2
Fore
SplineSet
588 1084 m 257
 588 1023 l 257
 839 1023 l 257
 839 1084 l 257
 588 1084 l 257
773 1547 m 257
 773 -4 l 257
 837 -4 l 257
 837 1547 l 257
 773 1547 l 257
825 1550 m 257
 825 1488 l 257
 1432 1488 l 257
 1432 1550 l 257
 825 1550 l 257
1398 1550 m 257
 1398 1023 l 257
 1459 1023 l 257
 1459 1550 l 257
 1398 1550 l 257
1402 1062 m 257
 1164 1062 l 257
 1164 826 l 257
 1402 826 l 257
 1402 1062 l 257
1400 848 m 257
 1400 175 l 257
 1458 175 l 257
 1458 848 l 257
 1400 848 l 257
1117 187 m 257
 1117 131 l 257
 1460 131 l 257
 1460 187 l 257
 1117 187 l 257
EndSplineSet
EndChar

StartChar: glyph094D
Encoding: 65536 -1 199
GlifName: glyph094D_
Width: 2048
VWidth: 0
Flags: W
LayerCount: 2
Fore
SplineSet
235 -16 m 257
 235 -77 l 257
 579 -77 l 257
 579 -16 l 257
 235 -16 l 257
550 -71 m 257
 1041 -418 l 257
 1071 -366 l 257
 579 -15 l 257
 550 -71 l 257
EndSplineSet
EndChar

StartChar: grave
Encoding: 96 96 200
GlifName: grave
Width: 2048
VWidth: 0
Flags: W
LayerCount: 2
Fore
SplineSet
938 1286 m 257
 1022 1057 l 257
 1110 1112 l 257
 1018 1340 l 257
 938 1286 l 257
EndSplineSet
EndChar

StartChar: gravecomb
Encoding: 768 768 201
GlifName: gravecomb
Width: 0
VWidth: 0
LayerCount: 2
Fore
SplineSet
932 877 m 257
 1056 673 l 257
 1116 727 l 257
 992 932 l 257
 932 877 l 257
EndSplineSet
EndChar

StartChar: greater
Encoding: 62 62 202
GlifName: greater
Width: 2048
VWidth: 0
Flags: W
LayerCount: 2
Fore
SplineSet
1433 632 m 257
 617 1013 l 257
 617 952 l 257
 1433 569 l 257
 1433 632 l 257
1433 632 m 257
 615 186 l 257
 615 122 l 257
 1433 569 l 257
 1433 632 l 257
EndSplineSet
EndChar

StartChar: guillemotleft
Encoding: 171 171 203
GlifName: guillemotleft
Width: 2048
VWidth: 0
Flags: W
LayerCount: 2
Fore
SplineSet
610 509 m 257
 610 472 l 257
 1047 757 l 257
 1047 784 l 257
 610 509 l 257
610 509 m 257
 610 472 l 257
 978 122 l 257
 986 160 l 257
 610 509 l 257
1028 527 m 257
 1028 498 l 257
 1438 783 l 257
 1438 823 l 257
 1028 527 l 257
1027 527 m 257
 1027 497 l 257
 1393 122 l 257
 1410 149 l 257
 1027 527 l 257
EndSplineSet
EndChar

StartChar: guillemotright
Encoding: 187 187 204
GlifName: guillemotright
Width: 2048
VWidth: 0
Flags: W
LayerCount: 2
Fore
SplineSet
1438 509 m 257
 1001 784 l 257
 1001 757 l 257
 1437 472 l 257
 1438 509 l 257
1438 509 m 257
 1062 160 l 257
 1070 122 l 257
 1437 472 l 257
 1438 509 l 257
1020 527 m 257
 610 823 l 257
 610 783 l 257
 1021 498 l 257
 1020 527 l 257
1021 527 m 257
 638 149 l 257
 655 122 l 257
 1021 497 l 257
 1021 527 l 257
EndSplineSet
EndChar

StartChar: guilsinglleft
Encoding: 8249 8249 205
GlifName: guilsinglleft
Width: 2048
VWidth: 0
Flags: W
LayerCount: 2
Fore
SplineSet
103 652 m 257
 103 569 l 257
 921 946 l 257
 921 1013 l 257
 103 652 l 257
103 652 m 257
 103 569 l 257
 915 122 l 257
 915 199 l 257
 103 652 l 257
EndSplineSet
EndChar

StartChar: guilsinglright
Encoding: 8250 8250 206
GlifName: guilsinglright
Width: 2048
VWidth: 0
Flags: W
LayerCount: 2
Fore
SplineSet
921 632 m 257
 105 1013 l 257
 105 952 l 257
 921 569 l 257
 921 632 l 257
921 632 m 257
 103 186 l 257
 103 122 l 257
 921 569 l 257
 921 632 l 257
EndSplineSet
EndChar

StartChar: h
Encoding: 104 104 207
GlifName: h
Width: 2048
VWidth: 0
Flags: W
LayerCount: 2
Fore
SplineSet
174 1525 m 257
 174 6 l 257
 233 6 l 257
 233 1525 l 257
 174 1525 l 257
214 1028 m 257
 214 968 l 257
 1827 968 l 257
 1827 1028 l 257
 214 1028 l 257
1815 1028 m 257
 1815 0 l 257
 1874 0 l 257
 1874 1028 l 257
 1815 1028 l 257
EndSplineSet
EndChar

StartChar: hbar
Encoding: 295 295 208
GlifName: hbar
Width: 2048
VWidth: 0
Flags: W
LayerCount: 2
Fore
SplineSet
242 1541 m 257
 242 6 l 257
 302 6 l 257
 302 1541 l 257
 242 1541 l 257
276 1023 m 257
 276 966 l 257
 1934 966 l 257
 1934 1023 l 257
 276 1023 l 257
1883 1023 m 257
 1883 0 l 257
 1942 0 l 257
 1942 1023 l 257
 1883 1023 l 257
106 1429 m 257
 106 1369 l 257
 562 1369 l 257
 562 1429 l 257
 106 1429 l 257
EndSplineSet
EndChar

StartChar: hungarumlaut
Encoding: 733 733 210
GlifName: hungarumlaut
Width: 2048
VWidth: 0
Flags: W
LayerCount: 2
Fore
SplineSet
792 122 m 257
 858 122 l 257
 858 370 l 257
 792 370 l 257
 792 122 l 257
1196 122 m 257
 1256 122 l 257
 1256 370 l 257
 1196 370 l 257
 1196 122 l 257
EndSplineSet
EndChar

StartChar: hyphen
Encoding: 45 45 211
GlifName: hyphen
Width: 2048
VWidth: 0
Flags: W
LayerCount: 2
Fore
SplineSet
611 793 m 257
 611 695 l 257
 1437 695 l 257
 1437 793 l 257
 611 793 l 257
EndSplineSet
EndChar

StartChar: i
Encoding: 105 105 212
GlifName: i
Width: 2048
VWidth: 0
Flags: W
LayerCount: 2
Fore
SplineSet
1022 1023 m 257
 1022 52 l 257
 1082 52 l 257
 1082 1023 l 257
 1022 1023 l 257
141 60 m 257
 141 0 l 257
 1907 0 l 257
 1907 60 l 257
 141 60 l 257
836 1292 m 257
 836 1174 l 257
 949 1174 l 257
 949 1292 l 257
 836 1292 l 257
191 1023 m 257
 191 962 l 257
 1039 962 l 257
 1039 1023 l 257
 191 1023 l 257
EndSplineSet
EndChar

StartChar: j
Encoding: 106 106 222
GlifName: j
Width: 2048
VWidth: 0
Flags: W
LayerCount: 2
Fore
SplineSet
1792 1023 m 257
 1792 -411 l 257
 1850 -411 l 257
 1850 1023 l 257
 1792 1023 l 257
198 -348 m 257
 198 -409 l 257
 1812 -409 l 257
 1812 -348 l 257
 198 -348 l 257
198 -6 m 257
 198 -378 l 257
 258 -378 l 257
 258 -6 l 257
 198 -6 l 257
1790 1201 m 257
 1790 1142 l 257
 1850 1142 l 257
 1850 1201 l 257
 1790 1201 l 257
EndSplineSet
EndChar

StartChar: k
Encoding: 107 107 224
GlifName: k
Width: 2048
VWidth: 0
Flags: W
LayerCount: 2
Fore
SplineSet
88 1535 m 257
 88 5 l 257
 148 5 l 257
 148 1535 l 257
 88 1535 l 257
137 421 m 257
 137 352 l 257
 1794 1023 l 257
 1734 1023 l 257
 137 421 l 257
489 551 m 257
 447 508 l 257
 1899 0 l 257
 1960 0 l 257
 489 551 l 257
EndSplineSet
EndChar

StartChar: l
Encoding: 108 108 225
GlifName: l
Width: 2048
VWidth: 0
Flags: W
LayerCount: 2
Fore
SplineSet
207 72 m 257
 207 0 l 257
 1841 0 l 257
 1841 72 l 257
 207 72 l 257
1006 1553 m 257
 1006 57 l 257
 1066 57 l 257
 1066 1553 l 257
 1006 1553 l 257
268 1553 m 257
 268 1494 l 257
 1015 1494 l 257
 1015 1553 l 257
 268 1553 l 257
EndSplineSet
EndChar

StartChar: lcaron
Encoding: 318 318 227
GlifName: lcaron
Width: 2048
VWidth: 0
Flags: W
LayerCount: 2
Fore
SplineSet
196 62 m 257
 196 0 l 257
 1854 0 l 257
 1854 62 l 257
 196 62 l 257
1004 1547 m 257
 1004 46 l 257
 1062 46 l 257
 1062 1547 l 257
 1004 1547 l 257
194 1550 m 257
 194 1489 l 257
 1018 1489 l 257
 1018 1550 l 257
 194 1550 l 257
1142 1496 m 257
 1142 1264 l 257
 1194 1264 l 257
 1194 1496 l 257
 1142 1496 l 257
EndSplineSet
EndChar

StartChar: less
Encoding: 60 60 229
GlifName: less
Width: 2048
VWidth: 0
Flags: W
LayerCount: 2
Fore
SplineSet
615 652 m 257
 615 569 l 257
 1433 946 l 257
 1433 1013 l 257
 615 652 l 257
615 652 m 257
 615 569 l 257
 1427 122 l 257
 1427 199 l 257
 615 652 l 257
EndSplineSet
EndChar

StartChar: logicalnot
Encoding: 172 172 230
GlifName: logicalnot
Width: 2048
VWidth: 0
Flags: W
LayerCount: 2
Fore
SplineSet
1241 935 m 257
 1241 640 l 257
 1294 640 l 257
 1294 935 l 257
 1241 935 l 257
754 935 m 257
 754 875 l 257
 1288 875 l 257
 1288 935 l 257
 754 935 l 257
EndSplineSet
EndChar

StartChar: lslash
Encoding: 322 322 231
GlifName: lslash
Width: 2048
VWidth: 0
Flags: W
LayerCount: 2
Fore
SplineSet
195 60 m 257
 195 0 l 257
 1853 0 l 257
 1853 60 l 257
 195 60 l 257
1064 1553 m 257
 1064 22 l 257
 1124 22 l 257
 1124 1553 l 257
 1064 1553 l 257
256 1553 m 257
 256 1493 l 257
 1090 1493 l 257
 1090 1553 l 257
 256 1553 l 257
1327 1039 m 257
 748 702 l 257
 850 702 l 257
 1429 1039 l 257
 1327 1039 l 257
EndSplineSet
EndChar

StartChar: m
Encoding: 109 109 232
GlifName: m
Width: 2048
VWidth: 0
Flags: W
LayerCount: 2
Fore
SplineSet
334 993 m 257
 334 0 l 257
 394 0 l 257
 394 993 l 257
 334 993 l 257
1030 972 m 257
 1030 0 l 257
 1090 0 l 257
 1090 972 l 257
 1030 972 l 257
1928 976 m 257
 1928 0 l 257
 1988 0 l 257
 1988 976 l 257
 1928 976 l 257
60 1023 m 257
 60 966 l 257
 1988 966 l 257
 1988 1023 l 257
 60 1023 l 257
EndSplineSet
EndChar

StartChar: macron
Encoding: 175 175 233
GlifName: macron
Width: 2048
VWidth: 0
Flags: W
LayerCount: 2
Fore
SplineSet
737 1019 m 257
 737 977 l 257
 1297 977 l 257
 1297 1019 l 257
 737 1019 l 257
EndSplineSet
EndChar

StartChar: mu
Encoding: 181 181 235
GlifName: mu
Width: 2048
VWidth: 0
Flags: W
LayerCount: 2
Fore
SplineSet
1538 935 m 257
 1538 0 l 257
 1663 0 l 257
 1663 935 l 257
 1538 935 l 257
430 60 m 257
 430 0 l 257
 1600 0 l 257
 1600 60 l 257
 430 60 l 257
333 935 m 257
 333 -430 l 257
 462 -430 l 257
 462 935 l 257
 333 935 l 257
EndSplineSet
EndChar

StartChar: multiply
Encoding: 215 215 236
GlifName: multiply
Width: 2048
VWidth: 0
Flags: W
LayerCount: 2
Fore
SplineSet
92 295 m 257
 188 295 l 257
 1948 1323 l 257
 1866 1323 l 257
 92 295 l 257
90 1322 m 257
 1870 288 l 257
 1958 288 l 257
 174 1322 l 257
 90 1322 l 257
EndSplineSet
EndChar

StartChar: n
Encoding: 110 110 237
GlifName: n
Width: 2048
VWidth: 0
Flags: W
LayerCount: 2
Fore
SplineSet
502 990 m 257
 502 0 l 257
 563 0 l 257
 563 990 l 257
 502 990 l 257
1866 976 m 257
 1866 0 l 257
 1926 0 l 257
 1926 976 l 257
 1866 976 l 257
122 1027 m 257
 122 967 l 257
 1924 967 l 257
 1924 1027 l 257
 122 1027 l 257
EndSplineSet
EndChar

StartChar: nine
Encoding: 57 57 240
GlifName: nine
Width: 2048
VWidth: 0
Flags: W
LayerCount: 2
Fore
SplineSet
1945 759 m 257
 1945 59 l 257
 79 59 l 257
 79 0 l 257
 2001 0 l 257
 2001 1553 l 257
 57 1553 l 257
 57 1541 l 257
 57 759 l 257
 1945 759 l 257
1942 818 m 257
 117 818 l 257
 117 1495 l 257
 1942 1495 l 257
 1942 818 l 257
EndSplineSet
EndChar

StartChar: numbersign
Encoding: 35 35 242
GlifName: numbersign
Width: 2048
VWidth: 0
Flags: W
LayerCount: 2
Fore
SplineSet
741 1184 m 257
 741 99 l 257
 800 99 l 257
 800 1184 l 257
 741 1184 l 257
1236 1192 m 257
 1236 95 l 257
 1307 95 l 257
 1307 1192 l 257
 1236 1192 l 257
617 995 m 257
 617 937 l 257
 1418 937 l 257
 1418 995 l 257
 617 995 l 257
621 493 m 257
 621 417 l 257
 1431 417 l 257
 1431 493 l 257
 621 493 l 257
EndSplineSet
EndChar

StartChar: o
Encoding: 111 111 243
GlifName: o
Width: 2048
VWidth: 0
Flags: W
LayerCount: 2
Fore
SplineSet
104 1023 m 257
 104 0 l 257
 160 0 l 257
 160 1023 l 257
 104 1023 l 257
1884 1023 m 257
 1884 0 l 257
 1946 0 l 257
 1946 1023 l 257
 1884 1023 l 257
152 1023 m 257
 152 967 l 257
 1889 967 l 257
 1889 1023 l 257
 152 1023 l 257
150 62 m 257
 150 0 l 257
 1892 0 l 257
 1892 62 l 257
 150 62 l 257
EndSplineSet
EndChar

StartChar: oe
Encoding: 339 339 248
GlifName: oe
Width: 2048
VWidth: 0
Flags: W
LayerCount: 2
Fore
SplineSet
1099 506 m 257
 1099 446 l 257
 1911 446 l 257
 1911 506 l 257
 1099 506 l 257
1886 1023 m 257
 1886 445 l 257
 1945 445 l 257
 1945 1023 l 257
 1886 1023 l 257
93 1023 m 257
 93 0 l 257
 152 0 l 257
 152 1023 l 257
 93 1023 l 257
1060 1023 m 257
 1060 0 l 257
 1121 0 l 257
 1121 1023 l 257
 1060 1023 l 257
148 1023 m 257
 148 964 l 257
 1946 964 l 257
 1946 1023 l 257
 148 1023 l 257
139 62 m 257
 139 0 l 257
 1955 0 l 257
 1955 62 l 257
 139 62 l 257
EndSplineSet
EndChar

StartChar: ogonek
Encoding: 731 731 249
GlifName: ogonek
Width: 2048
VWidth: 0
Flags: W
LayerCount: 2
Fore
SplineSet
753 -300 m 257
 753 -360 l 257
 1294 -360 l 257
 1294 -300 l 257
 753 -300 l 257
753 51 m 257
 753 -360 l 257
 813 -360 l 257
 813 51 l 257
 753 51 l 257
753 51 m 257
 753 -8 l 257
 1295 -8 l 257
 1295 51 l 257
 753 51 l 257
EndSplineSet
EndChar

StartChar: one
Encoding: 49 49 253
GlifName: one
Width: 2048
VWidth: 0
Flags: W
LayerCount: 2
Fore
SplineSet
1054 0 m 257
 1114 0 l 257
 1114 1550 l 257
 1054 1550 l 257
 1054 0 l 257
1054 1550 m 257
 934 1426 l 257
 986 1398 l 257
 1114 1550 l 257
 1054 1550 l 257
EndSplineSet
EndChar

StartChar: onehalf
Encoding: 189 189 254
GlifName: onehalf
Width: 2048
VWidth: 0
Flags: W
LayerCount: 2
Fore
SplineSet
1393 1480 m 257
 97 10 l 257
 200 10 l 257
 1496 1480 l 257
 1393 1480 l 257
297 1017 m 257
 361 1017 l 257
 361 1550 l 257
 297 1550 l 257
 297 1017 l 257
297 1550 m 257
 170 1508 l 257
 224 1498 l 257
 361 1550 l 257
 297 1550 l 257
1314 623 m 257
 1604 623 l 257
 1604 381 l 257
 1317 381 l 257
 1317 0 l 257
 1622 0 l 257
 1622 25 l 257
 1340 25 l 257
 1340 356 l 257
 1627 356 l 257
 1627 648 l 257
 1314 648 l 257
 1314 623 l 257
EndSplineSet
EndChar

StartChar: onequarter
Encoding: 188 188 255
GlifName: onequarter
Width: 2048
VWidth: 0
Flags: W
LayerCount: 2
Fore
SplineSet
1562 1480 m 257
 79 10 l 257
 182 10 l 257
 1665 1480 l 257
 1562 1480 l 257
386 1045 m 257
 420 1045 l 257
 420 1550 l 257
 386 1550 l 257
 386 1045 l 257
386 1550 m 257
 276 1456 l 257
 283 1442 l 257
 419 1550 l 257
 386 1550 l 257
1464 379 m 257
 1803 379 l 257
 1803 7 l 257
 1828 7 l 257
 1828 768 l 257
 1802 768 l 257
 1802 409 l 257
 1490 409 l 257
 1490 770 l 257
 1464 770 l 257
 1464 379 l 257
EndSplineSet
EndChar

StartChar: ordfeminine
Encoding: 170 170 256
GlifName: ordfeminine
Width: 2048
VWidth: 0
Flags: W
LayerCount: 2
Fore
SplineSet
693 1319 m 257
 693 1252 l 257
 1342 1252 l 257
 1342 1319 l 257
 693 1319 l 257
1304 1320 m 257
 1304 296 l 257
 1381 296 l 257
 1381 1320 l 257
 1304 1320 l 257
696 895 m 257
 696 833 l 257
 1320 833 l 257
 1320 895 l 257
 696 895 l 257
697 872 m 257
 697 294 l 257
 768 294 l 257
 768 872 l 257
 697 872 l 257
706 369 m 257
 706 294 l 257
 1370 294 l 257
 1370 369 l 257
 706 369 l 257
590 67 m 257
 590 4 l 257
 1458 4 l 257
 1458 67 l 257
 590 67 l 257
EndSplineSet
EndChar

StartChar: ordmasculine
Encoding: 186 186 257
GlifName: ordmasculine
Width: 2048
VWidth: 0
Flags: W
LayerCount: 2
Fore
SplineSet
620 1023 m 257
 620 0 l 257
 679 0 l 257
 679 1023 l 257
 620 1023 l 257
1377 1023 m 257
 1377 0 l 257
 1438 0 l 257
 1438 1023 l 257
 1377 1023 l 257
681 1027 m 257
 681 967 l 257
 1382 967 l 257
 1382 1027 l 257
 681 1027 l 257
666 62 m 257
 666 0 l 257
 1385 0 l 257
 1385 62 l 257
 666 62 l 257
512 -70 m 257
 512 -136 l 257
 1536 -136 l 257
 1536 -70 l 257
 512 -70 l 257
EndSplineSet
EndChar

StartChar: oslash
Encoding: 248 248 258
GlifName: oslash
Width: 2048
VWidth: 0
Flags: W
LayerCount: 2
Fore
SplineSet
1928 1125 m 257
 78 -36 l 257
 118 -70 l 257
 1970 1073 l 257
 1928 1125 l 257
112 1023 m 257
 112 0 l 257
 172 0 l 257
 172 1023 l 257
 112 1023 l 257
1868 1023 m 257
 1868 0 l 257
 1928 0 l 257
 1928 1023 l 257
 1868 1023 l 257
154 1023 m 257
 154 963 l 257
 1900 963 l 257
 1900 1023 l 257
 154 1023 l 257
156 63 m 257
 156 0 l 257
 1904 0 l 257
 1904 63 l 257
 156 63 l 257
EndSplineSet
EndChar

StartChar: p
Encoding: 112 112 260
GlifName: p
Width: 2048
VWidth: 0
Flags: W
LayerCount: 2
Fore
SplineSet
190 1181 m 257
 190 -406 l 257
 250 -406 l 257
 250 1181 l 257
 190 1181 l 257
234 1023 m 257
 234 964 l 257
 1844 964 l 257
 1844 1023 l 257
 234 1023 l 257
236 61 m 257
 236 0 l 257
 1856 0 l 257
 1856 61 l 257
 236 61 l 257
1796 1023 m 257
 1796 0 l 257
 1854 0 l 257
 1854 1023 l 257
 1796 1023 l 257
EndSplineSet
EndChar

StartChar: paragraph
Encoding: 182 182 261
GlifName: paragraph
Width: 2048
VWidth: 0
Flags: W
LayerCount: 2
Fore
SplineSet
602 1044 m 257
 602 985 l 257
 1166 985 l 257
 1166 1044 l 257
 602 1044 l 257
602 1550 m 257
 602 1000 l 257
 664 1000 l 257
 664 1550 l 257
 602 1550 l 257
602 1550 m 257
 602 1493 l 257
 1422 1493 l 257
 1422 1550 l 257
 602 1550 l 257
1152 1550 m 257
 1152 0 l 257
 1216 0 l 257
 1216 1550 l 257
 1152 1550 l 257
1384 1550 m 257
 1384 0 l 257
 1446 0 l 257
 1446 1550 l 257
 1384 1550 l 257
EndSplineSet
EndChar

StartChar: parenleft
Encoding: 40 40 262
GlifName: parenleft
Width: 2048
VWidth: 0
Flags: W
LayerCount: 2
Fore
SplineSet
828 1026 m 257
 828 179 l 257
 956 179 l 257
 956 1026 l 257
 828 1026 l 257
1192 1636 m 257
 828 1026 l 257
 956 1026 l 257
 1220 1633 l 257
 1192 1636 l 257
828 179 m 257
 1166 -309 l 257
 1194 -309 l 257
 956 179 l 257
 828 179 l 257
EndSplineSet
EndChar

StartChar: parenright
Encoding: 41 41 263
GlifName: parenright
Width: 2048
VWidth: 0
Flags: W
LayerCount: 2
Fore
SplineSet
1062 1026 m 257
 1062 179 l 257
 1190 179 l 257
 1190 1026 l 257
 1062 1026 l 257
858 1635 m 257
 1062 1026 l 257
 1190 1026 l 257
 896 1635 l 257
 858 1635 l 257
1062 179 m 257
 858 -309 l 257
 886 -309 l 257
 1190 179 l 257
 1062 179 l 257
EndSplineSet
EndChar

StartChar: percent
Encoding: 37 37 264
GlifName: percent
Width: 2048
VWidth: 0
Flags: W
LayerCount: 2
Fore
SplineSet
634 444 m 257
 663 417 l 257
 1410 775 l 257
 1391 801 l 257
 634 444 l 257
740 1148 m 257
 740 803 l 257
 771 803 l 257
 771 1148 l 257
 740 1148 l 257
740 1152 m 257
 740 1126 l 257
 1087 1126 l 257
 1087 1152 l 257
 740 1152 l 257
740 826 m 257
 740 789 l 257
 1084 789 l 257
 1084 826 l 257
 740 826 l 257
1051 1152 m 257
 1051 791 l 257
 1087 791 l 257
 1087 1152 l 257
 1051 1152 l 257
1067 436 m 257
 1067 94 l 257
 1110 94 l 257
 1110 436 l 257
 1067 436 l 257
1067 440 m 257
 1067 397 l 257
 1414 397 l 257
 1414 440 l 257
 1067 440 l 257
1067 109 m 257
 1067 77 l 257
 1411 77 l 257
 1411 109 l 257
 1067 109 l 257
1380 440 m 257
 1380 79 l 257
 1414 79 l 257
 1414 440 l 257
 1380 440 l 257
EndSplineSet
EndChar

StartChar: period
Encoding: 46 46 265
GlifName: period
Width: 2048
VWidth: 0
Flags: W
LayerCount: 2
Fore
SplineSet
952 113 m 257
 952 0 l 257
 1096 0 l 257
 1096 113 l 257
 952 113 l 257
EndSplineSet
EndChar

StartChar: periodcentered
Encoding: 183 183 266
GlifName: periodcentered
Width: 2048
VWidth: 0
Flags: W
LayerCount: 2
Fore
SplineSet
976 1056 m 257
 976 955 l 257
 1072 955 l 257
 1072 1056 l 257
 976 1056 l 257
EndSplineSet
EndChar

StartChar: perthousand
Encoding: 8240 8240 267
GlifName: perthousand
Width: 2048
VWidth: 0
Flags: W
LayerCount: 2
Fore
SplineSet
1174 436 m 257
 1174 110 l 257
 1252 110 l 257
 1252 436 l 257
 1174 436 l 257
1174 440 m 257
 1174 345 l 257
 1520 345 l 257
 1520 440 l 257
 1174 440 l 257
1174 159 m 257
 1174 77 l 257
 1518 77 l 257
 1518 159 l 257
 1174 159 l 257
1428 440 m 257
 1428 79 l 257
 1520 79 l 257
 1520 440 l 257
 1428 440 l 257
528 522 m 257
 570 377 l 257
 1394 716 l 257
 1350 860 l 257
 528 522 l 257
668 1148 m 257
 668 822 l 257
 746 822 l 257
 746 1148 l 257
 668 1148 l 257
668 1152 m 257
 668 1057 l 257
 1014 1057 l 257
 1014 1152 l 257
 668 1152 l 257
668 871 m 257
 668 789 l 257
 1012 789 l 257
 1012 871 l 257
 668 871 l 257
922 1152 m 257
 922 791 l 257
 1014 791 l 257
 1014 1152 l 257
 922 1152 l 257
772 436 m 257
 772 110 l 257
 850 110 l 257
 850 436 l 257
 772 436 l 257
772 440 m 257
 772 345 l 257
 1120 345 l 257
 1120 440 l 257
 772 440 l 257
772 159 m 257
 772 77 l 257
 1116 77 l 257
 1116 159 l 257
 772 159 l 257
1028 440 m 257
 1028 79 l 257
 1120 79 l 257
 1120 440 l 257
 1028 440 l 257
EndSplineSet
EndChar

StartChar: plus
Encoding: 43 43 268
GlifName: plus
Width: 2048
VWidth: 0
Flags: W
LayerCount: 2
Fore
SplineSet
946 1221 m 257
 946 165 l 257
 1056 165 l 257
 1056 1221 l 257
 946 1221 l 257
573 796 m 257
 573 693 l 257
 1475 693 l 257
 1475 796 l 257
 573 796 l 257
EndSplineSet
EndChar

StartChar: plusminus
Encoding: 177 177 269
GlifName: plusminus
Width: 2048
VWidth: 0
Flags: W
LayerCount: 2
Fore
SplineSet
611 110 m 257
 611 48 l 257
 1437 48 l 257
 1437 110 l 257
 611 110 l 257
978 1221 m 257
 978 228 l 257
 1039 228 l 257
 1039 1221 l 257
 978 1221 l 257
573 744 m 257
 573 686 l 257
 1475 686 l 257
 1475 744 l 257
 573 744 l 257
EndSplineSet
EndChar

StartChar: q
Encoding: 113 113 270
GlifName: q
Width: 2048
VWidth: 0
Flags: W
LayerCount: 2
Fore
SplineSet
1550 1188 m 257
 1550 -410 l 257
 1610 -410 l 257
 1610 1188 l 257
 1550 1188 l 257
146 1023 m 257
 146 961 l 257
 1594 961 l 257
 1594 1023 l 257
 146 1023 l 257
152 57 m 257
 152 0 l 257
 1568 0 l 257
 1568 57 l 257
 152 57 l 257
138 1023 m 257
 138 0 l 257
 196 0 l 257
 196 1023 l 257
 138 1023 l 257
1554 -344 m 257
 1554 -410 l 257
 1910 -410 l 257
 1910 -344 l 257
 1554 -344 l 257
EndSplineSet
EndChar

StartChar: question
Encoding: 63 63 271
GlifName: question
Width: 2048
VWidth: 0
Flags: W
LayerCount: 2
Fore
SplineSet
880 134 m 257
 880 0 l 257
 992 0 l 257
 992 134 l 257
 880 134 l 257
704 1519 m 257
 704 1426 l 257
 1340 1426 l 257
 1340 1519 l 257
 704 1519 l 257
1258 1514 m 257
 1258 966 l 257
 1344 966 l 257
 1344 1514 l 257
 1258 1514 l 257
880 1015 m 257
 880 948 l 257
 1344 948 l 257
 1344 1015 l 257
 880 1015 l 257
880 1011 m 257
 880 392 l 257
 976 392 l 257
 976 1011 l 257
 880 1011 l 257
EndSplineSet
EndChar

StartChar: questiondown
Encoding: 191 191 272
GlifName: questiondown
Width: 2048
VWidth: 0
Flags: W
LayerCount: 2
Fore
SplineSet
1168 1273 m 257
 1168 1519 l 257
 1110 1519 l 257
 1110 1272 l 257
 1168 1273 l 257
1344 0 m 257
 1344 61 l 257
 708 61 l 257
 708 0 l 257
 1344 0 l 257
764 5 m 257
 764 553 l 257
 704 553 l 257
 704 5 l 257
 764 5 l 257
1168 504 m 257
 1168 566 l 257
 704 566 l 257
 704 504 l 257
 1168 504 l 257
1168 508 m 257
 1168 1127 l 257
 1110 1127 l 257
 1110 508 l 257
 1168 508 l 257
EndSplineSet
EndChar

StartChar: quotedbl
Encoding: 34 34 273
GlifName: quotedbl
Width: 2048
VWidth: 0
Flags: W
LayerCount: 2
Fore
SplineSet
792 1326 m 257
 858 1326 l 257
 858 1574 l 257
 792 1574 l 257
 792 1326 l 257
1196 1326 m 257
 1256 1326 l 257
 1256 1574 l 257
 1196 1574 l 257
 1196 1326 l 257
EndSplineSet
EndChar

StartChar: quotedblbase
Encoding: 8222 8222 274
GlifName: quotedblbase
Width: 2048
VWidth: 0
Flags: W
LayerCount: 2
Fore
SplineSet
892 126 m 257
 892 8 l 257
 1001 8 l 257
 1001 126 l 257
 892 126 l 257
892 8 m 257
 822 -118 l 257
 876 -129 l 257
 1001 8 l 257
 892 8 l 257
1117 126 m 257
 1117 8 l 257
 1226 8 l 257
 1226 126 l 257
 1117 126 l 257
1117 8 m 257
 1047 -118 l 257
 1101 -129 l 257
 1226 8 l 257
 1117 8 l 257
EndSplineSet
EndChar

StartChar: quotedblleft
Encoding: 8220 8220 275
GlifName: quotedblleft
Width: 2048
VWidth: 0
Flags: W
LayerCount: 2
Fore
SplineSet
997 1953 m 257
 997 2067 l 257
 873 2067 l 257
 873 1953 l 257
 997 1953 l 257
948 2004 m 257
 1007 2144 l 257
 935 2174 l 257
 874 2069 l 257
 948 2004 l 257
1165 1953 m 257
 1165 2067 l 257
 1041 2067 l 257
 1041 1953 l 257
 1165 1953 l 257
1116 2004 m 257
 1175 2144 l 257
 1103 2174 l 257
 1042 2069 l 257
 1116 2004 l 257
EndSplineSet
EndChar

StartChar: quotedblright
Encoding: 8221 8221 276
GlifName: quotedblright
Width: 2048
VWidth: 0
Flags: W
LayerCount: 2
Fore
SplineSet
1046 2174 m 257
 1046 2060 l 257
 1170 2060 l 257
 1170 2174 l 257
 1046 2174 l 257
1096 2123 m 257
 1037 1983 l 257
 1108 1953 l 257
 1169 2058 l 257
 1096 2123 l 257
887 2174 m 257
 887 2060 l 257
 1011 2060 l 257
 1011 2174 l 257
 887 2174 l 257
937 2123 m 257
 878 1983 l 257
 949 1953 l 257
 1010 2058 l 257
 937 2123 l 257
EndSplineSet
EndChar

StartChar: quoteleft
Encoding: 8216 8216 277
GlifName: quoteleft
Width: 2048
VWidth: 0
Flags: W
LayerCount: 2
Fore
SplineSet
1074 1913 m 257
 1074 2078 l 257
 943 2078 l 257
 943 1917 l 257
 1074 1913 l 257
1039 2066 m 257
 1105 2275 l 257
 1035 2285 l 257
 949 2054 l 257
 1039 2066 l 257
EndSplineSet
EndChar

StartChar: quoteright
Encoding: 8217 8217 278
GlifName: quoteright
Width: 2048
VWidth: 0
Flags: W
LayerCount: 2
Fore
SplineSet
966 2168 m 257
 966 2056 l 257
 1082 2056 l 257
 1082 2168 l 257
 966 2168 l 257
1025 2140 m 257
 980 1927 l 257
 1034 1882 l 257
 1082 2056 l 257
 1025 2140 l 257
EndSplineSet
EndChar

StartChar: quotesinglbase
Encoding: 8218 8218 279
GlifName: quotesinglbase
Width: 2048
VWidth: 0
Flags: W
LayerCount: 2
Fore
SplineSet
1004 126 m 257
 1004 8 l 257
 1114 8 l 257
 1114 126 l 257
 1004 126 l 257
1004 8 m 257
 934 -118 l 257
 988 -129 l 257
 1114 8 l 257
 1004 8 l 257
EndSplineSet
EndChar

StartChar: quotesingle
Encoding: 39 39 280
GlifName: quotesingle
Width: 2048
VWidth: 0
Flags: W
LayerCount: 2
Fore
SplineSet
992 1496 m 257
 992 1317 l 257
 1056 1317 l 257
 1056 1496 l 257
 992 1496 l 257
EndSplineSet
EndChar

StartChar: r
Encoding: 114 114 281
GlifName: r
Width: 2048
VWidth: 0
Flags: W
LayerCount: 2
Fore
SplineSet
146 1023 m 257
 146 961 l 257
 1902 961 l 257
 1902 1023 l 257
 146 1023 l 257
872 989 m 257
 872 0 l 257
 932 0 l 257
 932 989 l 257
 872 989 l 257
1842 976 m 257
 1842 650 l 257
 1902 650 l 257
 1902 976 l 257
 1842 976 l 257
EndSplineSet
EndChar

StartChar: registered
Encoding: 174 174 284
GlifName: registered
Width: 2048
VWidth: 0
Flags: W
LayerCount: 2
Fore
SplineSet
909 1032 m 257
 909 501 l 257
 946 501 l 257
 946 1032 l 257
 909 1032 l 257
934 1032 m 257
 934 994 l 257
 1163 994 l 257
 1163 1032 l 257
 934 1032 l 257
1134 1032 m 257
 1134 802 l 257
 1172 802 l 257
 1172 1032 l 257
 1134 1032 l 257
930 848 m 257
 930 801 l 257
 1168 801 l 257
 1168 848 l 257
 930 848 l 257
977 809 m 257
 1176 500 l 257
 1219 500 l 257
 1012 809 l 257
 977 809 l 257
553 1540 m 257
 553 0 l 257
 615 0 l 257
 615 1540 l 257
 553 1540 l 257
1433 1537 m 257
 1433 0 l 257
 1495 0 l 257
 1495 1537 l 257
 1433 1537 l 257
592 1538 m 257
 592 1478 l 257
 1464 1478 l 257
 1464 1538 l 257
 592 1538 l 257
588 61 m 257
 588 0 l 257
 1480 0 l 257
 1480 61 l 257
 588 61 l 257
EndSplineSet
EndChar

StartChar: ring
Encoding: 730 730 285
GlifName: ring
Width: 2048
VWidth: 0
Flags: W
LayerCount: 2
Fore
SplineSet
878 1302 m 257
 1168 1302 l 257
 1168 1049 l 257
 878 1049 l 257
 878 1302 l 257
844 1331 m 257
 844 1023 l 257
 1204 1023 l 257
 1204 1331 l 257
 844 1331 l 257
EndSplineSet
EndChar

StartChar: s
Encoding: 115 115 286
GlifName: s
Width: 2048
VWidth: 0
Flags: W
LayerCount: 2
Fore
SplineSet
207 1023 m 257
 207 964 l 257
 1840 964 l 257
 1840 1023 l 257
 207 1023 l 257
207 1023 m 257
 207 736 l 257
 268 736 l 257
 268 1023 l 257
 207 1023 l 257
208 59 m 257
 208 0 l 257
 1837 0 l 257
 1837 59 l 257
 208 59 l 257
1775 299 m 257
 1775 12 l 257
 1838 12 l 257
 1838 299 l 257
 1775 299 l 257
207 736 m 257
 1775 299 l 257
 1838 299 l 257
 268 736 l 257
 207 736 l 257
EndSplineSet
EndChar

StartChar: section
Encoding: 167 167 291
GlifName: section
Width: 2048
VWidth: 0
Flags: W
LayerCount: 2
Fore
SplineSet
638 1237 m 257
 638 1178 l 257
 1236 1178 l 257
 1236 1237 l 257
 638 1237 l 257
638 1237 m 257
 638 605 l 257
 701 605 l 257
 701 1237 l 257
 638 1237 l 257
675 -200 m 257
 675 -260 l 257
 1383 -260 l 257
 1383 -200 l 257
 675 -200 l 257
1350 -259 m 257
 1410 -259 l 257
 1410 95 l 257
 1350 95 l 257
 1350 -259 l 257
638 606 m 257
 1349 88 l 257
 1410 88 l 257
 696 606 l 257
 638 606 l 257
638 1626 m 257
 638 1566 l 257
 1236 1566 l 257
 1236 1626 l 257
 638 1626 l 257
638 1629 m 257
 638 1237 l 257
 701 1237 l 257
 701 1629 l 257
 638 1629 l 257
666 88 m 257
 666 39 l 257
 1374 39 l 257
 1374 88 l 257
 666 88 l 257
1349 88 m 257
 1410 88 l 257
 1410 442 l 257
 1349 442 l 257
 1349 88 l 257
638 1237 m 257
 1350 442 l 257
 1410 442 l 257
 701 1237 l 257
 638 1237 l 257
EndSplineSet
EndChar

StartChar: semicolon
Encoding: 59 59 292
GlifName: semicolon
Width: 2048
VWidth: 0
Flags: W
LayerCount: 2
Fore
SplineSet
956 164 m 257
 956 7 l 257
 1092 7 l 257
 1092 164 l 257
 956 164 l 257
1040 135 m 257
 998 -99 l 257
 1048 -148 l 257
 1090 26 l 257
 1040 135 l 257
956 503 m 257
 956 346 l 257
 1092 346 l 257
 1092 503 l 257
 956 503 l 257
EndSplineSet
EndChar

StartChar: seven
Encoding: 55 55 293
GlifName: seven
Width: 2048
VWidth: 0
Flags: W
LayerCount: 2
Fore
SplineSet
54 1495 m 257
 1929 1495 l 257
 1929 0 l 257
 1991 0 l 257
 1991 1557 l 257
 54 1557 l 257
 54 1495 l 257
EndSplineSet
EndChar

StartChar: six
Encoding: 54 54 294
GlifName: six
Width: 2048
VWidth: 0
Flags: W
LayerCount: 2
Fore
SplineSet
41 1550 m 257
 41 201 l 257
 41 4 l 257
 2004 4 l 257
 2004 819 l 257
 103 819 l 257
 103 1488 l 257
 2009 1488 l 257
 2009 1550 l 257
 41 1550 l 257
1942 759 m 257
 1942 63 l 257
 109 63 l 257
 109 759 l 257
 1942 759 l 257
EndSplineSet
EndChar

StartChar: slash
Encoding: 47 47 295
GlifName: slash
Width: 2048
VWidth: 0
Flags: W
LayerCount: 2
Fore
SplineSet
1266 1480 m 257
 679 10 l 257
 782 10 l 257
 1369 1480 l 257
 1266 1480 l 257
EndSplineSet
EndChar

StartChar: sterling
Encoding: 163 163 297
GlifName: sterling
Width: 2048
VWidth: 0
Flags: W
LayerCount: 2
Fore
SplineSet
947 1543 m 257
 947 1482 l 257
 1136 1482 l 257
 1136 1543 l 257
 947 1543 l 257
609 770 m 257
 609 705 l 257
 1335 705 l 257
 1335 770 l 257
 609 770 l 257
923 1542 m 257
 923 3 l 257
 999 3 l 257
 999 1542 l 257
 923 1542 l 257
713 72 m 257
 713 3 l 257
 1439 3 l 257
 1439 72 l 257
 713 72 l 257
EndSplineSet
EndChar

StartChar: t
Encoding: 116 116 298
GlifName: t
Width: 2048
VWidth: 0
Flags: W
LayerCount: 2
Fore
SplineSet
976 1529 m 257
 976 0 l 257
 1036 0 l 257
 1036 1529 l 257
 976 1529 l 257
988 60 m 257
 988 0 l 257
 1892 0 l 257
 1892 60 l 257
 988 60 l 257
156 1023 m 257
 156 965 l 257
 1854 965 l 257
 1854 1023 l 257
 156 1023 l 257
EndSplineSet
EndChar

StartChar: tcaron
Encoding: 357 357 299
GlifName: tcaron
Width: 2048
VWidth: 0
Flags: W
LayerCount: 2
Fore
SplineSet
976 1529 m 257
 976 0 l 257
 1036 0 l 257
 1036 1529 l 257
 976 1529 l 257
988 60 m 257
 988 0 l 257
 1892 0 l 257
 1892 60 l 257
 988 60 l 257
156 1023 m 257
 156 965 l 257
 1854 965 l 257
 1854 1023 l 257
 156 1023 l 257
1166 1496 m 257
 1166 1317 l 257
 1228 1317 l 257
 1228 1496 l 257
 1166 1496 l 257
EndSplineSet
EndChar

StartChar: thorn
Encoding: 254 254 300
GlifName: thorn
Width: 2048
VWidth: 0
Flags: W
LayerCount: 2
Fore
SplineSet
154 1034 m 257
 154 -406 l 257
 212 -406 l 257
 212 1034 l 257
 154 1034 l 257
206 667 m 257
 206 605 l 257
 1894 605 l 257
 1894 667 l 257
 206 667 l 257
192 -135 m 257
 192 -195 l 257
 1894 -195 l 257
 1894 -135 l 257
 192 -135 l 257
1834 646 m 257
 1834 -170 l 257
 1894 -170 l 257
 1894 646 l 257
 1834 646 l 257
EndSplineSet
EndChar

StartChar: three
Encoding: 51 51 301
GlifName: three
Width: 2048
VWidth: 0
Flags: W
LayerCount: 2
Fore
SplineSet
101 736 m 257
 1927 736 l 257
 1927 52 l 257
 59 52 l 257
 68 -8 l 257
 1987 -8 l 257
 1987 1550 l 257
 89 1550 l 257
 89 1493 l 257
 1925 1493 l 257
 1925 796 l 257
 101 796 l 257
 101 736 l 257
EndSplineSet
EndChar

StartChar: threequarters
Encoding: 190 190 302
GlifName: threequarters
Width: 2048
VWidth: 0
Flags: W
LayerCount: 2
Fore
SplineSet
1374 1483 m 257
 210 6 l 257
 260 -67 l 257
 1423 1410 l 257
 1374 1483 l 257
96 1272 m 257
 663 1272 l 257
 663 1084 l 257
 59 1084 l 257
 67 1015 l 257
 731 1015 l 257
 731 1553 l 257
 86 1553 l 257
 86 1484 l 257
 661 1484 l 257
 661 1340 l 257
 96 1340 l 257
 96 1272 l 257
1251 340 m 257
 1879 340 l 257
 1879 7 l 257
 1957 7 l 257
 1957 687 l 257
 1877 687 l 257
 1877 428 l 257
 1338 428 l 257
 1338 689 l 257
 1251 689 l 257
 1251 340 l 257
EndSplineSet
EndChar

StartChar: tilde
Encoding: 732 732 303
GlifName: tilde
Width: 2048
VWidth: 0
Flags: W
LayerCount: 2
Fore
SplineSet
878 279 m 257
 878 229 l 257
 1228 158 l 257
 1228 208 l 257
 878 279 l 257
638 223 m 257
 652 165 l 257
 878 229 l 257
 878 279 l 257
 638 223 l 257
1228 208 m 257
 1228 158 l 257
 1410 309 l 257
 1396 356 l 257
 1228 208 l 257
EndSplineSet
EndChar

StartChar: tildecomb
Encoding: 771 771 304
GlifName: tildecomb
Width: 0
VWidth: 0
LayerCount: 2
Fore
SplineSet
878 1966 m 257
 878 1916 l 257
 1228 1845 l 257
 1228 1895 l 257
 878 1966 l 257
638 1910 m 257
 652 1852 l 257
 878 1916 l 257
 878 1966 l 257
 638 1910 l 257
1228 1895 m 257
 1228 1845 l 257
 1410 1996 l 257
 1396 2043 l 257
 1228 1895 l 257
EndSplineSet
EndChar

StartChar: two
Encoding: 50 50 306
GlifName: two
Width: 2048
VWidth: 0
Flags: W
LayerCount: 2
Fore
SplineSet
109 1484 m 257
 1882 1484 l 257
 1882 908 l 257
 116 908 l 257
 116 0 l 257
 1928 0 l 257
 1928 59 l 257
 176 59 l 257
 176 849 l 257
 1942 849 l 257
 1942 1544 l 257
 109 1544 l 257
 109 1484 l 257
EndSplineSet
EndChar

StartChar: u
Encoding: 117 117 307
GlifName: u
Width: 2048
VWidth: 0
Flags: W
LayerCount: 2
Fore
SplineSet
138 1034 m 257
 138 0 l 257
 198 0 l 257
 198 1034 l 257
 138 1034 l 257
1512 1033 m 257
 1512 4 l 257
 1570 4 l 257
 1570 1033 l 257
 1512 1033 l 257
184 61 m 257
 184 0 l 257
 1910 0 l 257
 1910 61 l 257
 184 61 l 257
EndSplineSet
EndChar

StartChar: underscore
Encoding: 95 95 315
GlifName: underscore
Width: 2048
VWidth: 0
Flags: W
LayerCount: 2
Fore
SplineSet
0 0 m 257
 0 -40 l 257
 2048 -40 l 257
 2048 0 l 257
 0 0 l 257
EndSplineSet
EndChar

StartChar: uni00B2
Encoding: 178 178 317
GlifName: uni00B_2
Width: 2048
VWidth: 0
Flags: W
LayerCount: 2
Fore
SplineSet
672 1519 m 257
 1510 1519 l 257
 1510 1277 l 257
 675 1277 l 257
 675 895 l 257
 1531 895 l 257
 1531 920 l 257
 703 920 l 257
 703 1252 l 257
 1538 1252 l 257
 1538 1544 l 257
 672 1544 l 257
 672 1519 l 257
EndSplineSet
EndChar

StartChar: uni00B3
Encoding: 179 179 318
GlifName: uni00B_3
Width: 2048
VWidth: 0
Flags: W
LayerCount: 2
Fore
SplineSet
101 736 m 257
 1927 736 l 257
 1927 52 l 257
 59 52 l 257
 68 -8 l 257
 1987 -8 l 257
 1987 1550 l 257
 89 1550 l 257
 89 1493 l 257
 1925 1493 l 257
 1925 796 l 257
 101 796 l 257
 101 736 l 257
EndSplineSet
EndChar

StartChar: uni00B9
Encoding: 185 185 319
GlifName: uni00B_9
Width: 2048
VWidth: 0
Flags: W
LayerCount: 2
Fore
SplineSet
1038.75 887.5 m 257
 1068.75 887.5 l 257
 1068.75 1662.5 l 257
 1038.75 1662.5 l 257
 1038.75 887.5 l 257
1038.75 1662.5 m 257
 979.25 1600.5 l 257
 1004.75 1586.5 l 257
 1068.75 1662.5 l 257
 1038.75 1662.5 l 257
EndSplineSet
EndChar

StartChar: uni0123
Encoding: 291 291 321
GlifName: uni0123
Width: 2048
VWidth: 0
Flags: W
LayerCount: 2
Fore
SplineSet
226 1023 m 257
 226 0 l 257
 285 0 l 257
 285 1023 l 257
 226 1023 l 257
266 1023 m 257
 266 964 l 257
 1806 964 l 257
 1806 1023 l 257
 266 1023 l 257
1767 1023 m 257
 1767 -411 l 257
 1828 -411 l 257
 1828 1023 l 257
 1767 1023 l 257
289 61 m 257
 289 0 l 257
 1770 0 l 257
 1770 61 l 257
 289 61 l 257
220 -354 m 257
 220 -413 l 257
 1779 -413 l 257
 1779 -354 l 257
 220 -354 l 257
1055 1399 m 257
 1055 1198 l 257
 1116 1198 l 257
 1116 1399 l 257
 1055 1399 l 257
EndSplineSet
EndChar

StartChar: uni0192
Encoding: 402 402 332
GlifName: uni0192
Width: 2048
VWidth: 0
Flags: W
LayerCount: 2
Fore
SplineSet
974 1023 m 257
 974 -406 l 257
 1036 -406 l 257
 1036 1023 l 257
 974 1023 l 257
1002 1023 m 257
 1002 966 l 257
 1794 966 l 257
 1794 1023 l 257
 1002 1023 l 257
316 559 m 257
 316 500 l 257
 1534 500 l 257
 1534 559 l 257
 316 559 l 257
254 -345 m 257
 254 -406 l 257
 1028 -406 l 257
 1028 -345 l 257
 254 -345 l 257
EndSplineSet
EndChar

StartChar: uni0237
Encoding: 567 567 337
GlifName: uni0237
Width: 2048
VWidth: 0
Flags: W
LayerCount: 2
Fore
SplineSet
1792 1023 m 257
 1792 -411 l 257
 1850 -411 l 257
 1850 1023 l 257
 1792 1023 l 257
198 -348 m 257
 198 -409 l 257
 1812 -409 l 257
 1812 -348 l 257
 198 -348 l 257
198 -6 m 257
 198 -378 l 257
 258 -378 l 257
 258 -6 l 257
 198 -6 l 257
EndSplineSet
EndChar

StartChar: uni02C9
Encoding: 713 713 341
GlifName: uni02C_9
Width: 2048
VWidth: 0
Flags: W
LayerCount: 2
Fore
SplineSet
744 1630 m 257
 744 1550 l 257
 1304 1550 l 257
 1304 1630 l 257
 744 1630 l 257
EndSplineSet
EndChar

StartChar: uni02CA
Encoding: 714 714 342
GlifName: uni02C_A_
Width: 2048
VWidth: 0
Flags: W
LayerCount: 2
Fore
SplineSet
1037 949 m 257
 958 764 l 257
 1011 730 l 257
 1090 915 l 257
 1037 949 l 257
EndSplineSet
EndChar

StartChar: uni02CB
Encoding: 715 715 343
GlifName: uni02C_B_
Width: 2048
VWidth: 0
Flags: W
LayerCount: 2
Fore
SplineSet
932 877 m 257
 1056 673 l 257
 1116 727 l 257
 992 932 l 257
 932 877 l 257
EndSplineSet
EndChar

StartChar: uni0304
Encoding: 772 772 345
GlifName: uni0304
Width: 0
VWidth: 0
LayerCount: 2
Fore
SplineSet
744 1630 m 257
 744 1550 l 257
 1304 1550 l 257
 1304 1630 l 257
 744 1630 l 257
EndSplineSet
EndChar

StartChar: uni0305
Encoding: 773 773 346
GlifName: uni0305
Width: 0
VWidth: 0
LayerCount: 2
Fore
SplineSet
-265 1630 m 257
 -265 1614 l 257
 -48 1614 l 257
 -48 1630 l 257
 -265 1630 l 257
EndSplineSet
EndChar

StartChar: uni0306
Encoding: 774 774 347
GlifName: uni0306
Width: 0
VWidth: 0
LayerCount: 2
Fore
SplineSet
1189 1550 m 257
 1189 1480 l 257
 1354 1550 l 257
 1354 1645 l 257
 1189 1550 l 257
865 1550 m 257
 865 1480 l 257
 1189 1480 l 257
 1189 1550 l 257
 865 1550 l 257
694 1630 m 257
 694 1550 l 257
 865 1480 l 257
 865 1550 l 257
 694 1630 l 257
EndSplineSet
EndChar

StartChar: uni0307
Encoding: 775 775 348
GlifName: uni0307
Width: 0
VWidth: 0
LayerCount: 2
Fore
SplineSet
968 1738 m 257
 968 1637 l 257
 1080 1637 l 257
 1080 1738 l 257
 968 1738 l 257
EndSplineSet
EndChar

StartChar: uni0308
Encoding: 776 776 349
GlifName: uni0308
Width: 0
VWidth: 0
LayerCount: 2
Fore
SplineSet
847 1738 m 257
 847 1637 l 257
 959 1637 l 257
 959 1738 l 257
 847 1738 l 257
1089 1738 m 257
 1089 1637 l 257
 1201 1637 l 257
 1201 1738 l 257
 1089 1738 l 257
EndSplineSet
EndChar

StartChar: uni030A
Encoding: 778 778 350
GlifName: uni030A_
Width: 0
VWidth: 0
LayerCount: 2
Fore
SplineSet
949 1756 m 257
 1097 1756 l 257
 1097 1626 l 257
 949 1626 l 257
 949 1756 l 257
844 1847 m 257
 844 1538 l 257
 1204 1538 l 257
 1204 1847 l 257
 844 1847 l 257
EndSplineSet
EndChar

StartChar: uni030C
Encoding: 780 780 352
GlifName: uni030C_
Width: 0
VWidth: 0
LayerCount: 2
Fore
SplineSet
1023 1284 m 257
 882 1611 l 257
 855 1594 l 257
 987 1285 l 257
 1023 1284 l 257
990 1283 m 257
 1027 1283 l 257
 1193 1598 l 257
 1152 1616 l 257
 990 1283 l 257
EndSplineSet
EndChar

StartChar: uni0326
Encoding: 806 806 353
GlifName: uni0326
Width: 0
VWidth: 0
LayerCount: 2
Fore
SplineSet
990 0 m 257
 990 -132 l 257
 1102 -132 l 257
 1102 0 l 257
 990 0 l 257
990 -132 m 257
 946 -246 l 257
 1010 -273 l 257
 1102 -132 l 257
 990 -132 l 257
EndSplineSet
EndChar

StartChar: uni0327
Encoding: 807 807 354
GlifName: uni0327
Width: 0
VWidth: 0
LayerCount: 2
Fore
SplineSet
798 180 m 257
 798 -60 l 257
 856 -60 l 257
 856 180 l 257
 798 180 l 257
804 -347 m 257
 804 -406 l 257
 1250 -406 l 257
 1250 -347 l 257
 804 -347 l 257
1191 0 m 257
 1191 -372 l 257
 1250 -372 l 257
 1250 0 l 257
 1191 0 l 257
804 0 m 257
 804 -60 l 257
 1250 -60 l 257
 1250 0 l 257
 804 0 l 257
EndSplineSet
EndChar

StartChar: uni0328
Encoding: 808 808 355
GlifName: uni0328
Width: 0
VWidth: 0
LayerCount: 2
Fore
SplineSet
753 -351 m 257
 753 -411 l 257
 1294 -411 l 257
 1294 -351 l 257
 753 -351 l 257
753 0 m 257
 753 -411 l 257
 813 -411 l 257
 813 0 l 257
 753 0 l 257
753 0 m 257
 753 -59 l 257
 1295 -59 l 257
 1295 0 l 257
 753 0 l 257
EndSplineSet
EndChar

StartChar: uni0331
Encoding: 817 817 356
GlifName: uni0331
Width: 2048
VWidth: 0
Flags: W
LayerCount: 2
Fore
SplineSet
744 -204 m 257
 744 -248 l 257
 1304 -248 l 257
 1304 -204 l 257
 744 -204 l 257
EndSplineSet
EndChar

StartChar: uni0900
Encoding: 2304 2304 357
GlifName: uni0900
Width: 2048
VWidth: 0
Flags: W
LayerCount: 2
Fore
SplineSet
-9 1550 m 257
 -9 1488 l 257
 2043 1488 l 257
 2043 1550 l 257
 -9 1550 l 257
184 2121 m 257
 184 1632 l 257
 243 1632 l 257
 243 2121 l 257
 184 2121 l 257
198 2121 m 257
 198 2061 l 257
 1611 2061 l 257
 1611 2121 l 257
 198 2121 l 257
893 1930 m 257
 893 1807 l 257
 1010 1807 l 257
 1010 1930 l 257
 893 1930 l 257
1588 2121 m 257
 1588 1633 l 257
 1648 1633 l 257
 1648 2121 l 257
 1588 2121 l 257
EndSplineSet
EndChar

StartChar: uni0901
Encoding: 2305 2305 358
GlifName: uni0901
Width: 2048
VWidth: 0
Flags: W
LayerCount: 2
Fore
SplineSet
0 1550 m 257
 0 1488 l 257
 2050 1488 l 257
 2050 1550 l 257
 0 1550 l 257
136 2124 m 257
 136 1639 l 257
 196 1639 l 257
 196 2124 l 257
 136 2124 l 257
171 1699 m 257
 171 1639 l 257
 1605 1639 l 257
 1605 1699 l 257
 171 1699 l 257
873 1962 m 257
 873 1839 l 257
 990 1839 l 257
 990 1962 l 257
 873 1962 l 257
1574 2132 m 257
 1574 1641 l 257
 1634 1641 l 257
 1634 2132 l 257
 1574 2132 l 257
EndSplineSet
EndChar

StartChar: uni0902
Encoding: 2306 2306 359
GlifName: uni0902
Width: 2048
VWidth: 0
Flags: W
LayerCount: 2
Fore
SplineSet
455 1755 m 257
 455 1635 l 257
 575 1635 l 257
 575 1755 l 257
 455 1755 l 257
-3 1547 m 257
 -3 1487 l 257
 2052 1487 l 257
 2052 1547 l 257
 -3 1547 l 257
EndSplineSet
EndChar

StartChar: uni0903
Encoding: 2307 2307 360
GlifName: uni0903
Width: 2048
VWidth: 0
Flags: W
LayerCount: 2
Fore
SplineSet
983 261 m 257
 983 141 l 257
 1103 141 l 257
 1103 261 l 257
 983 261 l 257
945 1162 m 257
 945 1039 l 257
 1062 1039 l 257
 1062 1162 l 257
 945 1162 l 257
EndSplineSet
EndChar

StartChar: uni0904
Encoding: 2308 2308 361
GlifName: uni0904
Width: 2048
VWidth: 0
Flags: W
LayerCount: 2
Fore
SplineSet
771 2062 m 257
 771 1823 l 257
 832 1823 l 257
 832 2062 l 257
 771 2062 l 257
770 1866 m 257
 770 1809 l 257
 1765 1809 l 257
 1765 1866 l 257
 770 1866 l 257
1705 1863 m 257
 1705 1545 l 257
 1765 1545 l 257
 1765 1863 l 257
 1705 1863 l 257
1241 1550 m 257
 1241 1488 l 257
 2050 1488 l 257
 2050 1550 l 257
 1241 1550 l 257
1732 1518 m 257
 1732 0 l 257
 1793 0 l 257
 1793 1518 l 257
 1732 1518 l 257
43 1547 m 257
 43 1487 l 257
 1078 1487 l 257
 1078 1547 l 257
 43 1547 l 257
1045 1550 m 257
 1045 34 l 257
 1104 34 l 257
 1104 1550 l 257
 1045 1550 l 257
127 894 m 257
 127 835 l 257
 1759 835 l 257
 1759 894 l 257
 127 894 l 257
18 65 m 257
 18 0 l 257
 1104 0 l 257
 1104 65 l 257
 18 65 l 257
EndSplineSet
EndChar

StartChar: uni0905
Encoding: 2309 2309 362
GlifName: uni0905
Width: 2048
VWidth: 0
Flags: W
LayerCount: 2
Fore
SplineSet
1218 1550 m 257
 1218 1490 l 257
 2050 1490 l 257
 2050 1550 l 257
 1218 1550 l 257
1702 1518 m 257
 1702 0 l 257
 1764 0 l 257
 1764 1518 l 257
 1702 1518 l 257
38 1547 m 257
 38 1487 l 257
 1060 1487 l 257
 1060 1547 l 257
 38 1547 l 257
1028 1550 m 257
 1028 34 l 257
 1086 34 l 257
 1086 1550 l 257
 1028 1550 l 257
122 894 m 257
 122 835 l 257
 1730 835 l 257
 1730 894 l 257
 122 894 l 257
12 65 m 257
 12 0 l 257
 1086 0 l 257
 1086 65 l 257
 12 65 l 257
EndSplineSet
EndChar

StartChar: uni0906
Encoding: 2310 2310 363
GlifName: uni0906
Width: 2048
VWidth: 0
Flags: W
LayerCount: 2
Fore
SplineSet
1049 1550 m 257
 1049 1489 l 257
 2050 1489 l 257
 2050 1550 l 257
 1049 1550 l 257
1520 1518 m 257
 1520 0 l 257
 1581 0 l 257
 1581 1518 l 257
 1520 1518 l 257
53 1547 m 257
 53 1487 l 257
 876 1487 l 257
 876 1547 l 257
 53 1547 l 257
843 1550 m 257
 843 34 l 257
 902 34 l 257
 902 1550 l 257
 843 1550 l 257
137 894 m 257
 137 835 l 257
 1545 835 l 257
 1545 894 l 257
 137 894 l 257
28 65 m 257
 28 0 l 257
 902 0 l 257
 902 65 l 257
 28 65 l 257
1903 1518 m 257
 1903 0 l 257
 1964 0 l 257
 1964 1518 l 257
 1903 1518 l 257
EndSplineSet
EndChar

StartChar: uni0907
Encoding: 2311 2311 364
GlifName: uni0907
Width: 2048
VWidth: 0
Flags: W
LayerCount: 2
Fore
SplineSet
-6 1550 m 257
 -6 1489 l 257
 2055 1489 l 257
 2055 1550 l 257
 -6 1550 l 257
1390 1529 m 257
 1390 1173 l 257
 1449 1173 l 257
 1449 1529 l 257
 1390 1529 l 257
168 1205 m 257
 168 1144 l 257
 1448 1144 l 257
 1448 1205 l 257
 168 1205 l 257
168 1181 m 257
 168 845 l 257
 226 845 l 257
 226 1181 l 257
 168 1181 l 257
168 881 m 257
 168 819 l 257
 1514 819 l 257
 1514 881 l 257
 168 881 l 257
1480 881 m 257
 1480 285 l 257
 1540 285 l 257
 1540 881 l 257
 1480 881 l 257
146 298 m 257
 146 237 l 257
 1542 237 l 257
 1542 298 l 257
 146 298 l 257
262 298 m 257
 262 -244 l 257
 322 -244 l 257
 322 298 l 257
 262 298 l 257
EndSplineSet
EndChar

StartChar: uni0908
Encoding: 2312 2312 365
GlifName: uni0908
Width: 2048
VWidth: 0
Flags: W
LayerCount: 2
Fore
SplineSet
-6 1550 m 257
 -6 1488 l 257
 2055 1488 l 257
 2055 1550 l 257
 -6 1550 l 257
1392 1553 m 257
 1392 1183 l 257
 1452 1183 l 257
 1452 1553 l 257
 1392 1553 l 257
170 1207 m 257
 170 1146 l 257
 1452 1146 l 257
 1452 1207 l 257
 170 1207 l 257
170 1181 m 257
 170 849 l 257
 230 849 l 257
 230 1181 l 257
 170 1181 l 257
170 881 m 257
 170 821 l 257
 1522 821 l 257
 1522 881 l 257
 170 881 l 257
1484 881 m 257
 1484 285 l 257
 1544 285 l 257
 1544 881 l 257
 1484 881 l 257
148 298 m 257
 148 237 l 257
 1546 237 l 257
 1546 298 l 257
 148 298 l 257
264 298 m 257
 264 -244 l 257
 324 -244 l 257
 324 298 l 257
 264 298 l 257
316 1860 m 257
 1246 1550 l 257
 1350 1550 l 257
 394 1908 l 257
 316 1860 l 257
EndSplineSet
EndChar

StartChar: uni0909
Encoding: 2313 2313 366
GlifName: uni0909
Width: 2048
VWidth: 0
Flags: W
LayerCount: 2
Fore
SplineSet
0 1550 m 257
 0 1488 l 257
 2050 1488 l 257
 2050 1550 l 257
 0 1550 l 257
1135 1530 m 257
 1135 1001 l 257
 1194 1001 l 257
 1194 1530 l 257
 1135 1530 l 257
250 1044 m 257
 250 985 l 257
 1692 985 l 257
 1692 1044 l 257
 250 1044 l 257
1633 994 m 257
 1633 0 l 257
 1693 0 l 257
 1693 994 l 257
 1633 994 l 257
145 61 m 257
 145 0 l 257
 1682 0 l 257
 1682 61 l 257
 145 61 l 257
145 346 m 257
 145 19 l 257
 204 19 l 257
 204 346 l 257
 145 346 l 257
EndSplineSet
EndChar

StartChar: uni090A
Encoding: 2314 2314 367
GlifName: uni090A_
Width: 2048
VWidth: 0
Flags: W
LayerCount: 2
Fore
SplineSet
-4 1550 m 257
 -4 1489 l 257
 2050 1489 l 257
 2050 1550 l 257
 -4 1550 l 257
946 1530 m 257
 946 1001 l 257
 1007 1001 l 257
 1007 1530 l 257
 946 1530 l 257
166 1044 m 257
 166 983 l 257
 1771 983 l 257
 1771 1044 l 257
 166 1044 l 257
1241 994 m 257
 1241 0 l 257
 1302 0 l 257
 1302 994 l 257
 1241 994 l 257
61 61 m 257
 61 0 l 257
 1299 0 l 257
 1299 61 l 257
 61 61 l 257
61 346 m 257
 61 19 l 257
 122 19 l 257
 122 346 l 257
 61 346 l 257
1711 1023 m 257
 1711 197 l 257
 1771 197 l 257
 1771 1023 l 257
 1711 1023 l 257
EndSplineSet
EndChar

StartChar: uni090B
Encoding: 2315 2315 368
GlifName: uni090B_
Width: 2048
VWidth: 0
Flags: W
LayerCount: 2
Fore
SplineSet
0 1550 m 257
 0 1488 l 257
 2047 1488 l 257
 2047 1550 l 257
 0 1550 l 257
1022 1533 m 257
 1022 0 l 257
 1081 0 l 257
 1081 1533 l 257
 1022 1533 l 257
20 1043 m 257
 20 983 l 257
 323 983 l 257
 323 1043 l 257
 20 1043 l 257
1043 471 m 257
 84 471 l 257
 169 417 l 257
 1078 417 l 257
 1043 471 l 257
323 1043 m 257
 323 983 l 257
 1069 902 l 257
 1069 958 l 257
 323 1043 l 257
1069 897 m 257
 1069 837 l 257
 1698 837 l 257
 1698 897 l 257
 1069 897 l 257
1656 897 m 257
 1656 265 l 257
 1717 265 l 257
 1717 897 l 257
 1656 897 l 257
1656 324 m 257
 1656 264 l 257
 2046 264 l 257
 2046 324 l 257
 1656 324 l 257
EndSplineSet
EndChar

StartChar: uni090C
Encoding: 2316 2316 369
GlifName: uni090C_
Width: 2048
VWidth: 0
Flags: W
LayerCount: 2
Fore
SplineSet
0 1550 m 257
 0 1488 l 257
 2048 1488 l 257
 2048 1550 l 257
 0 1550 l 257
1160 1550 m 257
 1160 759 l 257
 1220 759 l 257
 1220 1550 l 257
 1160 1550 l 257
1792 791 m 257
 56 791 l 257
 56 731 l 257
 1792 731 l 257
 1792 791 l 257
58 777 m 257
 58 252 l 257
 118 252 l 257
 118 777 l 257
 58 777 l 257
660 791 m 257
 660 433 l 257
 720 433 l 257
 720 791 l 257
 660 791 l 257
1722 792 m 257
 1722 73 l 257
 1782 73 l 257
 1782 792 l 257
 1722 792 l 257
1766 132 m 257
 1766 71 l 257
 2046 71 l 257
 2046 132 l 257
 1766 132 l 257
EndSplineSet
EndChar

StartChar: uni090D
Encoding: 2317 2317 370
GlifName: uni090D_
Width: 2048
VWidth: 0
Flags: W
LayerCount: 2
Fore
SplineSet
0 1550 m 257
 0 1488 l 257
 2048 1488 l 257
 2048 1550 l 257
 0 1550 l 257
1887 1545 m 257
 1887 779 l 257
 1946 779 l 257
 1946 1545 l 257
 1887 1545 l 257
1067 839 m 257
 1067 779 l 257
 1946 779 l 257
 1946 839 l 257
 1067 839 l 257
147 1542 m 257
 147 338 l 257
 207 338 l 257
 207 1542 l 257
 147 1542 l 257
147 358 m 257
 147 297 l 257
 1174 297 l 257
 1174 358 l 257
 147 358 l 257
1121 358 m 257
 1121 -98 l 257
 1181 -98 l 257
 1181 358 l 257
 1121 358 l 257
392 -38 m 257
 392 -98 l 257
 1179 -98 l 257
 1179 -38 l 257
 392 -38 l 257
162 2124 m 257
 162 1639 l 257
 221 1639 l 257
 221 2124 l 257
 162 2124 l 257
208 1701 m 257
 208 1641 l 257
 1842 1641 l 257
 1842 1701 l 257
 208 1701 l 257
1783 2132 m 257
 1783 1641 l 257
 1842 1641 l 257
 1842 2132 l 257
 1783 2132 l 257
EndSplineSet
EndChar

StartChar: uni090E
Encoding: 2318 2318 371
GlifName: uni090E_
Width: 2048
VWidth: 0
Flags: W
LayerCount: 2
Fore
SplineSet
0 1550 m 257
 0 1488 l 257
 2049 1488 l 257
 2049 1550 l 257
 0 1550 l 257
1882 1545 m 257
 1882 779 l 257
 1940 779 l 257
 1940 1545 l 257
 1882 1545 l 257
1050 839 m 257
 1050 779 l 257
 1940 779 l 257
 1940 839 l 257
 1050 839 l 257
152 1542 m 257
 152 338 l 257
 212 338 l 257
 212 1542 l 257
 152 1542 l 257
152 358 m 257
 152 297 l 257
 1156 297 l 257
 1156 358 l 257
 152 358 l 257
1104 358 m 257
 1104 -98 l 257
 1164 -98 l 257
 1164 358 l 257
 1104 358 l 257
398 -38 m 257
 398 -98 l 257
 1162 -98 l 257
 1162 -38 l 257
 398 -38 l 257
530 2062 m 257
 530 1823 l 257
 592 1823 l 257
 592 2062 l 257
 530 2062 l 257
530 1866 m 257
 530 1809 l 257
 1964 1809 l 257
 1964 1866 l 257
 530 1866 l 257
1908 1840 m 257
 1908 1522 l 257
 1968 1522 l 257
 1968 1840 l 257
 1908 1840 l 257
EndSplineSet
EndChar

StartChar: uni090F
Encoding: 2319 2319 372
GlifName: uni090F_
Width: 2048
VWidth: 0
Flags: W
LayerCount: 2
Fore
SplineSet
-5 1550 m 257
 -5 1488 l 257
 2054 1488 l 257
 2054 1550 l 257
 -5 1550 l 257
1892 1545 m 257
 1892 779 l 257
 1952 779 l 257
 1952 1545 l 257
 1892 1545 l 257
1146 839 m 257
 1146 779 l 257
 1952 779 l 257
 1952 839 l 257
 1146 839 l 257
142 1542 m 257
 142 338 l 257
 202 338 l 257
 202 1542 l 257
 142 1542 l 257
142 358 m 257
 142 297 l 257
 1254 297 l 257
 1254 358 l 257
 142 358 l 257
1200 358 m 257
 1200 -98 l 257
 1260 -98 l 257
 1260 358 l 257
 1200 358 l 257
386 -38 m 257
 386 -98 l 257
 1258 -98 l 257
 1258 -38 l 257
 386 -38 l 257
EndSplineSet
EndChar

StartChar: uni0910
Encoding: 2320 2320 373
GlifName: uni0910
Width: 2048
VWidth: 0
Flags: W
LayerCount: 2
Fore
SplineSet
-5 1549 m 257
 -5 1489 l 257
 2054 1489 l 257
 2054 1549 l 257
 -5 1549 l 257
1890 1545 m 257
 1890 779 l 257
 1952 779 l 257
 1952 1545 l 257
 1890 1545 l 257
1146 840 m 257
 1146 779 l 257
 1952 779 l 257
 1952 840 l 257
 1146 840 l 257
142 1542 m 257
 142 338 l 257
 202 338 l 257
 202 1542 l 257
 142 1542 l 257
142 359 m 257
 142 297 l 257
 1254 297 l 257
 1254 359 l 257
 142 359 l 257
1214 358 m 257
 1214 -98 l 257
 1272 -98 l 257
 1272 358 l 257
 1214 358 l 257
386 -37 m 257
 386 -98 l 257
 1258 -98 l 257
 1258 -37 l 257
 386 -37 l 257
1068 1962 m 257
 1878 1547 l 257
 1950 1547 l 257
 1122 1998 l 257
 1068 1962 l 257
EndSplineSet
EndChar

StartChar: uni0911
Encoding: 2321 2321 374
GlifName: uni0911
Width: 2048
VWidth: 0
Flags: W
LayerCount: 2
Fore
SplineSet
1330 1548 m 257
 1330 1488 l 257
 2048 1488 l 257
 2048 1548 l 257
 1330 1548 l 257
1344 1506 m 257
 1344 0 l 257
 1406 0 l 257
 1406 1506 l 257
 1344 1506 l 257
26 1550 m 257
 26 1488 l 257
 898 1488 l 257
 898 1550 l 257
 26 1550 l 257
864 1550 m 257
 864 30 l 257
 924 30 l 257
 924 1550 l 257
 864 1550 l 257
110 894 m 257
 110 834 l 257
 1382 834 l 257
 1382 894 l 257
 110 894 l 257
0 61 m 257
 0 0 l 257
 924 0 l 257
 924 61 l 257
 0 61 l 257
1836 1504 m 257
 1836 0 l 257
 1896 0 l 257
 1896 1504 l 257
 1836 1504 l 257
1326 2085 m 257
 1326 1639 l 257
 1388 1639 l 257
 1388 2085 l 257
 1326 2085 l 257
1332 1701 m 257
 1332 1641 l 257
 2048 1641 l 257
 2048 1701 l 257
 1332 1701 l 257
1976 2083 m 257
 1976 1641 l 257
 2048 1641 l 257
 2048 2083 l 257
 1976 2083 l 257
EndSplineSet
EndChar

StartChar: uni0912
Encoding: 2322 2322 375
GlifName: uni0912
Width: 2048
VWidth: 0
Flags: W
LayerCount: 2
Fore
SplineSet
1056 1548 m 257
 1056 1488 l 257
 2048 1488 l 257
 2048 1548 l 257
 1056 1548 l 257
1425 1518 m 257
 1425 0 l 257
 1486 0 l 257
 1486 1518 l 257
 1425 1518 l 257
41 1547 m 257
 41 1487 l 257
 897 1487 l 257
 897 1547 l 257
 41 1547 l 257
864 1550 m 257
 864 34 l 257
 923 34 l 257
 923 1550 l 257
 864 1550 l 257
125 894 m 257
 125 835 l 257
 1450 835 l 257
 1450 894 l 257
 125 894 l 257
16 65 m 257
 16 0 l 257
 923 0 l 257
 923 65 l 257
 16 65 l 257
1915 1518 m 257
 1915 0 l 257
 1976 0 l 257
 1976 1518 l 257
 1915 1518 l 257
257 2062 m 257
 257 1823 l 257
 318 1823 l 257
 318 2062 l 257
 257 2062 l 257
256 1866 m 257
 256 1809 l 257
 1963 1809 l 257
 1963 1866 l 257
 256 1866 l 257
1906 1866 m 257
 1906 1534 l 257
 1966 1534 l 257
 1966 1866 l 257
 1906 1866 l 257
EndSplineSet
EndChar

StartChar: uni0913
Encoding: 2323 2323 376
GlifName: uni0913
Width: 2048
VWidth: 0
Flags: W
LayerCount: 2
Fore
SplineSet
1028 1549 m 257
 1028 1489 l 257
 2048 1489 l 257
 2048 1549 l 257
 1028 1549 l 257
1554 1518 m 257
 1554 0 l 257
 1616 0 l 257
 1616 1518 l 257
 1554 1518 l 257
38 1547 m 257
 38 1487 l 257
 872 1487 l 257
 872 1547 l 257
 38 1547 l 257
840 1550 m 257
 840 34 l 257
 898 34 l 257
 898 1550 l 257
 840 1550 l 257
122 894 m 257
 122 835 l 257
 1580 835 l 257
 1580 894 l 257
 122 894 l 257
12 65 m 257
 12 0 l 257
 898 0 l 257
 898 65 l 257
 12 65 l 257
1918 1518 m 257
 1918 0 l 257
 1980 0 l 257
 1980 1518 l 257
 1918 1518 l 257
1430 1807 m 257
 1906 1529 l 257
 1982 1550 l 257
 1502 1826 l 257
 1430 1807 l 257
EndSplineSet
EndChar

StartChar: uni0914
Encoding: 2324 2324 377
GlifName: uni0914
Width: 2048
VWidth: 0
Flags: W
LayerCount: 2
Fore
SplineSet
1354 1553 m 257
 1354 1494 l 257
 2036 1494 l 257
 2036 1553 l 257
 1354 1553 l 257
1554 1518 m 257
 1554 0 l 257
 1616 0 l 257
 1616 1518 l 257
 1554 1518 l 257
38 1547 m 257
 38 1487 l 257
 872 1487 l 257
 872 1547 l 257
 38 1547 l 257
840 1550 m 257
 840 34 l 257
 898 34 l 257
 898 1550 l 257
 840 1550 l 257
122 894 m 257
 122 835 l 257
 1580 835 l 257
 1580 894 l 257
 122 894 l 257
12 65 m 257
 12 0 l 257
 898 0 l 257
 898 65 l 257
 12 65 l 257
1918 1518 m 257
 1918 0 l 257
 1980 0 l 257
 1980 1518 l 257
 1918 1518 l 257
978 1682 m 257
 1550 1525 l 257
 1614 1540 l 257
 1020 1731 l 257
 978 1682 l 257
1090 1751 m 257
 1624 1550 l 257
 1706 1550 l 257
 1144 1783 l 257
 1090 1751 l 257
EndSplineSet
EndChar

StartChar: uni0915
Encoding: 2325 2325 378
GlifName: uni0915
Width: 2048
VWidth: 0
Flags: W
LayerCount: 2
Fore
SplineSet
0 1553 m 257
 0 1469 l 257
 2048 1469 l 257
 2048 1553 l 257
 0 1553 l 257
1110 1518 m 257
 1110 51 l 257
 1164 51 l 257
 1164 1518 l 257
 1110 1518 l 257
181 1069 m 257
 181 1010 l 257
 1022 1010 l 257
 1022 1069 l 257
 181 1069 l 257
170 1068 m 257
 170 604 l 257
 230 604 l 257
 230 1068 l 257
 170 1068 l 257
185 675 m 257
 185 605 l 257
 1157 605 l 257
 1157 675 l 257
 185 675 l 257
1135 999 m 257
 1135 942 l 257
 1912 942 l 257
 1912 999 l 257
 1135 999 l 257
1862 1000 m 257
 1862 779 l 257
 1920 779 l 257
 1920 1000 l 257
 1862 1000 l 257
EndSplineSet
EndChar

StartChar: uni0915_uni0930_uni094D.vatu
Encoding: 65537 -1 379
GlifName: uni0915_uni0930_uni094D_.vatu
Width: 2048
VWidth: 0
Flags: W
LayerCount: 2
Fore
SplineSet
0 1553 m 257
 0 1469 l 257
 2048 1469 l 257
 2048 1553 l 257
 0 1553 l 257
1110 1518 m 257
 1110 51 l 257
 1164 51 l 257
 1164 1518 l 257
 1110 1518 l 257
181 1069 m 257
 181 1010 l 257
 1020 1010 l 257
 1020 1069 l 257
 181 1069 l 257
170 1068 m 257
 170 604 l 257
 230 604 l 257
 230 1068 l 257
 170 1068 l 257
185 675 m 257
 185 605 l 257
 1157 605 l 257
 1157 675 l 257
 185 675 l 257
1134 999 m 257
 1135 942 l 257
 1912 942 l 257
 1912 999 l 257
 1134 999 l 257
1862 1000 m 257
 1862 779 l 257
 1920 779 l 257
 1920 1000 l 257
 1862 1000 l 257
190 -3 m 257
 312 -3 l 257
 1158 299 l 257
 1158 358 l 257
 190 -3 l 257
EndSplineSet
EndChar

StartChar: uni0915_uni094D.half
Encoding: 65538 -1 380
GlifName: uni0915_uni094D_.half
Width: 2048
VWidth: 0
Flags: W
LayerCount: 2
Fore
SplineSet
0 1550 m 257
 0 1478 l 257
 2048 1478 l 257
 2048 1550 l 257
 0 1550 l 257
1110 1518 m 257
 1110 51 l 257
 1164 51 l 257
 1164 1518 l 257
 1110 1518 l 257
181 1069 m 257
 181 1010 l 257
 1022 1010 l 257
 1022 1069 l 257
 181 1069 l 257
170 1068 m 257
 170 604 l 257
 230 604 l 257
 230 1068 l 257
 170 1068 l 257
185 675 m 257
 185 605 l 257
 1157 605 l 257
 1157 675 l 257
 185 675 l 257
1135 999 m 257
 1135 942 l 257
 2165 942 l 257
 2165 999 l 257
 1135 999 l 257
EndSplineSet
EndChar

StartChar: uni0915_uni094D_uni0937.akhn
Encoding: 65540 -1 382
GlifName: uni0915_uni094D__uni0937.akhn
Width: 2048
VWidth: 0
Flags: W
LayerCount: 2
Fore
SplineSet
1689 1550 m 257
 1689 1491 l 257
 2048 1491 l 257
 2048 1550 l 257
 1689 1550 l 257
1886 1511 m 257
 1886 4 l 257
 1945 4 l 257
 1945 1511 l 257
 1886 1511 l 257
126 1078 m 257
 126 1018 l 257
 1945 1018 l 257
 1945 1078 l 257
 126 1078 l 257
126 1023 m 257
 186 1023 l 257
 186 1422 l 257
 126 1422 l 257
 126 1023 l 257
127 1435 m 257
 127 1374 l 257
 1079 1374 l 257
 1079 1435 l 257
 127 1435 l 257
1018 1422 m 257
 1018 1030 l 257
 1078 1030 l 257
 1078 1422 l 257
 1018 1422 l 257
158 647 m 257
 218 647 l 257
 1077 1028 l 257
 1019 1028 l 257
 158 647 l 257
158 647 m 257
 158 200 l 257
 218 200 l 257
 218 647 l 257
 158 647 l 257
158 226 m 257
 158 166 l 257
 1906 166 l 257
 1906 226 l 257
 158 226 l 257
EndSplineSet
EndChar

StartChar: uni0915_uni094D_uni0937.half
Encoding: 65541 -1 383
GlifName: uni0915_uni094D__uni0937.half
Width: 2048
VWidth: 0
Flags: W
LayerCount: 2
Fore
SplineSet
1689 1550 m 257
 1689 1491 l 257
 2048 1491 l 257
 2048 1550 l 257
 1689 1550 l 257
126 1078 m 257
 126 1018 l 257
 2045 1018 l 257
 2045 1078 l 257
 126 1078 l 257
126 1023 m 257
 186 1023 l 257
 186 1422 l 257
 126 1422 l 257
 126 1023 l 257
127 1435 m 257
 127 1374 l 257
 1079 1374 l 257
 1079 1435 l 257
 127 1435 l 257
1018 1422 m 257
 1018 1030 l 257
 1078 1030 l 257
 1078 1422 l 257
 1018 1422 l 257
158 647 m 257
 218 647 l 257
 1077 1028 l 257
 1019 1028 l 257
 158 647 l 257
158 647 m 257
 158 200 l 257
 218 200 l 257
 218 647 l 257
 158 647 l 257
158 226 m 257
 158 166 l 257
 2006 166 l 257
 2006 226 l 257
 158 226 l 257
EndSplineSet
EndChar

StartChar: uni0916
Encoding: 2326 2326 385
GlifName: uni0916
Width: 2048
VWidth: 0
Flags: W
LayerCount: 2
Fore
SplineSet
-4 1556 m 257
 -4 1496 l 257
 2052 1496 l 257
 2052 1556 l 257
 -4 1556 l 257
1859 1514 m 257
 1859 0 l 257
 1920 0 l 257
 1920 1514 l 257
 1859 1514 l 257
1033 979 m 257
 1033 919 l 257
 1461 919 l 257
 1461 979 l 257
 1033 979 l 257
1003 979 m 257
 1003 414 l 257
 1064 414 l 257
 1064 979 l 257
 1003 979 l 257
1003 429 m 257
 1003 368 l 257
 1875 368 l 257
 1875 429 l 257
 1003 429 l 257
457 1510 m 257
 457 120 l 257
 518 120 l 257
 518 1510 l 257
 457 1510 l 257
13 714 m 257
 13 654 l 257
 517 654 l 257
 517 714 l 257
 13 714 l 257
457 130 m 257
 457 70 l 257
 1857 70 l 257
 1857 130 l 257
 457 130 l 257
EndSplineSet
EndChar

StartChar: uni0916_uni0930_uni094D.vatu
Encoding: 65543 -1 386
GlifName: uni0916_uni0930_uni094D_.vatu
Width: 2048
VWidth: 0
Flags: W
LayerCount: 2
Fore
SplineSet
190 0 m 257
 447 0 l 257
 1864 357 l 257
 1864 416 l 257
 190 0 l 257
-4 1556 m 257
 -4 1496 l 257
 2052 1496 l 257
 2052 1556 l 257
 -4 1556 l 257
1859 1514 m 257
 1859 0 l 257
 1920 0 l 257
 1920 1514 l 257
 1859 1514 l 257
1033 1279 m 257
 1033 1219 l 257
 1461 1219 l 257
 1461 1279 l 257
 1033 1279 l 257
1003 1279 m 257
 1003 714 l 257
 1064 714 l 257
 1064 1279 l 257
 1003 1279 l 257
1003 729 m 257
 1003 668 l 257
 1875 668 l 257
 1875 729 l 257
 1003 729 l 257
457 1510 m 257
 457 420 l 257
 518 420 l 257
 518 1510 l 257
 457 1510 l 257
13 1014 m 257
 13 954 l 257
 517 954 l 257
 517 1014 l 257
 13 1014 l 257
457 430 m 257
 457 370 l 257
 1857 370 l 257
 1857 430 l 257
 457 430 l 257
EndSplineSet
EndChar

StartChar: uni0916_uni094D.half
Encoding: 65544 -1 387
GlifName: uni0916_uni094D_.half
Width: 2048
VWidth: 0
Flags: W
LayerCount: 2
Fore
SplineSet
-4 1556 m 257
 -4 1496 l 257
 2052 1496 l 257
 2052 1556 l 257
 -4 1556 l 257
1033 979 m 257
 1033 919 l 257
 1461 919 l 257
 1461 979 l 257
 1033 979 l 257
1003 979 m 257
 1003 414 l 257
 1064 414 l 257
 1064 979 l 257
 1003 979 l 257
1003 429 m 257
 1003 368 l 257
 2050 368 l 257
 2050 429 l 257
 1003 429 l 257
457 1510 m 257
 457 120 l 257
 518 120 l 257
 518 1510 l 257
 457 1510 l 257
13 714 m 257
 13 654 l 257
 517 654 l 257
 517 714 l 257
 13 714 l 257
457 130 m 257
 457 70 l 257
 2032 70 l 257
 2032 130 l 257
 457 130 l 257
EndSplineSet
EndChar

StartChar: uni0917
Encoding: 2327 2327 389
GlifName: uni0917
Width: 2048
VWidth: 0
Flags: W
LayerCount: 2
Fore
SplineSet
51 853 m 257
 121 853 l 257
 121 1044 l 257
 51 1044 l 257
 51 853 l 257
51 882 m 257
 51 812 l 257
 910 812 l 257
 910 882 l 257
 51 882 l 257
840 1556 m 257
 840 812 l 257
 910 812 l 257
 910 1556 l 257
 840 1556 l 257
1997 1557 m 257
 722 1557 l 257
 722 1496 l 257
 1997 1496 l 257
 1997 1557 l 257
1846 1523 m 257
 1846 0 l 257
 1916 0 l 257
 1916 1523 l 257
 1846 1523 l 257
EndSplineSet
EndChar

StartChar: uni0917_uni0930_uni094D.vatu
Encoding: 65546 -1 390
GlifName: uni0917_uni0930_uni094D_.vatu
Width: 2048
VWidth: 0
Flags: W
LayerCount: 2
Fore
SplineSet
196 0 m 257
 453 0 l 257
 1870 357 l 257
 1870 416 l 257
 196 0 l 257
51 853 m 257
 121 853 l 257
 121 1044 l 257
 51 1044 l 257
 51 853 l 257
51 882 m 257
 51 812 l 257
 910 812 l 257
 910 882 l 257
 51 882 l 257
840 1556 m 257
 840 812 l 257
 910 812 l 257
 910 1556 l 257
 840 1556 l 257
1997 1557 m 257
 722 1557 l 257
 722 1496 l 257
 1997 1496 l 257
 1997 1557 l 257
1846 1523 m 257
 1846 0 l 257
 1916 0 l 257
 1916 1523 l 257
 1846 1523 l 257
EndSplineSet
EndChar

StartChar: uni0917_uni094D.half
Encoding: 65547 -1 391
GlifName: uni0917_uni094D_.half
Width: 2048
VWidth: 0
Flags: W
LayerCount: 2
Fore
SplineSet
51 853 m 257
 121 853 l 257
 121 1044 l 257
 51 1044 l 257
 51 853 l 257
51 882 m 257
 51 812 l 257
 910 812 l 257
 910 882 l 257
 51 882 l 257
840 1556 m 257
 840 812 l 257
 910 812 l 257
 910 1556 l 257
 840 1556 l 257
2052 1557 m 257
 722 1557 l 257
 722 1496 l 257
 2052 1496 l 257
 2052 1557 l 257
EndSplineSet
EndChar

StartChar: uni0918
Encoding: 2328 2328 393
GlifName: uni0918
Width: 2048
VWidth: 0
Flags: W
LayerCount: 2
Fore
SplineSet
0 1553 m 257
 0 1495 l 257
 2046 1495 l 257
 2046 1553 l 257
 0 1553 l 257
1866 1522 m 257
 1866 13 l 257
 1926 13 l 257
 1926 1522 l 257
 1866 1522 l 257
174 1515 m 257
 174 859 l 257
 232 859 l 257
 232 1515 l 257
 174 1515 l 257
218 867 m 257
 218 807 l 257
 974 807 l 257
 974 867 l 257
 218 867 l 257
180 328 m 257
 180 269 l 257
 1902 269 l 257
 1902 328 l 257
 180 328 l 257
174 269 m 257
 234 269 l 257
 234 814 l 257
 174 814 l 257
 174 269 l 257
EndSplineSet
EndChar

StartChar: uni0918_uni0930_uni094D.vatu
Encoding: 65549 -1 394
GlifName: uni0918_uni0930_uni094D_.vatu
Width: 2048
VWidth: 0
Flags: W
LayerCount: 2
Fore
SplineSet
219 -49 m 257
 476 -49 l 257
 1893 308 l 257
 1893 367 l 257
 219 -49 l 257
0 1553 m 257
 0 1495 l 257
 2046 1495 l 257
 2046 1553 l 257
 0 1553 l 257
1866 1522 m 257
 1866 13 l 257
 1926 13 l 257
 1926 1522 l 257
 1866 1522 l 257
174 1515 m 257
 174 859 l 257
 232 859 l 257
 232 1515 l 257
 174 1515 l 257
218 867 m 257
 218 807 l 257
 974 807 l 257
 974 867 l 257
 218 867 l 257
180 385 m 257
 180 326 l 257
 1902 326 l 257
 1902 385 l 257
 180 385 l 257
174 335 m 257
 234 335 l 257
 234 814 l 257
 174 814 l 257
 174 335 l 257
EndSplineSet
EndChar

StartChar: uni0918_uni094D.half
Encoding: 65550 -1 395
GlifName: uni0918_uni094D_.half
Width: 2048
VWidth: 0
Flags: W
LayerCount: 2
Fore
SplineSet
0 1553 m 257
 0 1495 l 257
 2046 1495 l 257
 2046 1553 l 257
 0 1553 l 257
174 1515 m 257
 174 859 l 257
 232 859 l 257
 232 1515 l 257
 174 1515 l 257
218 867 m 257
 218 807 l 257
 974 807 l 257
 974 867 l 257
 218 867 l 257
180 328 m 257
 180 269 l 257
 2102 269 l 257
 2102 328 l 257
 180 328 l 257
174 269 m 257
 234 269 l 257
 234 814 l 257
 174 814 l 257
 174 269 l 257
EndSplineSet
EndChar

StartChar: uni0919
Encoding: 2329 2329 397
GlifName: uni0919
Width: 2048
VWidth: 0
Flags: W
LayerCount: 2
Fore
SplineSet
0 1553 m 257
 0 1494 l 257
 2050 1494 l 257
 2050 1553 l 257
 0 1553 l 257
1163 1543 m 257
 1163 1026 l 257
 1223 1026 l 257
 1223 1543 l 257
 1163 1543 l 257
1214 1086 m 257
 239 1086 l 257
 239 1026 l 257
 1214 1026 l 257
 1214 1086 l 257
227 1083 m 257
 227 629 l 257
 299 629 l 257
 299 1083 l 257
 227 1083 l 257
233 680 m 257
 233 620 l 257
 1300 620 l 257
 1300 680 l 257
 233 680 l 257
1237 680 m 257
 1237 29 l 257
 1300 29 l 257
 1300 680 l 257
 1237 680 l 257
114 61 m 257
 114 0 l 257
 1301 0 l 257
 1301 61 l 257
 114 61 l 257
114 202 m 257
 114 8 l 257
 174 8 l 257
 174 202 l 257
 114 202 l 257
1285 931 m 257
 1285 835 l 257
 1381 835 l 257
 1381 931 l 257
 1285 931 l 257
EndSplineSet
EndChar

StartChar: uni0919_uni0930_uni094D.vatu
Encoding: 65552 -1 398
GlifName: uni0919_uni0930_uni094D_.vatu
Width: 2048
VWidth: 0
Flags: W
LayerCount: 2
Fore
SplineSet
960 129 m 257
 1143 -210 l 257
 1211 -210 l 257
 1004 196 l 257
 960 129 l 257
1004 196 m 257
 744 -197 l 257
 812 -197 l 257
 1034 137 l 257
 1004 196 l 257
0 1553 m 257
 0 1494 l 257
 2050 1494 l 257
 2050 1553 l 257
 0 1553 l 257
1163 1543 m 257
 1163 1326 l 257
 1223 1326 l 257
 1223 1543 l 257
 1163 1543 l 257
1214 1386 m 257
 239 1386 l 257
 239 1326 l 257
 1214 1326 l 257
 1214 1386 l 257
227 1383 m 257
 227 929 l 257
 299 929 l 257
 299 1383 l 257
 227 1383 l 257
233 980 m 257
 233 920 l 257
 1300 920 l 257
 1300 980 l 257
 233 980 l 257
1237 980 m 257
 1237 329 l 257
 1300 329 l 257
 1300 980 l 257
 1237 980 l 257
114 361 m 257
 114 300 l 257
 1301 300 l 257
 1301 361 l 257
 114 361 l 257
114 502 m 257
 114 308 l 257
 174 308 l 257
 174 502 l 257
 114 502 l 257
1285 1231 m 257
 1285 1135 l 257
 1381 1135 l 257
 1381 1231 l 257
 1285 1231 l 257
EndSplineSet
EndChar

StartChar: uni0919_uni094D.half
Encoding: 65553 -1 399
GlifName: uni0919_uni094D_.half
Width: 2048
VWidth: 0
Flags: W
LayerCount: 2
Fore
SplineSet
0 1553 m 257
 0 1494 l 257
 2050 1494 l 257
 2050 1553 l 257
 0 1553 l 257
1163 1543 m 257
 1163 1026 l 257
 1223 1026 l 257
 1223 1543 l 257
 1163 1543 l 257
1214 1086 m 257
 239 1086 l 257
 239 1026 l 257
 1214 1026 l 257
 1214 1086 l 257
227 1083 m 257
 227 629 l 257
 299 629 l 257
 299 1083 l 257
 227 1083 l 257
233 680 m 257
 233 620 l 257
 1300 620 l 257
 1300 680 l 257
 233 680 l 257
1237 680 m 257
 1237 329 l 257
 1300 329 l 257
 1300 680 l 257
 1237 680 l 257
114 361 m 257
 114 300 l 257
 1301 300 l 257
 1301 361 l 257
 114 361 l 257
114 502 m 257
 114 308 l 257
 174 308 l 257
 174 502 l 257
 114 502 l 257
1285 931 m 257
 1285 835 l 257
 1381 835 l 257
 1381 931 l 257
 1285 931 l 257
1259 284 m 257
 1259 223 l 257
 1603 223 l 257
 1603 284 l 257
 1259 284 l 257
1574 229 m 257
 2065 -118 l 257
 2095 -66 l 257
 1603 285 l 257
 1574 229 l 257
EndSplineSet
EndChar

StartChar: uni091A
Encoding: 2330 2330 401
GlifName: uni091A_
Width: 2048
VWidth: 0
Flags: W
LayerCount: 2
Fore
SplineSet
0 1556 m 257
 0 1497 l 257
 2048 1497 l 257
 2048 1556 l 257
 0 1556 l 257
1803 1553 m 257
 1803 0 l 257
 1862 0 l 257
 1862 1553 l 257
 1803 1553 l 257
1829 421 m 257
 1829 480 l 257
 808 480 l 257
 808 421 l 257
 1829 421 l 257
808 837 m 257
 808 421 l 257
 867 421 l 257
 867 837 l 257
 808 837 l 257
72 852 m 257
 72 791 l 257
 1009 791 l 257
 1009 852 l 257
 72 852 l 257
EndSplineSet
EndChar

StartChar: uni091A_uni0930_uni094D.vatu
Encoding: 65555 -1 402
GlifName: uni091A__uni0930_uni094D_.vatu
Width: 2048
VWidth: 0
Flags: W
LayerCount: 2
Fore
SplineSet
126 0 m 257
 383 0 l 257
 1800 357 l 257
 1800 416 l 257
 126 0 l 257
0 1556 m 257
 0 1497 l 257
 2048 1497 l 257
 2048 1556 l 257
 0 1556 l 257
1803 1553 m 257
 1803 0 l 257
 1862 0 l 257
 1862 1553 l 257
 1803 1553 l 257
1829 421 m 257
 1829 480 l 257
 808 480 l 257
 808 421 l 257
 1829 421 l 257
808 837 m 257
 808 421 l 257
 867 421 l 257
 867 837 l 257
 808 837 l 257
72 852 m 257
 72 791 l 257
 1009 791 l 257
 1009 852 l 257
 72 852 l 257
EndSplineSet
EndChar

StartChar: uni091A_uni094D.half
Encoding: 65556 -1 403
GlifName: uni091A__uni094D_.half
Width: 2048
VWidth: 0
Flags: W
LayerCount: 2
Fore
SplineSet
0 1556 m 257
 0 1497 l 257
 2048 1497 l 257
 2048 1556 l 257
 0 1556 l 257
2129 421 m 257
 2129 480 l 257
 1108 480 l 257
 1108 421 l 257
 2129 421 l 257
1108 837 m 257
 1108 421 l 257
 1167 421 l 257
 1167 837 l 257
 1108 837 l 257
372 852 m 257
 372 791 l 257
 1309 791 l 257
 1309 852 l 257
 372 852 l 257
EndSplineSet
EndChar

StartChar: uni091B
Encoding: 2331 2331 405
GlifName: uni091B_
Width: 2048
VWidth: 0
Flags: W
LayerCount: 2
Fore
SplineSet
-3 1553 m 257
 -3 1495 l 257
 2051 1495 l 257
 2051 1553 l 257
 -3 1553 l 257
733 1128 m 257
 148 1128 l 257
 148 1069 l 257
 733 1069 l 257
 733 1128 l 257
139 1128 m 257
 139 538 l 257
 199 538 l 257
 199 1128 l 257
 139 1128 l 257
170 547 m 257
 170 487 l 257
 733 487 l 257
 733 547 l 257
 170 547 l 257
138 501 m 257
 138 0 l 257
 198 0 l 257
 198 501 l 257
 138 501 l 257
194 59 m 257
 194 0 l 257
 1541 0 l 257
 1541 59 l 257
 194 59 l 257
1482 6 m 257
 1541 6 l 257
 1541 1515 l 257
 1482 1515 l 257
 1482 6 l 257
1374 869 m 257
 1374 808 l 257
 2032 808 l 257
 2032 869 l 257
 1374 869 l 257
1973 868 m 257
 1973 471 l 257
 2032 471 l 257
 2032 868 l 257
 1973 868 l 257
EndSplineSet
EndChar

StartChar: uni091B_uni0930_uni094D.vatu
Encoding: 65558 -1 406
GlifName: uni091B__uni0930_uni094D_.vatu
Width: 2048
VWidth: 0
Flags: W
LayerCount: 2
Fore
SplineSet
126 0 m 257
 383 0 l 257
 1530 286 l 257
 1530 345 l 257
 126 0 l 257
-3 1553 m 257
 -3 1495 l 257
 2051 1495 l 257
 2051 1553 l 257
 -3 1553 l 257
733 1428 m 257
 148 1428 l 257
 148 1369 l 257
 733 1369 l 257
 733 1428 l 257
139 1428 m 257
 139 838 l 257
 199 838 l 257
 199 1428 l 257
 139 1428 l 257
170 847 m 257
 170 787 l 257
 733 787 l 257
 733 847 l 257
 170 847 l 257
138 801 m 257
 138 339 l 257
 198 339 l 257
 198 801 l 257
 138 801 l 257
194 402 m 257
 194 343 l 257
 1541 343 l 257
 1541 402 l 257
 194 402 l 257
1482 6 m 257
 1541 6 l 257
 1541 1515 l 257
 1482 1515 l 257
 1482 6 l 257
1374 1169 m 257
 1374 1108 l 257
 2032 1108 l 257
 2032 1169 l 257
 1374 1169 l 257
1973 1168 m 257
 1973 771 l 257
 2032 771 l 257
 2032 1168 l 257
 1973 1168 l 257
EndSplineSet
EndChar

StartChar: uni091B_uni094D.half
Encoding: 65559 -1 407
GlifName: uni091B__uni094D_.half
Width: 2048
VWidth: 0
Flags: W
LayerCount: 2
Fore
SplineSet
-3 1553 m 257
 -3 1495 l 257
 2051 1495 l 257
 2051 1553 l 257
 -3 1553 l 257
1133 1128 m 257
 548 1128 l 257
 548 1069 l 257
 1133 1069 l 257
 1133 1128 l 257
539 1128 m 257
 539 538 l 257
 599 538 l 257
 599 1128 l 257
 539 1128 l 257
570 547 m 257
 570 487 l 257
 1133 487 l 257
 1133 547 l 257
 570 547 l 257
538 501 m 257
 538 0 l 257
 598 0 l 257
 598 501 l 257
 538 501 l 257
594 59 m 257
 594 0 l 257
 2041 0 l 257
 2041 59 l 257
 594 59 l 257
EndSplineSet
EndChar

StartChar: uni091C
Encoding: 2332 2332 409
GlifName: uni091C_
Width: 2048
VWidth: 0
Flags: W
LayerCount: 2
Fore
SplineSet
-17 1550 m 257
 -17 1492 l 257
 2065 1492 l 257
 2065 1550 l 257
 -17 1550 l 257
1857 1550 m 257
 1857 -12 l 257
 1918 -12 l 257
 1918 1550 l 257
 1857 1550 l 257
1030 860 m 257
 1030 801 l 257
 1878 801 l 257
 1878 860 l 257
 1030 860 l 257
1020 860 m 257
 1020 512 l 257
 1080 512 l 257
 1080 860 l 257
 1020 860 l 257
58 567 m 257
 58 508 l 257
 1080 508 l 257
 1080 567 l 257
 58 567 l 257
58 727 m 257
 58 509 l 257
 118 509 l 257
 118 727 l 257
 58 727 l 257
EndSplineSet
EndChar

StartChar: uni091C_uni0930_uni094D.vatu
Encoding: 65561 -1 410
GlifName: uni091C__uni0930_uni094D_.vatu
Width: 2048
VWidth: 0
Flags: W
LayerCount: 2
Fore
SplineSet
191 0 m 257
 448 0 l 257
 1865 357 l 257
 1865 416 l 257
 191 0 l 257
-17 1550 m 257
 -17 1492 l 257
 2065 1492 l 257
 2065 1550 l 257
 -17 1550 l 257
1857 1550 m 257
 1857 -12 l 257
 1918 -12 l 257
 1918 1550 l 257
 1857 1550 l 257
1030 860 m 257
 1030 801 l 257
 1878 801 l 257
 1878 860 l 257
 1030 860 l 257
1020 860 m 257
 1020 512 l 257
 1080 512 l 257
 1080 860 l 257
 1020 860 l 257
58 567 m 257
 58 508 l 257
 1080 508 l 257
 1080 567 l 257
 58 567 l 257
58 727 m 257
 58 509 l 257
 118 509 l 257
 118 727 l 257
 58 727 l 257
EndSplineSet
EndChar

StartChar: uni091C_uni094D.half
Encoding: 65562 -1 411
GlifName: uni091C__uni094D_.half
Width: 2048
VWidth: 0
Flags: W
LayerCount: 2
Fore
SplineSet
-17 1550 m 257
 -17 1492 l 257
 2065 1492 l 257
 2065 1550 l 257
 -17 1550 l 257
1305 860 m 257
 1305 801 l 257
 2153 801 l 257
 2153 860 l 257
 1305 860 l 257
1295 860 m 257
 1295 512 l 257
 1355 512 l 257
 1355 860 l 257
 1295 860 l 257
333 567 m 257
 333 508 l 257
 1355 508 l 257
 1355 567 l 257
 333 567 l 257
333 727 m 257
 333 509 l 257
 393 509 l 257
 393 727 l 257
 333 727 l 257
EndSplineSet
EndChar

StartChar: uni091C_uni094D_uni091E.akhn
Encoding: 65564 -1 413
GlifName: uni091C__uni094D__uni091E_.akhn
Width: 2048
VWidth: 0
Flags: W
LayerCount: 2
Fore
SplineSet
-13 1550 m 257
 -13 1488 l 257
 2048 1488 l 257
 2048 1550 l 257
 -13 1550 l 257
1841 1550 m 257
 1841 -12 l 257
 1901 -12 l 257
 1901 1550 l 257
 1841 1550 l 257
909 860 m 257
 909 800 l 257
 1861 800 l 257
 1861 860 l 257
 909 860 l 257
863 860 m 257
 863 413 l 257
 922 413 l 257
 922 860 l 257
 863 860 l 257
41 428 m 257
 41 367 l 257
 922 367 l 257
 922 428 l 257
 41 428 l 257
41 368 m 257
 501 75 l 257
 590 75 l 257
 115 368 l 257
 41 368 l 257
EndSplineSet
EndChar

StartChar: uni091C_uni094D_uni091E.half
Encoding: 65565 -1 414
GlifName: uni091C__uni094D__uni091E_.half
Width: 2048
VWidth: 0
Flags: W
LayerCount: 2
Fore
SplineSet
-13 1550 m 257
 -13 1488 l 257
 2048 1488 l 257
 2048 1550 l 257
 -13 1550 l 257
909 860 m 257
 909 800 l 257
 2061 800 l 257
 2061 860 l 257
 909 860 l 257
863 860 m 257
 863 413 l 257
 922 413 l 257
 922 860 l 257
 863 860 l 257
41 428 m 257
 41 367 l 257
 922 367 l 257
 922 428 l 257
 41 428 l 257
41 368 m 257
 501 75 l 257
 590 75 l 257
 115 368 l 257
 41 368 l 257
EndSplineSet
EndChar

StartChar: uni091D
Encoding: 2333 2333 416
GlifName: uni091D_
Width: 2048
VWidth: 0
Flags: W
LayerCount: 2
Fore
SplineSet
-8 1553 m 257
 -8 1494 l 257
 2056 1494 l 257
 2056 1553 l 257
 -8 1553 l 257
1852 1553 m 257
 1852 -5 l 257
 1914 -5 l 257
 1914 1553 l 257
 1852 1553 l 257
1108 1537 m 257
 1108 1023 l 257
 1168 1023 l 257
 1168 1537 l 257
 1108 1537 l 257
134 1084 m 257
 134 1023 l 257
 1168 1023 l 257
 1168 1084 l 257
 134 1084 l 257
134 1085 m 257
 134 651 l 257
 194 651 l 257
 194 1085 l 257
 134 1085 l 257
134 698 m 257
 134 638 l 257
 1908 638 l 257
 1908 698 l 257
 134 698 l 257
1080 691 m 257
 1080 7 l 257
 1140 7 l 257
 1140 691 l 257
 1080 691 l 257
134 63 m 257
 134 3 l 257
 1140 3 l 257
 1140 63 l 257
 134 63 l 257
134 63 m 257
 134 -148 l 257
 194 -148 l 257
 194 63 l 257
 134 63 l 257
EndSplineSet
EndChar

StartChar: uni091D_uni0930_uni094D.vatu
Encoding: 65567 -1 417
GlifName: uni091D__uni0930_uni094D_.vatu
Width: 2048
VWidth: 0
Flags: W
LayerCount: 2
Fore
SplineSet
990 0 m 257
 1174 0 l 257
 1896 226 l 257
 1896 285 l 257
 990 0 l 257
-8 1553 m 257
 -8 1494 l 257
 2056 1494 l 257
 2056 1553 l 257
 -8 1553 l 257
1852 1553 m 257
 1852 -5 l 257
 1914 -5 l 257
 1914 1553 l 257
 1852 1553 l 257
1108 1537 m 257
 1108 1023 l 257
 1168 1023 l 257
 1168 1537 l 257
 1108 1537 l 257
134 1084 m 257
 134 1023 l 257
 1168 1023 l 257
 1168 1084 l 257
 134 1084 l 257
134 1085 m 257
 134 651 l 257
 194 651 l 257
 194 1085 l 257
 134 1085 l 257
134 698 m 257
 134 638 l 257
 1908 638 l 257
 1908 698 l 257
 134 698 l 257
880 691 m 257
 880 7 l 257
 940 7 l 257
 940 691 l 257
 880 691 l 257
134 63 m 257
 134 3 l 257
 940 3 l 257
 940 63 l 257
 134 63 l 257
134 63 m 257
 134 -148 l 257
 194 -148 l 257
 194 63 l 257
 134 63 l 257
EndSplineSet
EndChar

StartChar: uni091D_uni094D.half
Encoding: 65568 -1 418
GlifName: uni091D__uni094D_.half
Width: 2048
VWidth: 0
Flags: W
LayerCount: 2
Fore
SplineSet
-8 1553 m 257
 -8 1494 l 257
 2056 1494 l 257
 2056 1553 l 257
 -8 1553 l 257
1308 1537 m 257
 1308 1023 l 257
 1368 1023 l 257
 1368 1537 l 257
 1308 1537 l 257
334 1084 m 257
 334 1023 l 257
 1368 1023 l 257
 1368 1084 l 257
 334 1084 l 257
334 1085 m 257
 334 651 l 257
 394 651 l 257
 394 1085 l 257
 334 1085 l 257
334 698 m 257
 334 638 l 257
 2108 638 l 257
 2108 698 l 257
 334 698 l 257
1280 691 m 257
 1280 7 l 257
 1340 7 l 257
 1340 691 l 257
 1280 691 l 257
334 63 m 257
 334 3 l 257
 1340 3 l 257
 1340 63 l 257
 334 63 l 257
334 63 m 257
 334 -148 l 257
 394 -148 l 257
 394 63 l 257
 334 63 l 257
EndSplineSet
EndChar

StartChar: uni091E
Encoding: 2334 2334 420
GlifName: uni091E_
Width: 2048
VWidth: 0
Flags: W
LayerCount: 2
Fore
SplineSet
-5 1553 m 257
 -5 1493 l 257
 2053 1493 l 257
 2053 1553 l 257
 -5 1553 l 257
1899 1538 m 257
 1899 -8 l 257
 1959 -8 l 257
 1959 1538 l 257
 1899 1538 l 257
1094 672 m 257
 1094 612 l 257
 1920 612 l 257
 1920 672 l 257
 1094 672 l 257
84 960 m 257
 84 900 l 257
 1093 900 l 257
 1093 960 l 257
 84 960 l 257
1063 960 m 257
 1063 316 l 257
 1123 316 l 257
 1123 960 l 257
 1063 960 l 257
61 320 m 257
 61 260 l 257
 1123 260 l 257
 1123 320 l 257
 61 320 l 257
EndSplineSet
EndChar

StartChar: uni091E_uni0930_uni094D.vatu
Encoding: 65570 -1 421
GlifName: uni091E__uni0930_uni094D_.vatu
Width: 2048
VWidth: 0
Flags: W
LayerCount: 2
Fore
SplineSet
248 0 m 257
 505 0 l 257
 1922 357 l 257
 1922 416 l 257
 248 0 l 257
-5 1553 m 257
 -5 1493 l 257
 2053 1493 l 257
 2053 1553 l 257
 -5 1553 l 257
1899 1538 m 257
 1899 -8 l 257
 1959 -8 l 257
 1959 1538 l 257
 1899 1538 l 257
1094 672 m 257
 1094 612 l 257
 1920 612 l 257
 1920 672 l 257
 1094 672 l 257
84 960 m 257
 84 900 l 257
 1093 900 l 257
 1093 960 l 257
 84 960 l 257
1063 960 m 257
 1063 316 l 257
 1123 316 l 257
 1123 960 l 257
 1063 960 l 257
61 320 m 257
 61 260 l 257
 1123 260 l 257
 1123 320 l 257
 61 320 l 257
EndSplineSet
EndChar

StartChar: uni091E_uni094D.half
Encoding: 65571 -1 422
GlifName: uni091E__uni094D_.half
Width: 2048
VWidth: 0
Flags: W
LayerCount: 2
Fore
SplineSet
-5 1553 m 257
 -5 1493 l 257
 2053 1493 l 257
 2053 1553 l 257
 -5 1553 l 257
1272 672 m 257
 1272 612 l 257
 2098 612 l 257
 2098 672 l 257
 1272 672 l 257
262 960 m 257
 262 900 l 257
 1271 900 l 257
 1271 960 l 257
 262 960 l 257
1241 960 m 257
 1241 316 l 257
 1301 316 l 257
 1301 960 l 257
 1241 960 l 257
239 320 m 257
 239 260 l 257
 1301 260 l 257
 1301 320 l 257
 239 320 l 257
EndSplineSet
EndChar

StartChar: uni091F
Encoding: 2335 2335 424
GlifName: uni091F_
Width: 2048
VWidth: 0
Flags: W
LayerCount: 2
Fore
SplineSet
5 1553 m 257
 5 1494 l 257
 2043 1494 l 257
 2043 1553 l 257
 5 1553 l 257
1728 1528 m 257
 1728 988 l 257
 1788 988 l 257
 1788 1528 l 257
 1728 1528 l 257
1788 1023 m 257
 115 1023 l 257
 115 963 l 257
 1788 963 l 257
 1788 1023 l 257
94 1023 m 257
 94 5 l 257
 154 5 l 257
 154 1023 l 257
 94 1023 l 257
94 60 m 257
 94 0 l 257
 1831 0 l 257
 1831 60 l 257
 94 60 l 257
EndSplineSet
EndChar

StartChar: uni091F_uni0930_uni094D.vatu
Encoding: 65573 -1 425
GlifName: uni091F__uni0930_uni094D_.vatu
Width: 2048
VWidth: 0
Flags: W
LayerCount: 2
Fore
SplineSet
983 159 m 257
 1166 -180 l 257
 1234 -180 l 257
 1027 226 l 257
 983 159 l 257
1027 226 m 257
 767 -167 l 257
 835 -167 l 257
 1057 167 l 257
 1027 226 l 257
5 1553 m 257
 5 1494 l 257
 2043 1494 l 257
 2043 1553 l 257
 5 1553 l 257
1728 1528 m 257
 1728 988 l 257
 1788 988 l 257
 1788 1528 l 257
 1728 1528 l 257
1788 1023 m 257
 115 1023 l 257
 115 963 l 257
 1788 963 l 257
 1788 1023 l 257
94 1023 m 257
 94 305 l 257
 154 305 l 257
 154 1023 l 257
 94 1023 l 257
94 360 m 257
 94 300 l 257
 1831 300 l 257
 1831 360 l 257
 94 360 l 257
EndSplineSet
EndChar

StartChar: uni0920
Encoding: 2336 2336 427
GlifName: uni0920
Width: 2048
VWidth: 0
Flags: W
LayerCount: 2
Fore
SplineSet
0 1550 m 257
 0 1490 l 257
 2048 1490 l 257
 2048 1550 l 257
 0 1550 l 257
1110 1510 m 257
 1110 1023 l 257
 1168 1023 l 257
 1168 1510 l 257
 1110 1510 l 257
84 1023 m 257
 84 963 l 257
 1986 963 l 257
 1986 1023 l 257
 84 1023 l 257
72 1023 m 257
 72 13 l 257
 134 13 l 257
 134 1023 l 257
 72 1023 l 257
1914 1001 m 257
 1914 0 l 257
 1986 0 l 257
 1986 1001 l 257
 1914 1001 l 257
72 58 m 257
 72 -3 l 257
 1966 -3 l 257
 1966 58 l 257
 72 58 l 257
EndSplineSet
EndChar

StartChar: uni0920_uni0930_uni094D.vatu
Encoding: 65575 -1 428
GlifName: uni0920_uni0930_uni094D_.vatu
Width: 2048
VWidth: 0
Flags: W
LayerCount: 2
Fore
SplineSet
983 159 m 257
 1166 -180 l 257
 1234 -180 l 257
 1027 226 l 257
 983 159 l 257
1027 226 m 257
 767 -167 l 257
 835 -167 l 257
 1057 167 l 257
 1027 226 l 257
0 1550 m 257
 0 1490 l 257
 2048 1490 l 257
 2048 1550 l 257
 0 1550 l 257
1110 1510 m 257
 1110 1023 l 257
 1168 1023 l 257
 1168 1510 l 257
 1110 1510 l 257
84 1023 m 257
 84 963 l 257
 1986 963 l 257
 1986 1023 l 257
 84 1023 l 257
72 1023 m 257
 72 313 l 257
 134 313 l 257
 134 1023 l 257
 72 1023 l 257
1914 1001 m 257
 1914 298 l 257
 1986 298 l 257
 1986 1001 l 257
 1914 1001 l 257
72 358 m 257
 72 297 l 257
 1966 297 l 257
 1966 358 l 257
 72 358 l 257
EndSplineSet
EndChar

StartChar: uni0921
Encoding: 2337 2337 430
GlifName: uni0921
Width: 2048
VWidth: 0
Flags: W
LayerCount: 2
Fore
SplineSet
0 1548 m 257
 0 1488 l 257
 2048 1488 l 257
 2048 1548 l 257
 0 1548 l 257
384 1091 m 257
 384 579 l 257
 444 579 l 257
 444 1091 l 257
 384 1091 l 257
384 597 m 257
 384 538 l 257
 1741 538 l 257
 1741 597 l 257
 384 597 l 257
1681 554 m 257
 1681 5 l 257
 1741 5 l 257
 1741 554 l 257
 1681 554 l 257
62 60 m 257
 62 0 l 257
 1741 0 l 257
 1741 60 l 257
 62 60 l 257
62 331 m 257
 62 5 l 257
 123 5 l 257
 123 331 l 257
 62 331 l 257
384 1134 m 257
 384 1074 l 257
 1741 1074 l 257
 1741 1134 l 257
 384 1134 l 257
1679 1503 m 257
 1679 1098 l 257
 1741 1098 l 257
 1741 1503 l 257
 1679 1503 l 257
EndSplineSet
EndChar

StartChar: uni0921_uni0930_uni094D.vatu
Encoding: 65577 -1 431
GlifName: uni0921_uni0930_uni094D_.vatu
Width: 2048
VWidth: 0
Flags: W
LayerCount: 2
Fore
SplineSet
983 158 m 257
 1166 -181 l 257
 1234 -181 l 257
 1027 225 l 257
 983 158 l 257
1027 225 m 257
 767 -168 l 257
 835 -168 l 257
 1057 166 l 257
 1027 225 l 257
0 1548 m 257
 0 1488 l 257
 2048 1488 l 257
 2048 1548 l 257
 0 1548 l 257
384 1091 m 257
 384 825 l 257
 444 825 l 257
 444 1091 l 257
 384 1091 l 257
384 843 m 257
 384 784 l 257
 1741 784 l 257
 1741 843 l 257
 384 843 l 257
1681 800 m 257
 1681 251 l 257
 1741 251 l 257
 1741 800 l 257
 1681 800 l 257
62 306 m 257
 62 246 l 257
 1741 246 l 257
 1741 306 l 257
 62 306 l 257
62 577 m 257
 62 251 l 257
 123 251 l 257
 123 577 l 257
 62 577 l 257
384 1134 m 257
 384 1074 l 257
 1741 1074 l 257
 1741 1134 l 257
 384 1134 l 257
1679 1503 m 257
 1679 1098 l 257
 1741 1098 l 257
 1741 1503 l 257
 1679 1503 l 257
EndSplineSet
EndChar

StartChar: uni0922
Encoding: 2338 2338 433
GlifName: uni0922
Width: 2048
VWidth: 0
Flags: W
LayerCount: 2
Fore
SplineSet
0 1550 m 257
 0 1488 l 257
 2048 1488 l 257
 2048 1550 l 257
 0 1550 l 257
1711 1528 m 257
 1711 988 l 257
 1793 988 l 257
 1793 1528 l 257
 1711 1528 l 257
1793 1023 m 257
 120 1023 l 257
 120 962 l 257
 1793 962 l 257
 1793 1023 l 257
99 1023 m 257
 99 5 l 257
 159 5 l 257
 159 1023 l 257
 99 1023 l 257
99 60 m 257
 99 0 l 257
 1836 0 l 257
 1836 60 l 257
 99 60 l 257
1778 544 m 257
 1778 0 l 257
 1838 0 l 257
 1838 544 l 257
 1778 544 l 257
1508 547 m 257
 1508 487 l 257
 1836 487 l 257
 1836 547 l 257
 1508 547 l 257
EndSplineSet
EndChar

StartChar: uni0922_uni0930_uni094D.vatu
Encoding: 65579 -1 434
GlifName: uni0922_uni0930_uni094D_.vatu
Width: 2048
VWidth: 0
Flags: W
LayerCount: 2
Fore
SplineSet
983 159 m 257
 1166 -180 l 257
 1234 -180 l 257
 1027 226 l 257
 983 159 l 257
1027 226 m 257
 767 -167 l 257
 835 -167 l 257
 1057 167 l 257
 1027 226 l 257
0 1550 m 257
 0 1488 l 257
 2048 1488 l 257
 2048 1550 l 257
 0 1550 l 257
1711 1528 m 257
 1711 988 l 257
 1793 988 l 257
 1793 1528 l 257
 1711 1528 l 257
1793 1023 m 257
 120 1023 l 257
 120 962 l 257
 1793 962 l 257
 1793 1023 l 257
99 1023 m 257
 99 305 l 257
 159 305 l 257
 159 1023 l 257
 99 1023 l 257
99 360 m 257
 99 300 l 257
 1836 300 l 257
 1836 360 l 257
 99 360 l 257
1778 844 m 257
 1778 298 l 257
 1838 298 l 257
 1838 844 l 257
 1778 844 l 257
1508 847 m 257
 1508 787 l 257
 1836 787 l 257
 1836 847 l 257
 1508 847 l 257
EndSplineSet
EndChar

StartChar: uni0923
Encoding: 2339 2339 436
GlifName: uni0923
Width: 2048
VWidth: 0
Flags: W
LayerCount: 2
Fore
SplineSet
-3 1550 m 257
 -3 1488 l 257
 2051 1488 l 257
 2051 1550 l 257
 -3 1550 l 257
1883 1530 m 257
 1883 0 l 257
 1943 0 l 257
 1943 1530 l 257
 1883 1530 l 257
107 1543 m 257
 107 855 l 257
 167 855 l 257
 167 1543 l 257
 107 1543 l 257
1115 1528 m 257
 1115 844 l 257
 1175 844 l 257
 1175 1528 l 257
 1115 1528 l 257
107 885 m 257
 107 825 l 257
 1175 825 l 257
 1175 885 l 257
 107 885 l 257
EndSplineSet
EndChar

StartChar: uni0923_uni0930_uni094D.vatu
Encoding: 65581 -1 437
GlifName: uni0923_uni0930_uni094D_.vatu
Width: 2048
VWidth: 0
Flags: W
LayerCount: 2
Fore
SplineSet
224 0 m 257
 481 0 l 257
 1898 357 l 257
 1898 416 l 257
 224 0 l 257
-3 1550 m 257
 -3 1488 l 257
 2051 1488 l 257
 2051 1550 l 257
 -3 1550 l 257
1883 1530 m 257
 1883 0 l 257
 1943 0 l 257
 1943 1530 l 257
 1883 1530 l 257
107 1543 m 257
 107 855 l 257
 167 855 l 257
 167 1543 l 257
 107 1543 l 257
1115 1528 m 257
 1115 844 l 257
 1175 844 l 257
 1175 1528 l 257
 1115 1528 l 257
107 885 m 257
 107 825 l 257
 1175 825 l 257
 1175 885 l 257
 107 885 l 257
EndSplineSet
EndChar

StartChar: uni0923_uni094D.half
Encoding: 65582 -1 438
GlifName: uni0923_uni094D_.half
Width: 2048
VWidth: 0
Flags: W
LayerCount: 2
Fore
SplineSet
-3 1550 m 257
 -3 1488 l 257
 2051 1488 l 257
 2051 1550 l 257
 -3 1550 l 257
507 1543 m 257
 507 855 l 257
 567 855 l 257
 567 1543 l 257
 507 1543 l 257
1515 1528 m 257
 1515 844 l 257
 1575 844 l 257
 1575 1528 l 257
 1515 1528 l 257
507 885 m 257
 507 825 l 257
 1575 825 l 257
 1575 885 l 257
 507 885 l 257
EndSplineSet
EndChar

StartChar: uni0924
Encoding: 2340 2340 440
GlifName: uni0924
Width: 2048
VWidth: 0
Flags: W
LayerCount: 2
Fore
SplineSet
-15 1557 m 257
 -15 1497 l 257
 2063 1497 l 257
 2063 1557 l 257
 -15 1557 l 257
1813 1534 m 257
 1813 0 l 257
 1872 0 l 257
 1872 1534 l 257
 1813 1534 l 257
1827 788 m 257
 120 788 l 257
 120 728 l 257
 1827 728 l 257
 1827 788 l 257
120 766 m 257
 120 26 l 257
 180 26 l 257
 180 766 l 257
 120 766 l 257
EndSplineSet
EndChar

StartChar: uni0924_uni0930_uni094D.vatu
Encoding: 65584 -1 441
GlifName: uni0924_uni0930_uni094D_.vatu
Width: 2048
VWidth: 0
Flags: W
LayerCount: 2
Fore
SplineSet
163 0 m 257
 420 0 l 257
 1837 465 l 257
 1837 524 l 257
 163 0 l 257
-15 1557 m 257
 -15 1497 l 257
 2063 1497 l 257
 2063 1557 l 257
 -15 1557 l 257
1813 1534 m 257
 1813 0 l 257
 1872 0 l 257
 1872 1534 l 257
 1813 1534 l 257
1827 589 m 257
 120 788 l 257
 120 728 l 257
 1827 529 l 257
 1827 589 l 257
EndSplineSet
EndChar

StartChar: uni0924_uni094D.half
Encoding: 65585 -1 442
GlifName: uni0924_uni094D_.half
Width: 2048
VWidth: 0
Flags: W
LayerCount: 2
Fore
SplineSet
-15 1557 m 257
 -15 1497 l 257
 2063 1497 l 257
 2063 1557 l 257
 -15 1557 l 257
2127 788 m 257
 420 788 l 257
 420 728 l 257
 2127 728 l 257
 2127 788 l 257
420 766 m 257
 420 26 l 257
 480 26 l 257
 480 766 l 257
 420 766 l 257
EndSplineSet
EndChar

StartChar: uni0924_uni094D_uni0924.pres
Encoding: 65587 -1 444
GlifName: uni0924_uni094D__uni0924.pres
Width: 2048
VWidth: 0
Flags: W
LayerCount: 2
Fore
SplineSet
-30 1553 m 257
 -30 1493 l 257
 2049 1493 l 257
 2049 1553 l 257
 -30 1553 l 257
1798 1511 m 257
 1798 0 l 257
 1858 0 l 257
 1858 1511 l 257
 1798 1511 l 257
1813 788 m 257
 105 788 l 257
 105 728 l 257
 1813 728 l 257
 1813 788 l 257
105 728 m 257
 350 -16 l 257
 411 22 l 257
 165 766 l 257
 105 728 l 257
1827 1038 m 257
 76 1038 l 257
 76 978 l 257
 1827 978 l 257
 1827 1038 l 257
EndSplineSet
EndChar

StartChar: uni0925
Encoding: 2341 2341 445
GlifName: uni0925
Width: 2048
VWidth: 0
Flags: W
LayerCount: 2
Fore
SplineSet
1647 1550 m 257
 1647 1492 l 257
 2031 1492 l 257
 2031 1550 l 257
 1647 1550 l 257
1923 1541 m 257
 1923 -18 l 257
 1982 -18 l 257
 1982 1541 l 257
 1923 1541 l 257
17 1550 m 257
 17 1490 l 257
 974 1490 l 257
 974 1550 l 257
 17 1550 l 257
913 1503 m 257
 913 986 l 257
 973 986 l 257
 973 1503 l 257
 913 1503 l 257
974 1018 m 257
 21 1018 l 257
 21 957 l 257
 974 957 l 257
 974 1018 l 257
21 983 m 257
 21 132 l 257
 80 132 l 257
 80 983 l 257
 21 983 l 257
21 191 m 257
 21 132 l 257
 1982 132 l 257
 1982 191 l 257
 21 191 l 257
EndSplineSet
EndChar

StartChar: uni0925_uni0930_uni094D.vatu
Encoding: 65588 -1 446
GlifName: uni0925_uni0930_uni094D_.vatu
Width: 2048
VWidth: 0
Flags: W
LayerCount: 2
Fore
SplineSet
266 0 m 257
 523 0 l 257
 1940 357 l 257
 1940 416 l 257
 266 0 l 257
1647 1550 m 257
 1647 1492 l 257
 2031 1492 l 257
 2031 1550 l 257
 1647 1550 l 257
1923 1541 m 257
 1923 -18 l 257
 1982 -18 l 257
 1982 1541 l 257
 1923 1541 l 257
17 1550 m 257
 17 1490 l 257
 974 1490 l 257
 974 1550 l 257
 17 1550 l 257
913 1503 m 257
 913 1086 l 257
 973 1086 l 257
 973 1503 l 257
 913 1503 l 257
974 1118 m 257
 21 1118 l 257
 21 1057 l 257
 974 1057 l 257
 974 1118 l 257
21 1083 m 257
 21 432 l 257
 80 432 l 257
 80 1083 l 257
 21 1083 l 257
21 491 m 257
 21 432 l 257
 1982 432 l 257
 1982 491 l 257
 21 491 l 257
EndSplineSet
EndChar

StartChar: uni0925_uni094D.half
Encoding: 65589 -1 447
GlifName: uni0925_uni094D_.half
Width: 2048
VWidth: 0
Flags: W
LayerCount: 2
Fore
SplineSet
1697 1550 m 257
 1697 1492 l 257
 2081 1492 l 257
 2081 1550 l 257
 1697 1550 l 257
67 1550 m 257
 67 1490 l 257
 1024 1490 l 257
 1024 1550 l 257
 67 1550 l 257
963 1503 m 257
 963 986 l 257
 1023 986 l 257
 1023 1503 l 257
 963 1503 l 257
1024 1018 m 257
 71 1018 l 257
 71 957 l 257
 1024 957 l 257
 1024 1018 l 257
71 983 m 257
 71 132 l 257
 130 132 l 257
 130 983 l 257
 71 983 l 257
71 191 m 257
 71 132 l 257
 2032 132 l 257
 2032 191 l 257
 71 191 l 257
EndSplineSet
EndChar

StartChar: uni0926
Encoding: 2342 2342 449
GlifName: uni0926
Width: 2048
VWidth: 0
Flags: W
LayerCount: 2
Fore
SplineSet
4 1553 m 257
 4 1493 l 257
 2044 1493 l 257
 2044 1553 l 257
 4 1553 l 257
1134 1515 m 257
 1134 966 l 257
 1192 966 l 257
 1192 1515 l 257
 1134 1515 l 257
1192 1023 m 257
 58 1023 l 257
 58 963 l 257
 1192 963 l 257
 1192 1023 l 257
58 1011 m 257
 58 318 l 257
 116 318 l 257
 116 1011 l 257
 58 1011 l 257
58 346 m 257
 58 285 l 257
 1322 285 l 257
 1322 346 l 257
 58 346 l 257
1262 325 m 257
 1262 -7 l 257
 1322 -7 l 257
 1322 325 l 257
 1262 325 l 257
EndSplineSet
EndChar

StartChar: uni0926_uni0930_uni094D.vatu
Encoding: 65591 -1 450
GlifName: uni0926_uni0930_uni094D_.vatu
Width: 2048
VWidth: 0
Flags: W
LayerCount: 2
Fore
SplineSet
126 0 m 257
 383 0 l 257
 1287 211 l 257
 1287 270 l 257
 126 0 l 257
4 1553 m 257
 4 1493 l 257
 2044 1493 l 257
 2044 1553 l 257
 4 1553 l 257
1134 1515 m 257
 1134 966 l 257
 1192 966 l 257
 1192 1515 l 257
 1134 1515 l 257
1192 1023 m 257
 58 1023 l 257
 58 963 l 257
 1192 963 l 257
 1192 1023 l 257
58 1011 m 257
 58 318 l 257
 116 318 l 257
 116 1011 l 257
 58 1011 l 257
58 346 m 257
 58 285 l 257
 1322 285 l 257
 1322 346 l 257
 58 346 l 257
1262 325 m 257
 1262 -7 l 257
 1322 -7 l 257
 1322 325 l 257
 1262 325 l 257
EndSplineSet
EndChar

StartChar: uni0926_uni094D.half
Encoding: 65592 -1 451
GlifName: uni0926_uni094D_.half
Width: 2048
VWidth: 0
Flags: W
LayerCount: 2
Fore
SplineSet
4 1553 m 257
 4 1493 l 257
 2044 1493 l 257
 2044 1553 l 257
 4 1553 l 257
1134 1515 m 257
 1134 966 l 257
 1192 966 l 257
 1192 1515 l 257
 1134 1515 l 257
1192 1023 m 257
 58 1023 l 257
 58 963 l 257
 1192 963 l 257
 1192 1023 l 257
58 1011 m 257
 58 618 l 257
 116 618 l 257
 116 1011 l 257
 58 1011 l 257
58 646 m 257
 58 585 l 257
 1322 585 l 257
 1322 646 l 257
 58 646 l 257
1262 625 m 257
 1262 293 l 257
 1322 293 l 257
 1322 625 l 257
 1262 625 l 257
1259 284 m 257
 1259 223 l 257
 1603 223 l 257
 1603 284 l 257
 1259 284 l 257
1574 229 m 257
 2065 -118 l 257
 2095 -66 l 257
 1603 285 l 257
 1574 229 l 257
EndSplineSet
EndChar

StartChar: uni0926_uni094D_uni0926.pres
Encoding: 65594 -1 453
GlifName: uni0926_uni094D__uni0926.pres
Width: 2048
VWidth: 0
Flags: W
LayerCount: 2
Fore
SplineSet
7 1550 m 257
 7 1489 l 257
 2052 1489 l 257
 2052 1550 l 257
 7 1550 l 257
1381 1509 m 257
 1381 1164 l 257
 1440 1164 l 257
 1440 1509 l 257
 1381 1509 l 257
1439 1197 m 257
 453 1197 l 257
 453 1137 l 257
 1439 1137 l 257
 1439 1197 l 257
454 1173 m 257
 454 736 l 257
 513 736 l 257
 513 1173 l 257
 454 1173 l 257
452 205 m 257
 452 146 l 257
 1565 146 l 257
 1565 205 l 257
 452 205 l 257
1510 406 m 257
 1510 -7 l 257
 1569 -7 l 257
 1569 406 l 257
 1510 406 l 257
1439 749 m 257
 503 749 l 257
 503 688 l 257
 1439 688 l 257
 1439 749 l 257
454 701 m 257
 454 178 l 257
 513 178 l 257
 513 701 l 257
 454 701 l 257
EndSplineSet
EndChar

StartChar: uni0926_uni094D_uni0927.pres
Encoding: 65595 -1 454
GlifName: uni0926_uni094D__uni0927.pres
Width: 2048
VWidth: 0
Flags: W
LayerCount: 2
Fore
SplineSet
0 1550 m 257
 0 1462 l 257
 2052 1462 l 257
 2052 1550 l 257
 0 1550 l 257
1528 1509 m 257
 1528 983 l 257
 1587 983 l 257
 1587 1509 l 257
 1528 1509 l 257
1586 1020 m 257
 893 1020 l 257
 893 959 l 257
 1586 959 l 257
 1586 1020 l 257
893 996 m 257
 893 164 l 257
 952 164 l 257
 952 996 l 257
 893 996 l 257
1657 406 m 257
 1657 -7 l 257
 1716 -7 l 257
 1716 406 l 257
 1657 406 l 257
196 978 m 257
 196 918 l 257
 502 918 l 257
 502 978 l 257
 196 978 l 257
196 950 m 257
 196 718 l 257
 259 718 l 257
 259 950 l 257
 196 950 l 257
195 719 m 257
 195 659 l 257
 906 659 l 257
 906 719 l 257
 195 719 l 257
230 674 m 257
 230 180 l 257
 290 180 l 257
 290 674 l 257
 230 674 l 257
229 198 m 257
 229 139 l 257
 1673 139 l 257
 1673 198 l 257
 229 198 l 257
EndSplineSet
EndChar

StartChar: uni0926_uni094D_uni092F.pres
Encoding: 65596 -1 455
GlifName: uni0926_uni094D__uni092F_.pres
Width: 2048
VWidth: 0
Flags: W
LayerCount: 2
Fore
SplineSet
1954 1531 m 257
 1954 0 l 257
 2014 0 l 257
 2014 1531 l 257
 1954 1531 l 257
1186 288 m 257
 1186 229 l 257
 1964 107 l 257
 1964 173 l 257
 1186 288 l 257
-5 1550 m 257
 -5 1489 l 257
 2049 1489 l 257
 2049 1550 l 257
 -5 1550 l 257
1137 1509 m 257
 1137 986 l 257
 1196 986 l 257
 1196 1509 l 257
 1137 1509 l 257
1186 288 m 257
 57 288 l 257
 57 229 l 257
 1186 229 l 257
 1186 288 l 257
57 996 m 257
 57 273 l 257
 116 273 l 257
 116 996 l 257
 57 996 l 257
1196 1020 m 257
 56 1020 l 257
 56 960 l 257
 1196 960 l 257
 1196 1020 l 257
EndSplineSet
EndChar

StartChar: uni0926_uni094D_uni0935.pres
Encoding: 65597 -1 456
GlifName: uni0926_uni094D__uni0935.pres
Width: 2048
VWidth: 0
Flags: W
LayerCount: 2
Fore
SplineSet
7 1550 m 257
 7 1490 l 257
 2050 1490 l 257
 2050 1550 l 257
 7 1550 l 257
1323 1509 m 257
 1323 1197 l 257
 1384 1197 l 257
 1384 1509 l 257
 1323 1509 l 257
1383 1241 m 257
 261 1241 l 257
 261 1182 l 257
 1383 1182 l 257
 1383 1241 l 257
257 1243 m 257
 257 659 l 257
 317 659 l 257
 317 1243 l 257
 257 1243 l 257
257 684 m 257
 257 625 l 257
 1509 625 l 257
 1509 684 l 257
 257 684 l 257
1453 846 m 257
 1453 -7 l 257
 1513 -7 l 257
 1513 846 l 257
 1453 846 l 257
276 478 m 257
 276 102 l 257
 336 102 l 257
 336 478 l 257
 276 478 l 257
277 134 m 257
 277 74 l 257
 1512 74 l 257
 1512 134 l 257
 277 134 l 257
276 514 m 257
 276 455 l 257
 1024 455 l 257
 1024 514 l 257
 276 514 l 257
EndSplineSet
EndChar

StartChar: uni0927
Encoding: 2343 2343 457
GlifName: uni0927
Width: 2048
VWidth: 0
Flags: W
LayerCount: 2
Fore
SplineSet
1691 1553 m 257
 1691 1493 l 257
 1992 1493 l 257
 1992 1553 l 257
 1691 1553 l 257
1880 1512 m 257
 1880 -6 l 257
 1939 -6 l 257
 1939 1512 l 257
 1880 1512 l 257
57 1553 m 257
 57 1492 l 257
 961 1492 l 257
 961 1553 l 257
 57 1553 l 257
57 1501 m 257
 57 844 l 257
 118 844 l 257
 118 1501 l 257
 57 1501 l 257
56 882 m 257
 56 823 l 257
 967 823 l 257
 967 882 l 257
 56 882 l 257
90 830 m 257
 90 163 l 257
 150 163 l 257
 150 830 l 257
 90 830 l 257
90 186 m 257
 90 126 l 257
 1899 126 l 257
 1899 186 l 257
 90 186 l 257
EndSplineSet
EndChar

StartChar: uni0927_uni0930_uni094D.vatu
Encoding: 65598 -1 458
GlifName: uni0927_uni0930_uni094D_.vatu
Width: 2048
VWidth: 0
Flags: W
LayerCount: 2
Fore
SplineSet
219 0 m 257
 476 0 l 257
 1893 357 l 257
 1893 416 l 257
 219 0 l 257
1691 1553 m 257
 1691 1493 l 257
 1992 1493 l 257
 1992 1553 l 257
 1691 1553 l 257
1880 1512 m 257
 1880 -6 l 257
 1939 -6 l 257
 1939 1512 l 257
 1880 1512 l 257
57 1553 m 257
 57 1492 l 257
 961 1492 l 257
 961 1553 l 257
 57 1553 l 257
57 1501 m 257
 57 1144 l 257
 118 1144 l 257
 118 1501 l 257
 57 1501 l 257
56 1182 m 257
 56 1123 l 257
 967 1123 l 257
 967 1182 l 257
 56 1182 l 257
90 1130 m 257
 90 463 l 257
 150 463 l 257
 150 1130 l 257
 90 1130 l 257
90 486 m 257
 90 426 l 257
 1899 426 l 257
 1899 486 l 257
 90 486 l 257
EndSplineSet
EndChar

StartChar: uni0927_uni094D.half
Encoding: 65599 -1 459
GlifName: uni0927_uni094D_.half
Width: 2048
VWidth: 0
Flags: W
LayerCount: 2
Fore
SplineSet
207 1553 m 257
 207 1492 l 257
 1111 1492 l 257
 1111 1553 l 257
 207 1553 l 257
207 1501 m 257
 207 844 l 257
 268 844 l 257
 268 1501 l 257
 207 1501 l 257
206 882 m 257
 206 823 l 257
 1117 823 l 257
 1117 882 l 257
 206 882 l 257
240 830 m 257
 240 163 l 257
 300 163 l 257
 300 830 l 257
 240 830 l 257
240 186 m 257
 240 126 l 257
 2049 126 l 257
 2049 186 l 257
 240 186 l 257
EndSplineSet
EndChar

StartChar: uni0928
Encoding: 2344 2344 461
GlifName: uni0928
Width: 2048
VWidth: 0
Flags: W
LayerCount: 2
Fore
SplineSet
3 1550 m 257
 3 1493 l 257
 2045 1493 l 257
 2045 1550 l 257
 3 1550 l 257
1868 1550 m 257
 1868 3 l 257
 1929 3 l 257
 1929 1550 l 257
 1868 1550 l 257
98 744 m 257
 98 683 l 257
 1899 683 l 257
 1899 744 l 257
 98 744 l 257
99 741 m 257
 99 456 l 257
 159 456 l 257
 159 741 l 257
 99 741 l 257
EndSplineSet
EndChar

StartChar: uni0928_uni0930_uni094D.vatu
Encoding: 65601 -1 462
GlifName: uni0928_uni0930_uni094D_.vatu
Width: 2048
VWidth: 0
Flags: W
LayerCount: 2
Fore
SplineSet
213 0 m 257
 470 0 l 257
 1887 357 l 257
 1887 416 l 257
 213 0 l 257
3 1550 m 257
 3 1493 l 257
 2045 1493 l 257
 2045 1550 l 257
 3 1550 l 257
1868 1550 m 257
 1868 3 l 257
 1929 3 l 257
 1929 1550 l 257
 1868 1550 l 257
98 744 m 257
 98 683 l 257
 1899 683 l 257
 1899 744 l 257
 98 744 l 257
99 741 m 257
 99 456 l 257
 159 456 l 257
 159 741 l 257
 99 741 l 257
EndSplineSet
EndChar

StartChar: uni0928_uni094D.half
Encoding: 65602 -1 463
GlifName: uni0928_uni094D_.half
Width: 2048
VWidth: 0
Flags: W
LayerCount: 2
Fore
SplineSet
3 1550 m 257
 3 1493 l 257
 2045 1493 l 257
 2045 1550 l 257
 3 1550 l 257
248 744 m 257
 248 683 l 257
 2049 683 l 257
 2049 744 l 257
 248 744 l 257
249 741 m 257
 249 456 l 257
 309 456 l 257
 309 741 l 257
 249 741 l 257
EndSplineSet
EndChar

StartChar: uni0929
Encoding: 2345 2345 465
GlifName: uni0929
Width: 2048
VWidth: 0
Flags: W
LayerCount: 2
Fore
SplineSet
0 1550 m 257
 0 1493 l 257
 2042 1493 l 257
 2042 1550 l 257
 0 1550 l 257
1865 1550 m 257
 1865 3 l 257
 1926 3 l 257
 1926 1550 l 257
 1865 1550 l 257
95 744 m 257
 95 683 l 257
 1896 683 l 257
 1896 744 l 257
 95 744 l 257
96 741 m 257
 96 456 l 257
 156 456 l 257
 156 741 l 257
 96 741 l 257
1024 -52 m 257
 1024 -166 l 257
 1168 -166 l 257
 1168 -52 l 257
 1024 -52 l 257
EndSplineSet
EndChar

StartChar: uni0929_uni0930_uni094D.vatu
Encoding: 65604 -1 466
GlifName: uni0929_uni0930_uni094D_.vatu
Width: 2048
VWidth: 0
Flags: W
LayerCount: 2
Fore
SplineSet
199 0 m 257
 456 0 l 257
 1873 357 l 257
 1873 416 l 257
 199 0 l 257
0 1550 m 257
 0 1493 l 257
 2042 1493 l 257
 2042 1550 l 257
 0 1550 l 257
1865 1550 m 257
 1865 3 l 257
 1926 3 l 257
 1926 1550 l 257
 1865 1550 l 257
95 744 m 257
 95 683 l 257
 1896 683 l 257
 1896 744 l 257
 95 744 l 257
96 741 m 257
 96 456 l 257
 156 456 l 257
 156 741 l 257
 96 741 l 257
1024 -52 m 257
 1024 -166 l 257
 1168 -166 l 257
 1168 -52 l 257
 1024 -52 l 257
EndSplineSet
EndChar

StartChar: uni0929_uni094D.half
Encoding: 65605 -1 467
GlifName: uni0929_uni094D_.half
Width: 2048
VWidth: 0
Flags: W
LayerCount: 2
Fore
SplineSet
0 1550 m 257
 0 1493 l 257
 2042 1493 l 257
 2042 1550 l 257
 0 1550 l 257
245 744 m 257
 245 683 l 257
 2046 683 l 257
 2046 744 l 257
 245 744 l 257
246 741 m 257
 246 456 l 257
 306 456 l 257
 306 741 l 257
 246 741 l 257
1174 -52 m 257
 1174 -166 l 257
 1318 -166 l 257
 1318 -52 l 257
 1174 -52 l 257
EndSplineSet
EndChar

StartChar: uni092A
Encoding: 2346 2346 469
GlifName: uni092A_
Width: 2048
VWidth: 0
Flags: W
LayerCount: 2
Fore
SplineSet
-4 1550 m 257
 -4 1491 l 257
 2052 1491 l 257
 2052 1550 l 257
 -4 1550 l 257
1851 1539 m 257
 1851 0 l 257
 1912 0 l 257
 1912 1539 l 257
 1851 1539 l 257
98 1550 m 257
 98 965 l 257
 158 965 l 257
 158 1550 l 257
 98 1550 l 257
98 1023 m 257
 98 966 l 257
 1878 966 l 257
 1878 1023 l 257
 98 1023 l 257
EndSplineSet
EndChar

StartChar: uni092A_uni0930_uni094D.vatu
Encoding: 65607 -1 470
GlifName: uni092A__uni0930_uni094D_.vatu
Width: 2048
VWidth: 0
Flags: W
LayerCount: 2
Fore
SplineSet
189 0 m 257
 446 0 l 257
 1863 357 l 257
 1863 416 l 257
 189 0 l 257
-4 1550 m 257
 -4 1491 l 257
 2052 1491 l 257
 2052 1550 l 257
 -4 1550 l 257
1851 1539 m 257
 1851 0 l 257
 1912 0 l 257
 1912 1539 l 257
 1851 1539 l 257
98 1550 m 257
 98 965 l 257
 158 965 l 257
 158 1550 l 257
 98 1550 l 257
98 1023 m 257
 98 966 l 257
 1878 966 l 257
 1878 1023 l 257
 98 1023 l 257
EndSplineSet
EndChar

StartChar: uni092A_uni094D.half
Encoding: 65608 -1 471
GlifName: uni092A__uni094D_.half
Width: 2048
VWidth: 0
Flags: W
LayerCount: 2
Fore
SplineSet
-4 1550 m 257
 -4 1491 l 257
 2052 1491 l 257
 2052 1550 l 257
 -4 1550 l 257
98 1550 m 257
 98 965 l 257
 158 965 l 257
 158 1550 l 257
 98 1550 l 257
98 1023 m 257
 98 966 l 257
 2078 966 l 257
 2078 1023 l 257
 98 1023 l 257
EndSplineSet
EndChar

StartChar: uni092B
Encoding: 2347 2347 473
GlifName: uni092B_
Width: 2048
VWidth: 0
Flags: W
LayerCount: 2
Fore
SplineSet
0 1550 m 257
 0 1491 l 257
 2048 1491 l 257
 2048 1550 l 257
 0 1550 l 257
1452 1539 m 257
 1452 0 l 257
 1512 0 l 257
 1512 1539 l 257
 1452 1539 l 257
94 1550 m 257
 94 965 l 257
 154 965 l 257
 154 1550 l 257
 94 1550 l 257
94 1023 m 257
 94 964 l 257
 1988 964 l 257
 1988 1023 l 257
 94 1023 l 257
1936 1023 m 257
 1936 686 l 257
 1996 686 l 257
 1996 1023 l 257
 1936 1023 l 257
EndSplineSet
EndChar

StartChar: uni092B_uni0930_uni094D.vatu
Encoding: 65610 -1 474
GlifName: uni092B__uni0930_uni094D_.vatu
Width: 2048
VWidth: 0
Flags: W
LayerCount: 2
Fore
SplineSet
126 0 m 257
 383 0 l 257
 1509 289 l 257
 1509 348 l 257
 126 0 l 257
0 1550 m 257
 0 1491 l 257
 2048 1491 l 257
 2048 1550 l 257
 0 1550 l 257
1452 1539 m 257
 1452 0 l 257
 1512 0 l 257
 1512 1539 l 257
 1452 1539 l 257
94 1550 m 257
 94 965 l 257
 154 965 l 257
 154 1550 l 257
 94 1550 l 257
94 1023 m 257
 94 964 l 257
 1988 964 l 257
 1988 1023 l 257
 94 1023 l 257
1936 1023 m 257
 1936 686 l 257
 1996 686 l 257
 1996 1023 l 257
 1936 1023 l 257
EndSplineSet
EndChar

StartChar: uni092B_uni094D.half
Encoding: 65611 -1 475
GlifName: uni092B__uni094D_.half
Width: 2048
VWidth: 0
Flags: W
LayerCount: 2
Fore
SplineSet
0 1550 m 257
 0 1491 l 257
 2048 1491 l 257
 2048 1550 l 257
 0 1550 l 257
1452 1539 m 257
 1452 0 l 257
 1512 0 l 257
 1512 1539 l 257
 1452 1539 l 257
94 1550 m 257
 94 965 l 257
 154 965 l 257
 154 1550 l 257
 94 1550 l 257
94 1023 m 257
 94 964 l 257
 2088 964 l 257
 2088 1023 l 257
 94 1023 l 257
EndSplineSet
EndChar

StartChar: uni092C
Encoding: 2348 2348 477
GlifName: uni092C_
Width: 2048
VWidth: 0
Flags: W
LayerCount: 2
Fore
SplineSet
0 1550 m 257
 0 1491 l 257
 2048 1491 l 257
 2048 1550 l 257
 0 1550 l 257
1824 1520 m 257
 1824 -25 l 257
 1884 -25 l 257
 1884 1520 l 257
 1824 1520 l 257
76 1023 m 257
 76 232 l 257
 136 232 l 257
 136 1023 l 257
 76 1023 l 257
78 264 m 257
 78 204 l 257
 1834 204 l 257
 1834 264 l 257
 78 264 l 257
102 926 m 257
 1748 262 l 257
 1836 262 l 257
 140 968 l 257
 102 926 l 257
76 1023 m 257
 76 964 l 257
 1126 964 l 257
 1126 1023 l 257
 76 1023 l 257
EndSplineSet
EndChar

StartChar: uni092C_uni0930_uni094D.vatu
Encoding: 65613 -1 478
GlifName: uni092C__uni0930_uni094D_.vatu
Width: 2048
VWidth: 0
Flags: W
LayerCount: 2
Fore
SplineSet
149 0 m 257
 406 0 l 257
 1823 357 l 257
 1823 416 l 257
 149 0 l 257
0 1550 m 257
 0 1491 l 257
 2048 1491 l 257
 2048 1550 l 257
 0 1550 l 257
1824 1520 m 257
 1824 -25 l 257
 1884 -25 l 257
 1884 1520 l 257
 1824 1520 l 257
76 1321 m 257
 76 532 l 257
 136 532 l 257
 136 1321 l 257
 76 1321 l 257
78 564 m 257
 78 504 l 257
 1834 504 l 257
 1834 564 l 257
 78 564 l 257
102 1226 m 257
 1748 562 l 257
 1836 562 l 257
 140 1268 l 257
 102 1226 l 257
76 1325 m 257
 76 1264 l 257
 1126 1264 l 257
 1126 1325 l 257
 76 1325 l 257
EndSplineSet
EndChar

StartChar: uni092C_uni094D.half
Encoding: 65614 -1 479
GlifName: uni092C__uni094D_.half
Width: 2048
VWidth: 0
Flags: W
LayerCount: 2
Fore
SplineSet
0 1550 m 257
 0 1491 l 257
 2048 1491 l 257
 2048 1550 l 257
 0 1550 l 257
326 1023 m 257
 326 232 l 257
 386 232 l 257
 386 1023 l 257
 326 1023 l 257
328 264 m 257
 328 204 l 257
 2084 204 l 257
 2084 264 l 257
 328 264 l 257
352 926 m 257
 1998 262 l 257
 2086 262 l 257
 390 968 l 257
 352 926 l 257
326 1023 m 257
 326 964 l 257
 1376 964 l 257
 1376 1023 l 257
 326 1023 l 257
EndSplineSet
EndChar

StartChar: uni092D
Encoding: 2349 2349 481
GlifName: uni092D_
Width: 2048
VWidth: 0
Flags: W
LayerCount: 2
Fore
SplineSet
72 61 m 257
 72 0 l 257
 576 0 l 257
 576 61 l 257
 72 61 l 257
72 320 m 257
 72 0 l 257
 140 0 l 257
 140 320 l 257
 72 320 l 257
1582 1550 m 257
 1582 1492 l 257
 2028 1492 l 257
 2028 1550 l 257
 1582 1550 l 257
1892 1543 m 257
 1892 0 l 257
 1952 0 l 257
 1952 1543 l 257
 1892 1543 l 257
20 1550 m 257
 20 1099 l 257
 80 1099 l 257
 80 1550 l 257
 20 1550 l 257
46 1550 m 257
 46 1491 l 257
 620 1491 l 257
 620 1550 l 257
 46 1550 l 257
574 1550 m 257
 574 0 l 257
 634 0 l 257
 634 1550 l 257
 574 1550 l 257
80 333 m 257
 80 273 l 257
 1924 273 l 257
 1924 333 l 257
 80 333 l 257
EndSplineSet
EndChar

StartChar: uni092D_uni0930_uni094D.vatu
Encoding: 65616 -1 482
GlifName: uni092D__uni0930_uni094D_.vatu
Width: 2048
VWidth: 0
Flags: W
LayerCount: 2
Fore
SplineSet
238 0 m 257
 495 0 l 257
 1912 357 l 257
 1912 416 l 257
 238 0 l 257
72 361 m 257
 72 300 l 257
 576 300 l 257
 576 361 l 257
 72 361 l 257
72 620 m 257
 72 300 l 257
 140 300 l 257
 140 620 l 257
 72 620 l 257
1582 1550 m 257
 1582 1492 l 257
 2028 1492 l 257
 2028 1550 l 257
 1582 1550 l 257
1892 1543 m 257
 1892 0 l 257
 1952 0 l 257
 1952 1543 l 257
 1892 1543 l 257
20 1550 m 257
 20 1099 l 257
 80 1099 l 257
 80 1550 l 257
 20 1550 l 257
46 1550 m 257
 46 1491 l 257
 620 1491 l 257
 620 1550 l 257
 46 1550 l 257
574 1550 m 257
 574 299 l 257
 634 299 l 257
 634 1550 l 257
 574 1550 l 257
80 633 m 257
 80 573 l 257
 1924 573 l 257
 1924 633 l 257
 80 633 l 257
EndSplineSet
EndChar

StartChar: uni092D_uni094D.half
Encoding: 65617 -1 483
GlifName: uni092D__uni094D_.half
Width: 2048
VWidth: 0
Flags: W
LayerCount: 2
Fore
SplineSet
72 61 m 257
 72 0 l 257
 576 0 l 257
 576 61 l 257
 72 61 l 257
72 320 m 257
 72 0 l 257
 140 0 l 257
 140 320 l 257
 72 320 l 257
1582 1550 m 257
 1582 1492 l 257
 2028 1492 l 257
 2028 1550 l 257
 1582 1550 l 257
20 1550 m 257
 20 1099 l 257
 80 1099 l 257
 80 1550 l 257
 20 1550 l 257
46 1550 m 257
 46 1491 l 257
 620 1491 l 257
 620 1550 l 257
 46 1550 l 257
574 1550 m 257
 574 0 l 257
 634 0 l 257
 634 1550 l 257
 574 1550 l 257
80 333 m 257
 80 273 l 257
 2074 273 l 257
 2074 333 l 257
 80 333 l 257
EndSplineSet
EndChar

StartChar: uni092E
Encoding: 2350 2350 485
GlifName: uni092E_
Width: 2048
VWidth: 0
Flags: W
LayerCount: 2
Fore
SplineSet
72 61 m 257
 72 0 l 257
 626 0 l 257
 626 61 l 257
 72 61 l 257
72 320 m 257
 72 0 l 257
 140 0 l 257
 140 320 l 257
 72 320 l 257
3 1550 m 257
 3 1488 l 257
 2045 1488 l 257
 2045 1550 l 257
 3 1550 l 257
1910 1543 m 257
 1910 0 l 257
 1969 0 l 257
 1969 1543 l 257
 1910 1543 l 257
591 1538 m 257
 591 0 l 257
 650 0 l 257
 650 1538 l 257
 591 1538 l 257
97 333 m 257
 97 273 l 257
 1941 273 l 257
 1941 333 l 257
 97 333 l 257
EndSplineSet
EndChar

StartChar: uni092E_uni0930_uni094D.vatu
Encoding: 65619 -1 486
GlifName: uni092E__uni0930_uni094D_.vatu
Width: 2048
VWidth: 0
Flags: W
LayerCount: 2
Fore
SplineSet
250 0 m 257
 507 0 l 257
 1924 357 l 257
 1924 416 l 257
 250 0 l 257
72 361 m 257
 72 300 l 257
 626 300 l 257
 626 361 l 257
 72 361 l 257
72 620 m 257
 72 300 l 257
 140 300 l 257
 140 620 l 257
 72 620 l 257
3 1550 m 257
 3 1488 l 257
 2045 1488 l 257
 2045 1550 l 257
 3 1550 l 257
1910 1543 m 257
 1910 0 l 257
 1969 0 l 257
 1969 1543 l 257
 1910 1543 l 257
591 1538 m 257
 591 300 l 257
 650 300 l 257
 650 1538 l 257
 591 1538 l 257
97 633 m 257
 97 573 l 257
 1941 573 l 257
 1941 633 l 257
 97 633 l 257
EndSplineSet
EndChar

StartChar: uni092E_uni094D.half
Encoding: 65620 -1 487
GlifName: uni092E__uni094D_.half
Width: 2048
VWidth: 0
Flags: W
LayerCount: 2
Fore
SplineSet
72 61 m 257
 72 0 l 257
 626 0 l 257
 626 61 l 257
 72 61 l 257
72 320 m 257
 72 0 l 257
 140 0 l 257
 140 320 l 257
 72 320 l 257
3 1550 m 257
 3 1488 l 257
 2045 1488 l 257
 2045 1550 l 257
 3 1550 l 257
591 1538 m 257
 591 0 l 257
 650 0 l 257
 650 1538 l 257
 591 1538 l 257
97 333 m 257
 97 273 l 257
 2091 273 l 257
 2091 333 l 257
 97 333 l 257
EndSplineSet
EndChar

StartChar: uni092F
Encoding: 2351 2351 489
GlifName: uni092F_
Width: 2048
VWidth: 0
Flags: W
LayerCount: 2
Fore
SplineSet
-9 1550 m 257
 -9 1489 l 257
 2057 1489 l 257
 2057 1550 l 257
 -9 1550 l 257
1863 1531 m 257
 1863 0 l 257
 1923 0 l 257
 1923 1531 l 257
 1863 1531 l 257
134 1490 m 257
 626 846 l 257
 684 846 l 257
 187 1542 l 257
 134 1490 l 257
626 846 m 257
 137 472 l 257
 197 462 l 257
 684 846 l 257
 626 846 l 257
206 524 m 257
 137 472 l 257
 1865 199 l 257
 1888 256 l 257
 206 524 l 257
EndSplineSet
EndChar

StartChar: uni092F_uni0930_uni094D.vatu
Encoding: 65622 -1 490
GlifName: uni092F__uni0930_uni094D_.vatu
Width: 2048
VWidth: 0
Flags: W
LayerCount: 2
Fore
SplineSet
126 0 m 257
 383 0 l 257
 1881 267 l 257
 1881 326 l 257
 126 0 l 257
-9 1550 m 257
 -9 1489 l 257
 2057 1489 l 257
 2057 1550 l 257
 -9 1550 l 257
1863 1531 m 257
 1863 0 l 257
 1923 0 l 257
 1923 1531 l 257
 1863 1531 l 257
134 1490 m 257
 626 846 l 257
 684 846 l 257
 187 1542 l 257
 134 1490 l 257
626 846 m 257
 137 472 l 257
 197 462 l 257
 684 846 l 257
 626 846 l 257
206 417 m 257
 137 360 l 257
 1883 360 l 257
 1906 417 l 257
 206 417 l 257
EndSplineSet
EndChar

StartChar: uni092F_uni094D.half
Encoding: 65623 -1 491
GlifName: uni092F__uni094D_.half
Width: 2048
VWidth: 0
Flags: W
LayerCount: 2
Fore
SplineSet
-9 1550 m 257
 -9 1489 l 257
 2057 1489 l 257
 2057 1550 l 257
 -9 1550 l 257
134 1490 m 257
 626 846 l 257
 684 846 l 257
 187 1542 l 257
 134 1490 l 257
626 846 m 257
 137 472 l 257
 197 462 l 257
 684 846 l 257
 626 846 l 257
206 524 m 257
 137 472 l 257
 2043 199 l 257
 2066 256 l 257
 206 524 l 257
EndSplineSet
EndChar

StartChar: uni0930
Encoding: 2352 2352 493
GlifName: uni0930
Width: 2048
VWidth: 0
Flags: W
LayerCount: 2
Fore
SplineSet
0 1550 m 257
 0 1492 l 257
 2048 1492 l 257
 2048 1550 l 257
 0 1550 l 257
1238 1540 m 257
 1238 790 l 257
 1298 790 l 257
 1298 1540 l 257
 1238 1540 l 257
1298 802 m 257
 352 802 l 257
 352 742 l 257
 1298 742 l 257
 1298 802 l 257
352 742 m 257
 1356 0 l 257
 1428 0 l 257
 386 802 l 257
 352 742 l 257
EndSplineSet
EndChar

StartChar: uni0930_uni0930_uni094D.vatu
Encoding: 65625 -1 494
GlifName: uni0930_uni0930_uni094D_.vatu
Width: 2048
VWidth: 0
Flags: W
LayerCount: 2
Fore
SplineSet
126 0 m 257
 383 0 l 257
 1104 186 l 257
 1104 245 l 257
 126 0 l 257
0 1550 m 257
 0 1492 l 257
 2048 1492 l 257
 2048 1550 l 257
 0 1550 l 257
1238 1540 m 257
 1238 790 l 257
 1298 790 l 257
 1298 1540 l 257
 1238 1540 l 257
1298 802 m 257
 352 802 l 257
 352 742 l 257
 1298 742 l 257
 1298 802 l 257
352 742 m 257
 1356 0 l 257
 1428 0 l 257
 386 802 l 257
 352 742 l 257
EndSplineSet
EndChar

StartChar: uni0930_uni0941.blws
Encoding: 65626 -1 495
GlifName: uni0930_uni0941.blws
Width: 2048
VWidth: 0
Flags: W
LayerCount: 2
Fore
SplineSet
925 1018 m 257
 1541 1018 l 257
 1541 1078 l 257
 925 1078 l 257
 925 1018 l 257
1516 380 m 257
 1577 380 l 257
 1577 1079 l 257
 1516 1079 l 257
 1516 380 l 257
1158 380 m 257
 1553 380 l 257
 1553 440 l 257
 1158 440 l 257
 1158 380 l 257
0 1548 m 257
 0 1488 l 257
 2048 1488 l 257
 2048 1548 l 257
 0 1548 l 257
876 1537 m 257
 876 790 l 257
 936 790 l 257
 936 1537 l 257
 876 1537 l 257
936 802 m 257
 131 802 l 257
 131 742 l 257
 936 742 l 257
 936 802 l 257
131 743 m 257
 991 -50 l 257
 1044 -21 l 257
 183 772 l 257
 131 743 l 257
EndSplineSet
EndChar

StartChar: uni0930_uni0942.blws
Encoding: 65627 -1 496
GlifName: uni0930_uni0942.blws
Width: 2048
VWidth: 0
Flags: W
LayerCount: 2
Fore
SplineSet
1804 682 m 257
 1804 741 l 257
 1376 741 l 257
 1376 682 l 257
 1804 682 l 257
1436 737 m 257
 1436 1026 l 257
 1376 1026 l 257
 1376 741 l 257
 1436 737 l 257
1013 1025 m 257
 1013 966 l 257
 1836 966 l 257
 1836 1026 l 257
 1013 1025 l 257
1836 964 m 257
 2041 713 l 257
 2041 776 l 257
 1836 1026 l 257
 1836 964 l 257
0 1548 m 257
 0 1488 l 257
 2050 1488 l 257
 2050 1548 l 257
 0 1548 l 257
979 1537 m 257
 979 790 l 257
 1040 790 l 257
 1040 1537 l 257
 979 1537 l 257
1039 802 m 257
 18 802 l 257
 18 741 l 257
 1039 741 l 257
 1039 802 l 257
18 743 m 257
 788 1 l 257
 872 -1 l 257
 101 741 l 257
 18 743 l 257
EndSplineSet
EndChar

StartChar: uni0930_uni094D.abvs
Encoding: 65628 -1 497
GlifName: uni0930_uni094D_.abvs
Width: 2048
VWidth: 0
Flags: W
LayerCount: 2
Fore
SplineSet
120 1550 m 257
 180 1550 l 257
 180 1869 l 257
 120 1869 l 257
 120 1550 l 257
244 2002 m 257
 244 1942 l 257
 572 1942 l 257
 572 2002 l 257
 244 2002 l 257
244 2002 m 257
 120 1869 l 257
 180 1869 l 257
 244 1942 l 257
 244 2002 l 257
EndSplineSet
EndChar

StartChar: uni0930_uni094D.blwf
Encoding: 65629 -1 498
GlifName: uni0930_uni094D_.blwf
Width: 2048
VWidth: 0
Flags: W
LayerCount: 2
Fore
SplineSet
-14 1550 m 257
 -14 1490 l 257
 2050 1490 l 257
 2050 1550 l 257
 -14 1550 l 257
-630 -171 m 257
 -447 -510 l 257
 -379 -510 l 257
 -586 -104 l 257
 -630 -171 l 257
-586 -104 m 257
 -846 -497 l 257
 -778 -497 l 257
 -556 -163 l 257
 -586 -104 l 257
EndSplineSet
EndChar

StartChar: uni0930_uni094D.half
Encoding: 65630 -1 499
GlifName: uni0930_uni094D_.half
Width: 2048
VWidth: 0
Flags: W
LayerCount: 2
Fore
SplineSet
0 1550 m 257
 0 1492 l 257
 2048 1492 l 257
 2048 1550 l 257
 0 1550 l 257
2069 942 m 257
 1854 787 l 257
 1897 745 l 257
 2112 900 l 257
 2069 942 l 257
1898 802 m 257
 952 802 l 257
 952 742 l 257
 1898 742 l 257
 1898 802 l 257
700 920 m 257
 952 742 l 257
 952 802 l 257
 734 980 l 257
 700 920 l 257
EndSplineSet
EndChar

StartChar: uni0930_uni094D.rphf
Encoding: 65632 -1 501
GlifName: uni0930_uni094D_.rphf
Width: 2048
VWidth: 0
Flags: W
LayerCount: 2
Fore
SplineSet
-11 1550 m 257
 -11 1492 l 257
 2052 1492 l 257
 2052 1550 l 257
 -11 1550 l 257
-380 1550 m 257
 -320 1550 l 257
 -320 1869 l 257
 -380 1869 l 257
 -380 1550 l 257
-256 2002 m 257
 -256 1942 l 257
 72 1942 l 257
 72 2002 l 257
 -256 2002 l 257
-256 2002 m 257
 -380 1869 l 257
 -320 1869 l 257
 -256 1942 l 257
 -256 2002 l 257
EndSplineSet
EndChar

StartChar: uni0930_uni094D.vatu
Encoding: 65633 -1 502
GlifName: uni0930_uni094D_.vatu
Width: 2048
VWidth: 0
Flags: W
LayerCount: 2
Fore
SplineSet
126 0 m 257
 383 0 l 257
 1800 357 l 257
 1800 416 l 257
 126 0 l 257
EndSplineSet
EndChar

StartChar: uni0931
Encoding: 2353 2353 503
GlifName: uni0931
Width: 2048
VWidth: 0
Flags: W
LayerCount: 2
Fore
SplineSet
0 1550 m 257
 0 1492 l 257
 2049 1492 l 257
 2049 1550 l 257
 0 1550 l 257
1238 1540 m 257
 1238 790 l 257
 1298 790 l 257
 1298 1540 l 257
 1238 1540 l 257
1298 802 m 257
 353 802 l 257
 353 742 l 257
 1298 742 l 257
 1298 802 l 257
353 742 m 257
 1357 0 l 257
 1429 0 l 257
 387 802 l 257
 353 742 l 257
777 -80 m 257
 777 -194 l 257
 920 -194 l 257
 920 -80 l 257
 777 -80 l 257
EndSplineSet
EndChar

StartChar: uni0931_uni0930_uni094D.vatu
Encoding: 65634 -1 504
GlifName: uni0931_uni0930_uni094D_.vatu
Width: 2048
VWidth: 0
Flags: W
LayerCount: 2
Fore
SplineSet
126 0 m 257
 383 0 l 257
 1152 159 l 257
 1143 214 l 257
 126 0 l 257
0 1550 m 257
 0 1492 l 257
 2049 1492 l 257
 2049 1550 l 257
 0 1550 l 257
1238 1540 m 257
 1238 790 l 257
 1298 790 l 257
 1298 1540 l 257
 1238 1540 l 257
1298 802 m 257
 353 802 l 257
 353 742 l 257
 1298 742 l 257
 1298 802 l 257
353 742 m 257
 1357 0 l 257
 1429 0 l 257
 387 802 l 257
 353 742 l 257
777 -80 m 257
 777 -194 l 257
 920 -194 l 257
 920 -80 l 257
 777 -80 l 257
EndSplineSet
EndChar

StartChar: uni0932
Encoding: 2354 2354 506
GlifName: uni0932
Width: 2048
VWidth: 0
Flags: W
LayerCount: 2
Fore
SplineSet
-6 1550 m 257
 -6 1490 l 257
 2054 1490 l 257
 2054 1550 l 257
 -6 1550 l 257
1928 1544 m 257
 1868 1544 l 257
 1868 0 l 257
 1928 0 l 257
 1928 1544 l 257
38 750 m 257
 38 195 l 257
 98 195 l 257
 98 750 l 257
 38 750 l 257
38 782 m 257
 38 722 l 257
 1898 722 l 257
 1898 782 l 257
 38 782 l 257
954 753 m 257
 954 374 l 257
 1014 374 l 257
 1014 753 l 257
 954 753 l 257
EndSplineSet
EndChar

StartChar: uni0932_uni0930_uni094D.vatu
Encoding: 65636 -1 507
GlifName: uni0932_uni0930_uni094D_.vatu
Width: 2048
VWidth: 0
Flags: W
LayerCount: 2
Fore
SplineSet
236 0 m 257
 493 0 l 257
 1910 355 l 257
 1910 414 l 257
 236 0 l 257
-6 1550 m 257
 -6 1490 l 257
 2054 1490 l 257
 2054 1550 l 257
 -6 1550 l 257
1928 1544 m 257
 1868 1544 l 257
 1868 0 l 257
 1928 0 l 257
 1928 1544 l 257
38 750 m 257
 38 195 l 257
 98 195 l 257
 98 750 l 257
 38 750 l 257
38 782 m 257
 38 722 l 257
 1898 722 l 257
 1898 782 l 257
 38 782 l 257
954 753 m 257
 954 374 l 257
 1014 374 l 257
 1014 753 l 257
 954 753 l 257
EndSplineSet
EndChar

StartChar: uni0932_uni094D.half
Encoding: 65637 -1 508
GlifName: uni0932_uni094D_.half
Width: 2048
VWidth: 0
Flags: W
LayerCount: 2
Fore
SplineSet
-6 1550 m 257
 -6 1490 l 257
 2054 1490 l 257
 2054 1550 l 257
 -6 1550 l 257
238 750 m 257
 238 195 l 257
 298 195 l 257
 298 750 l 257
 238 750 l 257
238 782 m 257
 238 722 l 257
 2098 722 l 257
 2098 782 l 257
 238 782 l 257
1154 753 m 257
 1154 374 l 257
 1214 374 l 257
 1214 753 l 257
 1154 753 l 257
EndSplineSet
EndChar

StartChar: uni0933
Encoding: 2355 2355 510
GlifName: uni0933
Width: 2048
VWidth: 0
Flags: W
LayerCount: 2
Fore
SplineSet
-6 1553 m 257
 -6 1492 l 257
 2054 1492 l 257
 2054 1553 l 257
 -6 1553 l 257
1928 1544 m 257
 1868 1544 l 257
 1868 194 l 257
 1928 194 l 257
 1928 1544 l 257
38 760 m 257
 38 194 l 257
 98 194 l 257
 98 760 l 257
 38 760 l 257
38 782 m 257
 38 722 l 257
 1906 722 l 257
 1906 782 l 257
 38 782 l 257
954 753 m 257
 954 214 l 257
 1014 214 l 257
 1014 753 l 257
 954 753 l 257
40 251 m 257
 40 191 l 257
 1928 191 l 257
 1928 251 l 257
 40 251 l 257
EndSplineSet
EndChar

StartChar: uni0933_uni0930_uni094D.vatu
Encoding: 65639 -1 511
GlifName: uni0933_uni0930_uni094D_.vatu
Width: 2048
VWidth: 0
Flags: W
LayerCount: 2
Fore
SplineSet
960 113 m 257
 1143 -226 l 257
 1211 -226 l 257
 1004 180 l 257
 960 113 l 257
1004 180 m 257
 744 -213 l 257
 812 -213 l 257
 1034 121 l 257
 1004 180 l 257
-6 1553 m 257
 -6 1492 l 257
 2054 1492 l 257
 2054 1553 l 257
 -6 1553 l 257
1928 1544 m 257
 1868 1544 l 257
 1868 194 l 257
 1928 194 l 257
 1928 1544 l 257
38 760 m 257
 38 194 l 257
 98 194 l 257
 98 760 l 257
 38 760 l 257
38 782 m 257
 38 722 l 257
 1906 722 l 257
 1906 782 l 257
 38 782 l 257
954 753 m 257
 954 214 l 257
 1014 214 l 257
 1014 753 l 257
 954 753 l 257
40 251 m 257
 40 191 l 257
 1928 191 l 257
 1928 251 l 257
 40 251 l 257
EndSplineSet
EndChar

StartChar: uni0933_uni094D.half
Encoding: 65640 -1 512
GlifName: uni0933_uni094D_.half
Width: 2048
VWidth: 0
Flags: W
LayerCount: 2
Fore
SplineSet
-6 1553 m 257
 -6 1492 l 257
 2054 1492 l 257
 2054 1553 l 257
 -6 1553 l 257
1928 782 m 257
 1868 782 l 257
 1868 194 l 257
 1928 194 l 257
 1928 782 l 257
38 760 m 257
 38 194 l 257
 98 194 l 257
 98 760 l 257
 38 760 l 257
38 782 m 257
 38 722 l 257
 1906 722 l 257
 1906 782 l 257
 38 782 l 257
954 753 m 257
 954 214 l 257
 1014 214 l 257
 1014 753 l 257
 954 753 l 257
40 251 m 257
 40 191 l 257
 1928 191 l 257
 1928 251 l 257
 40 251 l 257
EndSplineSet
EndChar

StartChar: uni0934
Encoding: 2356 2356 514
GlifName: uni0934
Width: 2048
VWidth: 0
Flags: W
LayerCount: 2
Fore
SplineSet
0 1553 m 257
 0 1492 l 257
 2059 1492 l 257
 2059 1553 l 257
 0 1553 l 257
1934 1544 m 257
 1874 1544 l 257
 1874 194 l 257
 1934 194 l 257
 1934 1544 l 257
43 760 m 257
 43 194 l 257
 103 194 l 257
 103 760 l 257
 43 760 l 257
43 782 m 257
 43 722 l 257
 1912 722 l 257
 1912 782 l 257
 43 782 l 257
959 753 m 257
 959 214 l 257
 1019 214 l 257
 1019 753 l 257
 959 753 l 257
45 251 m 257
 45 191 l 257
 1934 191 l 257
 1934 251 l 257
 45 251 l 257
1041 -14 m 257
 1041 -128 l 257
 1184 -128 l 257
 1184 -14 l 257
 1041 -14 l 257
EndSplineSet
EndChar

StartChar: uni0934_uni0930_uni094D.vatu
Encoding: 65642 -1 515
GlifName: uni0934_uni0930_uni094D_.vatu
Width: 2048
VWidth: 0
Flags: W
LayerCount: 2
Fore
SplineSet
960 104 m 257
 1143 -235 l 257
 1211 -235 l 257
 1004 171 l 257
 960 104 l 257
1004 171 m 257
 744 -222 l 257
 812 -222 l 257
 1034 112 l 257
 1004 171 l 257
0 1553 m 257
 0 1492 l 257
 2059 1492 l 257
 2059 1553 l 257
 0 1553 l 257
1934 1544 m 257
 1874 1544 l 257
 1874 194 l 257
 1934 194 l 257
 1934 1544 l 257
43 760 m 257
 43 194 l 257
 103 194 l 257
 103 760 l 257
 43 760 l 257
43 782 m 257
 43 722 l 257
 1912 722 l 257
 1912 782 l 257
 43 782 l 257
959 753 m 257
 959 214 l 257
 1019 214 l 257
 1019 753 l 257
 959 753 l 257
45 251 m 257
 45 191 l 257
 1934 191 l 257
 1934 251 l 257
 45 251 l 257
163 114 m 257
 163 0 l 257
 306 0 l 257
 306 114 l 257
 163 114 l 257
EndSplineSet
EndChar

StartChar: uni0934_uni094D.half
Encoding: 65643 -1 516
GlifName: uni0934_uni094D_.half
Width: 2048
VWidth: 0
Flags: W
LayerCount: 2
Fore
SplineSet
0 1553 m 257
 0 1492 l 257
 2059 1492 l 257
 2059 1553 l 257
 0 1553 l 257
1934 785 m 257
 1874 785 l 257
 1874 194 l 257
 1934 194 l 257
 1934 785 l 257
43 760 m 257
 43 194 l 257
 103 194 l 257
 103 760 l 257
 43 760 l 257
43 782 m 257
 43 722 l 257
 1912 722 l 257
 1912 782 l 257
 43 782 l 257
959 753 m 257
 959 214 l 257
 1019 214 l 257
 1019 753 l 257
 959 753 l 257
45 251 m 257
 45 191 l 257
 1934 191 l 257
 1934 251 l 257
 45 251 l 257
1041 -14 m 257
 1041 -128 l 257
 1184 -128 l 257
 1184 -14 l 257
 1041 -14 l 257
EndSplineSet
EndChar

StartChar: uni0935
Encoding: 2357 2357 518
GlifName: uni0935
Width: 2048
VWidth: 0
Flags: W
LayerCount: 2
Fore
SplineSet
0 1550 m 257
 0 1490 l 257
 2048 1490 l 257
 2048 1550 l 257
 0 1550 l 257
1824 1519 m 257
 1824 -25 l 257
 1884 -25 l 257
 1884 1519 l 257
 1824 1519 l 257
76 1023 m 257
 76 232 l 257
 136 232 l 257
 136 1023 l 257
 76 1023 l 257
78 264 m 257
 78 204 l 257
 1834 204 l 257
 1834 264 l 257
 78 264 l 257
76 1026 m 257
 76 965 l 257
 1126 965 l 257
 1126 1026 l 257
 76 1026 l 257
EndSplineSet
EndChar

StartChar: uni0935_uni0930_uni094D.vatu
Encoding: 65645 -1 519
GlifName: uni0935_uni0930_uni094D_.vatu
Width: 2048
VWidth: 0
Flags: W
LayerCount: 2
Fore
SplineSet
169 0 m 257
 426 0 l 257
 1843 357 l 257
 1843 416 l 257
 169 0 l 257
0 1550 m 257
 0 1490 l 257
 2048 1490 l 257
 2048 1550 l 257
 0 1550 l 257
1824 1519 m 257
 1824 -25 l 257
 1884 -25 l 257
 1884 1519 l 257
 1824 1519 l 257
76 1321 m 257
 76 532 l 257
 136 532 l 257
 136 1321 l 257
 76 1321 l 257
78 564 m 257
 78 504 l 257
 1834 504 l 257
 1834 564 l 257
 78 564 l 257
76 1326 m 257
 76 1265 l 257
 1126 1265 l 257
 1126 1326 l 257
 76 1326 l 257
EndSplineSet
EndChar

StartChar: uni0935_uni094D.half
Encoding: 65646 -1 520
GlifName: uni0935_uni094D_.half
Width: 2048
VWidth: 0
Flags: W
LayerCount: 2
Fore
SplineSet
0 1550 m 257
 0 1490 l 257
 2048 1490 l 257
 2048 1550 l 257
 0 1550 l 257
376 1023 m 257
 376 232 l 257
 436 232 l 257
 436 1023 l 257
 376 1023 l 257
378 264 m 257
 378 204 l 257
 2134 204 l 257
 2134 264 l 257
 378 264 l 257
376 1026 m 257
 376 965 l 257
 1426 965 l 257
 1426 1026 l 257
 376 1026 l 257
EndSplineSet
EndChar

StartChar: uni0936
Encoding: 2358 2358 522
GlifName: uni0936
Width: 2048
VWidth: 0
Flags: W
LayerCount: 2
Fore
SplineSet
1221 1553 m 257
 1221 1494 l 257
 1998 1494 l 257
 1998 1553 l 257
 1221 1553 l 257
1887 1520 m 257
 1887 -4 l 257
 1949 -4 l 257
 1949 1520 l 257
 1887 1520 l 257
50 1543 m 257
 50 1224 l 257
 110 1224 l 257
 110 1543 l 257
 50 1543 l 257
50 1553 m 257
 50 1494 l 257
 1033 1494 l 257
 1033 1553 l 257
 50 1553 l 257
1009 1553 m 257
 1009 963 l 257
 1069 963 l 257
 1069 1553 l 257
 1009 1553 l 257
113 1023 m 257
 113 963 l 257
 1060 963 l 257
 1060 1023 l 257
 113 1023 l 257
113 963 m 257
 942 8 l 257
 999 28 l 257
 191 963 l 257
 113 963 l 257
EndSplineSet
EndChar

StartChar: uni0936_uni0930_uni094D.vatu
Encoding: 65648 -1 523
GlifName: uni0936_uni0930_uni094D_.vatu
Width: 2048
VWidth: 0
Flags: W
LayerCount: 2
Fore
SplineSet
182 0 m 257
 284 0 l 257
 1949 474 l 257
 1949 556 l 257
 182 0 l 257
1795 1550 m 257
 1795 1489 l 257
 2048 1489 l 257
 2048 1550 l 257
 1795 1550 l 257
1938 1520 m 257
 1938 -4 l 257
 1999 -4 l 257
 1999 1520 l 257
 1938 1520 l 257
100 1543 m 257
 100 1224 l 257
 160 1224 l 257
 160 1543 l 257
 100 1543 l 257
100 1550 m 257
 100 1489 l 257
 1087 1489 l 257
 1087 1550 l 257
 100 1550 l 257
1059 1550 m 257
 1059 949 l 257
 1119 949 l 257
 1119 1550 l 257
 1059 1550 l 257
228 670 m 257
 274 630 l 257
 1113 956 l 257
 1061 994 l 257
 228 670 l 257
100 1224 m 257
 1952 674 l 257
 1982 746 l 257
 160 1224 l 257
 100 1224 l 257
EndSplineSet
EndChar

StartChar: uni0936_uni094D.half
Encoding: 65649 -1 524
GlifName: uni0936_uni094D_.half
Width: 2048
VWidth: 0
Flags: W
LayerCount: 2
Fore
SplineSet
350 1543 m 257
 350 1224 l 257
 410 1224 l 257
 410 1543 l 257
 350 1543 l 257
350 1553 m 257
 350 1494 l 257
 1333 1494 l 257
 1333 1553 l 257
 350 1553 l 257
1309 1553 m 257
 1309 963 l 257
 1369 963 l 257
 1369 1553 l 257
 1309 1553 l 257
413 1023 m 257
 413 963 l 257
 1360 963 l 257
 1360 1023 l 257
 413 1023 l 257
413 963 m 257
 1242 8 l 257
 1299 28 l 257
 491 963 l 257
 413 963 l 257
EndSplineSet
EndChar

StartChar: uni0937
Encoding: 2359 2359 526
GlifName: uni0937
Width: 2048
VWidth: 0
Flags: W
LayerCount: 2
Fore
SplineSet
-4 1550 m 257
 -4 1491 l 257
 2052 1491 l 257
 2052 1550 l 257
 -4 1550 l 257
1851 1539 m 257
 1851 0 l 257
 1912 0 l 257
 1912 1539 l 257
 1851 1539 l 257
98 1550 m 257
 98 965 l 257
 158 965 l 257
 158 1550 l 257
 98 1550 l 257
98 1023 m 257
 98 966 l 257
 1878 966 l 257
 1878 1023 l 257
 98 1023 l 257
98 1522 m 257
 1766 971 l 257
 1913 971 l 257
 329 1522 l 257
 98 1522 l 257
EndSplineSet
EndChar

StartChar: uni0937_uni0930_uni094D.vatu
Encoding: 65651 -1 527
GlifName: uni0937_uni0930_uni094D_.vatu
Width: 2048
VWidth: 0
Flags: W
LayerCount: 2
Fore
SplineSet
201 6 m 257
 458 6 l 257
 1875 363 l 257
 1875 422 l 257
 201 6 l 257
-4 1550 m 257
 -4 1491 l 257
 2052 1491 l 257
 2052 1550 l 257
 -4 1550 l 257
1851 1539 m 257
 1851 0 l 257
 1912 0 l 257
 1912 1539 l 257
 1851 1539 l 257
98 1550 m 257
 98 965 l 257
 158 965 l 257
 158 1550 l 257
 98 1550 l 257
98 1023 m 257
 98 966 l 257
 1878 966 l 257
 1878 1023 l 257
 98 1023 l 257
98 1522 m 257
 1766 971 l 257
 1913 971 l 257
 329 1522 l 257
 98 1522 l 257
EndSplineSet
EndChar

StartChar: uni0937_uni094D.half
Encoding: 65652 -1 528
GlifName: uni0937_uni094D_.half
Width: 2048
VWidth: 0
Flags: W
LayerCount: 2
Fore
SplineSet
-4 1550 m 257
 -4 1491 l 257
 2052 1491 l 257
 2052 1550 l 257
 -4 1550 l 257
398 1550 m 257
 398 965 l 257
 458 965 l 257
 458 1550 l 257
 398 1550 l 257
398 1023 m 257
 398 966 l 257
 2178 966 l 257
 2178 1023 l 257
 398 1023 l 257
398 1522 m 257
 2066 971 l 257
 2213 971 l 257
 629 1522 l 257
 398 1522 l 257
EndSplineSet
EndChar

StartChar: uni0938
Encoding: 2360 2360 530
GlifName: uni0938
Width: 2048
VWidth: 0
Flags: W
LayerCount: 2
Fore
SplineSet
0 1550 m 257
 0 1491 l 257
 2049 1491 l 257
 2049 1550 l 257
 0 1550 l 257
1876 1544 m 257
 1876 0 l 257
 1935 0 l 257
 1935 1544 l 257
 1876 1544 l 257
157 1509 m 257
 157 719 l 257
 218 719 l 257
 218 1509 l 257
 157 1509 l 257
157 720 m 257
 157 659 l 257
 1883 659 l 257
 1883 720 l 257
 157 720 l 257
157 659 m 257
 630 0 l 257
 697 0 l 257
 221 659 l 257
 157 659 l 257
EndSplineSet
EndChar

StartChar: uni0938_uni0930_uni094D.vatu
Encoding: 65654 -1 531
GlifName: uni0938_uni0930_uni094D_.vatu
Width: 2048
VWidth: 0
Flags: W
LayerCount: 2
Fore
SplineSet
918 0 m 257
 1059 0 l 257
 1902 353 l 257
 1902 412 l 257
 918 0 l 257
0 1550 m 257
 0 1491 l 257
 2049 1491 l 257
 2049 1550 l 257
 0 1550 l 257
1876 1544 m 257
 1876 0 l 257
 1935 0 l 257
 1935 1544 l 257
 1876 1544 l 257
157 1509 m 257
 157 719 l 257
 218 719 l 257
 218 1509 l 257
 157 1509 l 257
157 720 m 257
 157 659 l 257
 1883 659 l 257
 1883 720 l 257
 157 720 l 257
157 659 m 257
 630 0 l 257
 697 0 l 257
 221 659 l 257
 157 659 l 257
EndSplineSet
EndChar

StartChar: uni0938_uni094D.half
Encoding: 65655 -1 532
GlifName: uni0938_uni094D_.half
Width: 2048
VWidth: 0
Flags: W
LayerCount: 2
Fore
SplineSet
0 1550 m 257
 0 1491 l 257
 2049 1491 l 257
 2049 1550 l 257
 0 1550 l 257
409 1509 m 257
 409 719 l 257
 470 719 l 257
 470 1509 l 257
 409 1509 l 257
409 720 m 257
 409 659 l 257
 2135 659 l 257
 2135 720 l 257
 409 720 l 257
409 659 m 257
 882 0 l 257
 949 0 l 257
 473 659 l 257
 409 659 l 257
EndSplineSet
EndChar

StartChar: uni0939
Encoding: 2361 2361 534
GlifName: uni0939
Width: 2048
VWidth: 0
Flags: W
LayerCount: 2
Fore
SplineSet
-4 1553 m 257
 -4 1494 l 257
 2052 1494 l 257
 2052 1553 l 257
 -4 1553 l 257
1298 1514 m 257
 1298 1174 l 257
 1358 1174 l 257
 1358 1514 l 257
 1298 1514 l 257
1370 1196 m 257
 858 1196 l 257
 858 1135 l 257
 1370 1135 l 257
 1370 1196 l 257
854 1188 m 257
 854 784 l 257
 934 784 l 257
 934 1188 l 257
 854 1188 l 257
1542 789 m 257
 1542 577 l 257
 1602 577 l 257
 1602 789 l 257
 1542 789 l 257
142 841 m 257
 142 781 l 257
 1602 781 l 257
 1602 841 l 257
 142 841 l 257
142 793 m 257
 142 215 l 257
 202 215 l 257
 202 793 l 257
 142 793 l 257
202 216 m 257
 140 216 l 257
 724 4 l 257
 754 53 l 257
 202 216 l 257
EndSplineSet
EndChar

StartChar: uni0939_uni0930_uni094D.vatu
Encoding: 65657 -1 535
GlifName: uni0939_uni0930_uni094D_.vatu
Width: 2048
VWidth: 0
Flags: W
LayerCount: 2
Fore
SplineSet
566 370 m 257
 823 370 l 257
 1593 569 l 257
 1593 628 l 257
 566 370 l 257
-4 1553 m 257
 -4 1494 l 257
 2052 1494 l 257
 2052 1553 l 257
 -4 1553 l 257
1298 1514 m 257
 1298 1174 l 257
 1358 1174 l 257
 1358 1514 l 257
 1298 1514 l 257
1370 1196 m 257
 858 1196 l 257
 858 1135 l 257
 1370 1135 l 257
 1370 1196 l 257
854 1188 m 257
 854 784 l 257
 934 784 l 257
 934 1188 l 257
 854 1188 l 257
1542 789 m 257
 1542 577 l 257
 1602 577 l 257
 1602 789 l 257
 1542 789 l 257
142 841 m 257
 142 781 l 257
 1602 781 l 257
 1602 841 l 257
 142 841 l 257
142 793 m 257
 142 215 l 257
 202 215 l 257
 202 793 l 257
 142 793 l 257
202 216 m 257
 140 216 l 257
 724 4 l 257
 754 53 l 257
 202 216 l 257
EndSplineSet
EndChar

StartChar: uni0939_uni0943.blws
Encoding: 65658 -1 536
GlifName: uni0939_uni0943.blws
Width: 2048
VWidth: 0
Flags: W
LayerCount: 2
Fore
SplineSet
1221 791 m 257
 1221 446 l 257
 1281 446 l 257
 1281 791 l 257
 1221 791 l 257
1260 506 m 257
 1260 446 l 257
 1881 446 l 257
 1881 506 l 257
 1260 506 l 257
-6 1548 m 257
 -6 1488 l 257
 2049 1488 l 257
 2049 1548 l 257
 -6 1548 l 257
1102 1510 m 257
 1102 1034 l 257
 1162 1034 l 257
 1162 1510 l 257
 1102 1510 l 257
1163 1056 m 257
 622 1056 l 257
 622 996 l 257
 1163 996 l 257
 1163 1056 l 257
621 1055 m 257
 621 785 l 257
 681 785 l 257
 681 1055 l 257
 621 1055 l 257
139 841 m 257
 139 781 l 257
 1830 781 l 257
 1830 841 l 257
 139 841 l 257
139 793 m 257
 139 215 l 257
 199 215 l 257
 199 793 l 257
 139 793 l 257
200 215 m 257
 139 215 l 257
 901 0 l 257
 970 0 l 257
 200 215 l 257
EndSplineSet
EndChar

StartChar: uni0939_uni094D.half
Encoding: 65659 -1 537
GlifName: uni0939_uni094D_.half
Width: 2048
VWidth: 0
Flags: W
LayerCount: 2
Fore
SplineSet
-4 1553 m 257
 -4 1494 l 257
 2052 1494 l 257
 2052 1553 l 257
 -4 1553 l 257
1298 1514 m 257
 1298 1174 l 257
 1358 1174 l 257
 1358 1514 l 257
 1298 1514 l 257
1370 1196 m 257
 858 1196 l 257
 858 1135 l 257
 1370 1135 l 257
 1370 1196 l 257
854 1188 m 257
 854 784 l 257
 934 784 l 257
 934 1188 l 257
 854 1188 l 257
142 841 m 257
 142 781 l 257
 2130 781 l 257
 2130 841 l 257
 142 841 l 257
142 793 m 257
 142 215 l 257
 202 215 l 257
 202 793 l 257
 142 793 l 257
202 216 m 257
 140 216 l 257
 724 4 l 257
 754 53 l 257
 202 216 l 257
EndSplineSet
EndChar

StartChar: uni0939_uni094D_uni092E.pres
Encoding: 65661 -1 539
GlifName: uni0939_uni094D__uni092E_.pres
Width: 2048
VWidth: 0
Flags: W
LayerCount: 2
Fore
SplineSet
-6 1550 m 257
 -6 1490 l 257
 2049 1490 l 257
 2049 1550 l 257
 -6 1550 l 257
1105 1510 m 257
 1105 1174 l 257
 1164 1174 l 257
 1164 1510 l 257
 1105 1510 l 257
1167 1196 m 257
 851 1196 l 257
 851 1137 l 257
 1167 1137 l 257
 1167 1196 l 257
851 1195 m 257
 851 785 l 257
 912 785 l 257
 912 1195 l 257
 851 1195 l 257
1438 789 m 257
 1438 29 l 257
 1499 29 l 257
 1499 789 l 257
 1438 789 l 257
109 841 m 257
 109 783 l 257
 1499 783 l 257
 1499 841 l 257
 109 841 l 257
109 793 m 257
 109 304 l 257
 169 316 l 257
 169 793 l 257
 109 793 l 257
1121 60 m 257
 1121 0 l 257
 1499 0 l 257
 1499 60 l 257
 1121 60 l 257
1121 297 m 257
 1121 36 l 257
 1183 36 l 257
 1183 297 l 257
 1121 297 l 257
1918 1543 m 257
 1918 0 l 257
 1979 0 l 257
 1979 1543 l 257
 1918 1543 l 257
1130 297 m 257
 1130 238 l 257
 1941 238 l 257
 1941 297 l 257
 1130 297 l 257
170 316 m 257
 109 304 l 257
 477 -3 l 257
 556 -3 l 257
 170 316 l 257
EndSplineSet
EndChar

StartChar: uni093A
Encoding: 2362 2362 540
GlifName: uni093A_
Width: 2048
VWidth: 0
Flags: W
LayerCount: 2
Fore
SplineSet
995 1633 m 257
 995 1090 l 257
 1053 1090 l 257
 1053 1633 l 257
 995 1633 l 257
EndSplineSet
EndChar

StartChar: uni093B
Encoding: 2363 2363 541
GlifName: uni093B_
Width: 2048
VWidth: 0
Flags: W
LayerCount: 2
Fore
SplineSet
1088 1550 m 257
 1088 4 l 257
 1148 4 l 257
 1148 1550 l 257
 1088 1550 l 257
30 1085 m 257
 30 1023 l 257
 2018 1023 l 257
 2018 1085 l 257
 30 1085 l 257
EndSplineSet
EndChar

StartChar: uni093C
Encoding: 2364 2364 542
GlifName: uni093C_
Width: 2048
VWidth: 0
Flags: W
LayerCount: 2
Fore
SplineSet
-702 -260 m 257
 -702 -374 l 257
 -558 -374 l 257
 -558 -260 l 257
 -702 -260 l 257
EndSplineSet
EndChar

StartChar: uni093D
Encoding: 2365 2365 543
GlifName: uni093D_
Width: 2048
VWidth: 0
Flags: W
LayerCount: 2
Fore
SplineSet
189 1264 m 257
 189 1195 l 257
 2048 1195 l 257
 2048 1264 l 257
 189 1264 l 257
187 1197 m 257
 1954 258 l 257
 2018 269 l 257
 261 1197 l 257
 187 1197 l 257
308 269 m 257
 300 206 l 257
 2018 206 l 257
 2018 269 l 257
 308 269 l 257
0 460 m 257
 299 107 l 257
 311 176 l 257
 48 498 l 257
 0 460 l 257
EndSplineSet
EndChar

StartChar: uni093E
Encoding: 2366 2366 544
GlifName: uni093E_
Width: 2048
VWidth: 0
Flags: W
LayerCount: 2
Fore
SplineSet
-3 1550 m 257
 -3 1491 l 257
 2051 1491 l 257
 2051 1550 l 257
 -3 1550 l 257
991 1514 m 257
 991 0 l 257
 1050 0 l 257
 1050 1514 l 257
 991 1514 l 257
EndSplineSet
EndChar

StartChar: uni093F
Encoding: 2367 2367 546
GlifName: uni093F_
Width: 2048
VWidth: 0
Flags: W
LayerCount: 2
Fore
SplineSet
0 1550 m 257
 0 1490 l 257
 2034 1490 l 257
 2034 1550 l 257
 0 1550 l 257
878 1937 m 257
 878 0 l 257
 940 0 l 257
 940 1937 l 257
 878 1937 l 257
900 1937 m 257
 900 1878 l 257
 2408 1878 l 257
 2408 1937 l 257
 900 1937 l 257
2344 1937 m 257
 2344 1646 l 257
 2408 1646 l 257
 2408 1937 l 257
 2344 1937 l 257
EndSplineSet
EndChar

StartChar: uni0940
Encoding: 2368 2368 547
GlifName: uni0940
Width: 2048
VWidth: 0
Flags: W
LayerCount: 2
Fore
SplineSet
0 1550 m 257
 0 1489 l 257
 2048 1489 l 257
 2048 1550 l 257
 0 1550 l 257
1075 1867 m 257
 1075 12 l 257
 1135 12 l 257
 1135 1867 l 257
 1075 1867 l 257
1135 1827 m 257
 1135 1895 l 257
 -594 1895 l 257
 -594 1827 l 257
 1135 1827 l 257
-605 1895 m 257
 -605 1563 l 257
 -545 1563 l 257
 -545 1895 l 257
 -605 1895 l 257
EndSplineSet
EndChar

StartChar: uni0941
Encoding: 2369 2369 550
GlifName: uni0941
Width: 2048
VWidth: 0
Flags: W
LayerCount: 2
Fore
SplineSet
0 1553 m 257
 0 1493 l 257
 2048 1493 l 257
 2048 1553 l 257
 0 1553 l 257
-450 -23 m 257
 -450 -83 l 257
 -20 -83 l 257
 -20 -23 l 257
 -450 -23 l 257
-80 -40 m 257
 -80 -458 l 257
 -20 -458 l 257
 -20 -40 l 257
 -80 -40 l 257
-1118 -406 m 257
 -1118 -467 l 257
 -20 -467 l 257
 -20 -406 l 257
 -1118 -406 l 257
-1118 -183 m 257
 -1118 -448 l 257
 -1058 -448 l 257
 -1058 -183 l 257
 -1118 -183 l 257
EndSplineSet
EndChar

StartChar: uni0942
Encoding: 2370 2370 553
GlifName: uni0942
Width: 2048
VWidth: 0
Flags: W
LayerCount: 2
Fore
SplineSet
-20 1559 m 257
 -20 1499 l 257
 2048 1499 l 257
 2048 1559 l 257
 -20 1559 l 257
-1108 -287 m 257
 -1108 -226 l 257
 -1290 -226 l 257
 -1290 -287 l 257
 -1108 -287 l 257
-1234 -289 m 257
 -1234 0 l 257
 -1296 0 l 257
 -1296 -289 l 257
 -1234 -289 l 257
-1296 0 m 257
 -1296 -61 l 257
 -480 -61 l 257
 -480 0 l 257
 -1296 0 l 257
-480 -61 m 257
 -190 -409 l 257
 -110 -409 l 257
 -480 0 l 257
 -480 -61 l 257
EndSplineSet
EndChar

StartChar: uni0943
Encoding: 2371 2371 556
GlifName: uni0943
Width: 2048
VWidth: 0
Flags: W
LayerCount: 2
Fore
SplineSet
0 1550 m 257
 0 1490 l 257
 2048 1490 l 257
 2048 1550 l 257
 0 1550 l 257
-295 9 m 257
 -1077 -133 l 257
 -1051 -188 l 257
 -270 -46 l 257
 -295 9 l 257
-1086 -132 m 257
 -908 -611 l 257
 -843 -591 l 257
 -1021 -112 l 257
 -1086 -132 l 257
-917 -591 m 257
 -896 -643 l 257
 -40 -464 l 257
 -71 -420 l 257
 -917 -591 l 257
EndSplineSet
EndChar

StartChar: uni0944
Encoding: 2372 2372 559
GlifName: uni0944
Width: 2048
VWidth: 0
Flags: W
LayerCount: 2
Fore
SplineSet
-54 1553 m 257
 -54 1494 l 257
 2048 1494 l 257
 2048 1553 l 257
 -54 1553 l 257
-256 -7 m 257
 -1014 -107 l 257
 -998 -165 l 257
 -238 -64 l 257
 -256 -7 l 257
-1040 -116 m 257
 -804 -958 l 257
 -746 -942 l 257
 -982 -99 l 257
 -1040 -116 l 257
-894 -496 m 257
 -876 -556 l 257
 -104 -451 l 257
 -120 -391 l 257
 -894 -496 l 257
-776 -888 m 257
 -764 -947 l 257
 14 -841 l 257
 0 -782 l 257
 -776 -888 l 257
EndSplineSet
EndChar

StartChar: uni0945
Encoding: 2373 2373 562
GlifName: uni0945
Width: 2048
VWidth: 0
Flags: W
LayerCount: 2
Fore
SplineSet
-5 1553 m 257
 -5 1493 l 257
 2050 1493 l 257
 2050 1553 l 257
 -5 1553 l 257
-1082 2109 m 257
 -1082 1624 l 257
 -1023 1624 l 257
 -1023 2109 l 257
 -1082 2109 l 257
-1036 1687 m 257
 -1036 1626 l 257
 -308 1626 l 257
 -308 1687 l 257
 -1036 1687 l 257
-344 2117 m 257
 -344 1626 l 257
 -284 1626 l 257
 -284 2117 l 257
 -344 2117 l 257
EndSplineSet
EndChar

StartChar: uni0946
Encoding: 2374 2374 565
GlifName: uni0946
Width: 2048
VWidth: 0
Flags: W
LayerCount: 2
Fore
SplineSet
-72 1553 m 257
 -72 1493 l 257
 2048 1493 l 257
 2048 1553 l 257
 -72 1553 l 257
-814 2062 m 257
 -814 1823 l 257
 -752 1823 l 257
 -752 2062 l 257
 -814 2062 l 257
-814 1866 m 257
 -814 1809 l 257
 168 1809 l 257
 168 1866 l 257
 -814 1866 l 257
112 1858 m 257
 112 1540 l 257
 172 1540 l 257
 172 1858 l 257
 112 1858 l 257
EndSplineSet
EndChar

StartChar: uni0947
Encoding: 2375 2375 568
GlifName: uni0947
Width: 2048
VWidth: 0
Flags: W
LayerCount: 2
Fore
SplineSet
-90 1553 m 257
 -90 1493 l 257
 2049 1493 l 257
 2049 1553 l 257
 -90 1553 l 257
-697 1962 m 257
 0 1547 l 257
 105 1547 l 257
 -611 1998 l 257
 -697 1962 l 257
EndSplineSet
EndChar

StartChar: uni0948
Encoding: 2376 2376 571
GlifName: uni0948
Width: 2048
VWidth: 0
Flags: W
LayerCount: 2
Fore
SplineSet
0 1553 m 257
 0 1494 l 257
 2048 1494 l 257
 2048 1553 l 257
 0 1553 l 257
-810 1771 m 257
 36 1544 l 257
 172 1544 l 257
 -738 1867 l 257
 -810 1771 l 257
-328 1991 m 257
 222 1522 l 257
 298 1547 l 257
 -258 2030 l 257
 -328 1991 l 257
EndSplineSet
EndChar

StartChar: uni0949
Encoding: 2377 2377 574
GlifName: uni0949
Width: 2048
VWidth: 0
Flags: W
LayerCount: 2
Fore
SplineSet
0 1550 m 257
 0 1487 l 257
 2048 1487 l 257
 2048 1550 l 257
 0 1550 l 257
988 1504 m 257
 988 0 l 257
 1048 0 l 257
 1048 1504 l 257
 988 1504 l 257
248 2085 m 257
 248 1639 l 257
 308 1639 l 257
 308 2085 l 257
 248 2085 l 257
254 1701 m 257
 254 1641 l 257
 1792 1641 l 257
 1792 1701 l 257
 254 1701 l 257
1722 2083 m 257
 1722 1641 l 257
 1792 1641 l 257
 1792 2083 l 257
 1722 2083 l 257
EndSplineSet
EndChar

StartChar: uni094A
Encoding: 2378 2378 577
GlifName: uni094A_
Width: 2048
VWidth: 0
Flags: W
LayerCount: 2
Fore
SplineSet
-79 1553 m 257
 -79 1496 l 257
 2048 1496 l 257
 2048 1553 l 257
 -79 1553 l 257
1005 1518 m 257
 1005 0 l 257
 1066 0 l 257
 1066 1518 l 257
 1005 1518 l 257
-728 2062 m 257
 -728 1823 l 257
 -667 1823 l 257
 -667 2062 l 257
 -728 2062 l 257
-729 1866 m 257
 -729 1809 l 257
 1053 1809 l 257
 1053 1866 l 257
 -729 1866 l 257
993 1863 m 257
 993 1545 l 257
 1053 1545 l 257
 1053 1863 l 257
 993 1863 l 257
EndSplineSet
EndChar

StartChar: uni094B
Encoding: 2379 2379 580
GlifName: uni094B_
Width: 2048
VWidth: 0
Flags: W
LayerCount: 2
Fore
SplineSet
-28 1550 m 257
 -28 1488 l 257
 2049 1488 l 257
 2049 1550 l 257
 -28 1550 l 257
1010 1509 m 257
 1010 5 l 257
 1070 5 l 257
 1070 1509 l 257
 1010 1509 l 257
-58 2053 m 257
 946 1512 l 257
 992 1550 l 257
 -12 2092 l 257
 -58 2053 l 257
EndSplineSet
EndChar

StartChar: uni094C
Encoding: 2380 2380 583
GlifName: uni094C_
Width: 2048
VWidth: 0
Flags: W
LayerCount: 2
Fore
SplineSet
-59 1553 m 257
 -59 1494 l 257
 2049 1494 l 257
 2049 1553 l 257
 -59 1553 l 257
1011 1503 m 257
 1011 0 l 257
 1072 0 l 257
 1072 1503 l 257
 1011 1503 l 257
-205 1828 m 257
 871 1545 l 257
 964 1545 l 257
 -117 1845 l 257
 -205 1828 l 257
192 1887 m 257
 1000 1541 l 257
 1076 1541 l 257
 263 1909 l 257
 192 1887 l 257
EndSplineSet
EndChar

StartChar: uni094D
Encoding: 2381 2381 586
GlifName: uni094D_
Width: 2048
VWidth: 0
Flags: W
LayerCount: 2
Fore
SplineSet
-277 -16 m 257
 -277 -77 l 257
 67 -77 l 257
 67 -16 l 257
 -277 -16 l 257
38 -71 m 257
 529 -418 l 257
 559 -366 l 257
 67 -15 l 257
 38 -71 l 257
-19 1550 m 257
 -19 1489 l 257
 2049 1489 l 257
 2049 1550 l 257
 -19 1550 l 257
EndSplineSet
EndChar

StartChar: uni094E
Encoding: 2382 2382 587
GlifName: uni094E_
Width: 2048
VWidth: 0
Flags: W
LayerCount: 2
Fore
SplineSet
864 1553 m 257
 864 0 l 257
 924 0 l 257
 924 1553 l 257
 864 1553 l 257
882 1553 m 257
 882 1495 l 257
 1184 1495 l 257
 1184 1553 l 257
 882 1553 l 257
EndSplineSet
EndChar

StartChar: uni094F
Encoding: 2383 2383 588
GlifName: uni094F_
Width: 2048
VWidth: 0
Flags: W
LayerCount: 2
Fore
SplineSet
-79 1553 m 257
 -79 1496 l 257
 2048 1496 l 257
 2048 1553 l 257
 -79 1553 l 257
1005 1518 m 257
 1005 0 l 257
 1066 0 l 257
 1066 1518 l 257
 1005 1518 l 257
-329 2062 m 257
 -329 1823 l 257
 -268 1823 l 257
 -268 2062 l 257
 -329 2062 l 257
-330 1866 m 257
 -330 1809 l 257
 1053 1809 l 257
 1053 1866 l 257
 -330 1866 l 257
993 1863 m 257
 993 1545 l 257
 1053 1545 l 257
 1053 1863 l 257
 993 1863 l 257
841 2323 m 257
 789 2064 l 257
 827 2058 l 257
 887 2313 l 257
 841 2323 l 257
801 2121 m 257
 788 2066 l 257
 1430 1922 l 257
 1465 1961 l 257
 801 2121 l 257
1406 1972 m 257
 1073 1550 l 257
 1132 1550 l 257
 1465 1966 l 257
 1406 1972 l 257
EndSplineSet
EndChar

StartChar: uni0950
Encoding: 2384 2384 589
GlifName: uni0950
Width: 2048
VWidth: 0
Flags: W
LayerCount: 2
Fore
SplineSet
1825 894 m 257
 1825 510 l 257
 1886 510 l 257
 1886 894 l 257
 1825 894 l 257
50 1547 m 257
 50 1487 l 257
 940 1487 l 257
 940 1547 l 257
 50 1547 l 257
919 1550 m 257
 919 36 l 257
 980 36 l 257
 980 1550 l 257
 919 1550 l 257
134 894 m 257
 134 834 l 257
 1855 834 l 257
 1855 894 l 257
 134 894 l 257
25 62 m 257
 25 0 l 257
 978 0 l 257
 978 62 l 257
 25 62 l 257
1044 1415 m 257
 1044 986 l 257
 1074 986 l 257
 1074 1415 l 257
 1044 1415 l 257
1064 1016 m 257
 1064 985 l 257
 1967 985 l 257
 1967 1016 l 257
 1064 1016 l 257
1950 1420 m 257
 1950 985 l 257
 1980 985 l 257
 1980 1420 l 257
 1950 1420 l 257
1211 1269 m 257
 1211 1188 l 257
 1828 1188 l 257
 1828 1269 l 257
 1211 1269 l 257
EndSplineSet
EndChar

StartChar: uni0951
Encoding: 2385 2385 590
GlifName: uni0951
Width: 2048
VWidth: 0
Flags: W
LayerCount: 2
Fore
SplineSet
994 1968 m 257
 994 1614 l 257
 1054 1614 l 257
 1054 1968 l 257
 994 1968 l 257
EndSplineSet
EndChar

StartChar: uni0952
Encoding: 2386 2386 591
GlifName: uni0952
Width: 2048
VWidth: 0
Flags: W
LayerCount: 2
Fore
SplineSet
-1438 -225 m 257
 -1438 -285 l 257
 -610 -285 l 257
 -610 -225 l 257
 -1438 -225 l 257
EndSplineSet
EndChar

StartChar: uni0953
Encoding: 2387 2387 592
GlifName: uni0953
Width: 2048
VWidth: 0
Flags: W
LayerCount: 2
Fore
SplineSet
-1180 2289 m 257
 -912 1839 l 257
 -868 1839 l 257
 -1090 2334 l 257
 -1180 2289 l 257
EndSplineSet
EndChar

StartChar: uni0954
Encoding: 2388 2388 593
GlifName: uni0954
Width: 2048
VWidth: 0
Flags: W
LayerCount: 2
Fore
SplineSet
-999 2394 m 257
 -1153 1885 l 257
 -1108 1892 l 257
 -895 2377 l 257
 -999 2394 l 257
EndSplineSet
EndChar

StartChar: uni0955
Encoding: 2389 2389 594
GlifName: uni0955
Width: 2048
VWidth: 0
Flags: W
LayerCount: 2
Fore
SplineSet
-10 1553 m 257
 -10 1493 l 257
 2048 1493 l 257
 2048 1553 l 257
 -10 1553 l 257
-660 2182 m 257
 -660 1697 l 257
 -600 1697 l 257
 -600 2182 l 257
 -660 2182 l 257
-614 1760 m 257
 -614 1699 l 257
 1004 1699 l 257
 1004 1760 l 257
 -614 1760 l 257
968 2190 m 257
 968 1699 l 257
 1028 1699 l 257
 1028 2190 l 257
 968 2190 l 257
-752 1648 m 257
 -752 1588 l 257
 1100 1588 l 257
 1100 1648 l 257
 -752 1648 l 257
EndSplineSet
EndChar

StartChar: uni0956
Encoding: 2390 2390 595
GlifName: uni0956
Width: 2048
VWidth: 0
Flags: W
LayerCount: 2
Fore
SplineSet
-12 1553 m 257
 -12 1493 l 257
 2048 1493 l 257
 2048 1553 l 257
 -12 1553 l 257
-623 0 m 257
 -623 -391 l 257
 -553 -391 l 257
 -553 0 l 257
 -623 0 l 257
-577 -330 m 257
 -577 -390 l 257
 17 -390 l 257
 17 -330 l 257
 -577 -330 l 257
-18 0 m 257
 -18 -391 l 257
 41 -391 l 257
 41 0 l 257
 -18 0 l 257
EndSplineSet
EndChar

StartChar: uni0957
Encoding: 2391 2391 596
GlifName: uni0957
Width: 2048
VWidth: 0
Flags: W
LayerCount: 2
Fore
SplineSet
812 1553 m 257
 812 1493 l 257
 1847 1493 l 257
 1847 1553 l 257
 812 1553 l 257
201 0 m 257
 201 -236 l 257
 271 -236 l 257
 271 0 l 257
 201 0 l 257
247 -175 m 257
 247 -235 l 257
 841 -235 l 257
 841 -175 l 257
 247 -175 l 257
806 0 m 257
 806 -236 l 257
 865 -236 l 257
 865 0 l 257
 806 0 l 257
201 -394 m 257
 201 -639 l 257
 271 -639 l 257
 271 -394 l 257
 201 -394 l 257
247 -578 m 257
 247 -638 l 257
 841 -638 l 257
 841 -578 l 257
 247 -578 l 257
806 -394 m 257
 806 -641 l 257
 865 -641 l 257
 865 -394 l 257
 806 -394 l 257
EndSplineSet
EndChar

StartChar: uni0958
Encoding: 2392 2392 597
GlifName: uni0958
Width: 2048
VWidth: 0
Flags: W
LayerCount: 2
Fore
SplineSet
153 1553 m 257
 153 1469 l 257
 2201 1469 l 257
 2201 1553 l 257
 153 1553 l 257
1263 1518 m 257
 1263 51 l 257
 1317 51 l 257
 1317 1518 l 257
 1263 1518 l 257
334 1069 m 257
 334 1010 l 257
 1021 1010 l 257
 1021 1069 l 257
 334 1069 l 257
323 1068 m 257
 323 604 l 257
 383 604 l 257
 383 1068 l 257
 323 1068 l 257
338 675 m 257
 338 605 l 257
 1310 605 l 257
 1310 675 l 257
 338 675 l 257
1288 999 m 257
 1288 942 l 257
 2065 942 l 257
 2065 999 l 257
 1288 999 l 257
2015 1000 m 257
 2015 779 l 257
 2073 779 l 257
 2073 1000 l 257
 2015 1000 l 257
802 -6 m 257
 802 -120 l 257
 944 -120 l 257
 944 -6 l 257
 802 -6 l 257
EndSplineSet
EndChar

StartChar: uni0958_uni0930_uni094D.vatu
Encoding: 65689 -1 598
GlifName: uni0958_uni0930_uni094D_.vatu
Width: 2048
VWidth: 0
Flags: W
LayerCount: 2
Fore
SplineSet
478 353 m 257
 478 239 l 257
 621 239 l 257
 621 353 l 257
 478 353 l 257
126 0 m 257
 383 0 l 257
 1142 213 l 257
 1142 272 l 257
 126 0 l 257
0 1553 m 257
 0 1469 l 257
 2048 1469 l 257
 2048 1553 l 257
 0 1553 l 257
1110 1518 m 257
 1110 51 l 257
 1164 51 l 257
 1164 1518 l 257
 1110 1518 l 257
181 1069 m 257
 181 1010 l 257
 963 1010 l 257
 963 1069 l 257
 181 1069 l 257
170 1068 m 257
 170 604 l 257
 230 604 l 257
 230 1068 l 257
 170 1068 l 257
185 675 m 257
 185 605 l 257
 1157 605 l 257
 1157 675 l 257
 185 675 l 257
1135 999 m 257
 1135 942 l 257
 1912 942 l 257
 1912 999 l 257
 1135 999 l 257
1862 1000 m 257
 1862 779 l 257
 1920 779 l 257
 1920 1000 l 257
 1862 1000 l 257
EndSplineSet
EndChar

StartChar: uni0958_uni094D.half
Encoding: 65690 -1 599
GlifName: uni0958_uni094D_.half
Width: 2048
VWidth: 0
Flags: W
LayerCount: 2
Fore
SplineSet
0 1553 m 257
 0 1469 l 257
 2048 1469 l 257
 2048 1553 l 257
 0 1553 l 257
1110 1518 m 257
 1110 51 l 257
 1164 51 l 257
 1164 1518 l 257
 1110 1518 l 257
181 1069 m 257
 181 1010 l 257
 980 1010 l 257
 980 1069 l 257
 181 1069 l 257
170 1068 m 257
 170 604 l 257
 230 604 l 257
 230 1068 l 257
 170 1068 l 257
185 675 m 257
 185 605 l 257
 1157 605 l 257
 1157 675 l 257
 185 675 l 257
1135 999 m 257
 1135 942 l 257
 2065 942 l 257
 2065 999 l 257
 1135 999 l 257
648 -6 m 257
 648 -120 l 257
 792 -120 l 257
 792 -6 l 257
 648 -6 l 257
EndSplineSet
EndChar

StartChar: uni0959
Encoding: 2393 2393 601
GlifName: uni0959
Width: 2048
VWidth: 0
Flags: W
LayerCount: 2
Fore
SplineSet
0 1556 m 257
 0 1496 l 257
 2056 1496 l 257
 2056 1556 l 257
 0 1556 l 257
1863 1514 m 257
 1863 0 l 257
 1924 0 l 257
 1924 1514 l 257
 1863 1514 l 257
1037 979 m 257
 1037 919 l 257
 1465 919 l 257
 1465 979 l 257
 1037 979 l 257
1007 979 m 257
 1007 414 l 257
 1068 414 l 257
 1068 979 l 257
 1007 979 l 257
1007 429 m 257
 1007 368 l 257
 1879 368 l 257
 1879 429 l 257
 1007 429 l 257
461 1510 m 257
 461 120 l 257
 522 120 l 257
 522 1510 l 257
 461 1510 l 257
17 714 m 257
 17 654 l 257
 521 654 l 257
 521 714 l 257
 17 714 l 257
461 130 m 257
 461 70 l 257
 1861 70 l 257
 1861 130 l 257
 461 130 l 257
964 -80 m 257
 964 -194 l 257
 1108 -194 l 257
 1108 -80 l 257
 964 -80 l 257
EndSplineSet
EndChar

StartChar: uni0959_uni0930_uni094D.vatu
Encoding: 65692 -1 602
GlifName: uni0959_uni0930_uni094D_.vatu
Width: 2048
VWidth: 0
Flags: W
LayerCount: 2
Fore
SplineSet
430 273 m 257
 430 159 l 257
 573 159 l 257
 573 273 l 257
 430 273 l 257
190 0 m 257
 447 0 l 257
 1864 357 l 257
 1864 416 l 257
 190 0 l 257
-4 1556 m 257
 -4 1496 l 257
 2052 1496 l 257
 2052 1556 l 257
 -4 1556 l 257
1859 1514 m 257
 1859 0 l 257
 1920 0 l 257
 1920 1514 l 257
 1859 1514 l 257
1033 1279 m 257
 1033 1219 l 257
 1461 1219 l 257
 1461 1279 l 257
 1033 1279 l 257
1003 1279 m 257
 1003 714 l 257
 1064 714 l 257
 1064 1279 l 257
 1003 1279 l 257
1003 729 m 257
 1003 668 l 257
 1875 668 l 257
 1875 729 l 257
 1003 729 l 257
457 1510 m 257
 457 420 l 257
 518 420 l 257
 518 1510 l 257
 457 1510 l 257
13 1014 m 257
 13 954 l 257
 517 954 l 257
 517 1014 l 257
 13 1014 l 257
457 430 m 257
 457 370 l 257
 1857 370 l 257
 1857 430 l 257
 457 430 l 257
EndSplineSet
EndChar

StartChar: uni0959_uni094D.half
Encoding: 65693 -1 603
GlifName: uni0959_uni094D_.half
Width: 2048
VWidth: 0
Flags: W
LayerCount: 2
Fore
SplineSet
0 1556 m 257
 0 1496 l 257
 2056 1496 l 257
 2056 1556 l 257
 0 1556 l 257
1037 979 m 257
 1037 919 l 257
 1465 919 l 257
 1465 979 l 257
 1037 979 l 257
1007 979 m 257
 1007 414 l 257
 1068 414 l 257
 1068 979 l 257
 1007 979 l 257
1007 429 m 257
 1007 368 l 257
 2032 368 l 257
 2032 429 l 257
 1007 429 l 257
461 1510 m 257
 461 120 l 257
 522 120 l 257
 522 1510 l 257
 461 1510 l 257
17 714 m 257
 17 654 l 257
 521 654 l 257
 521 714 l 257
 17 714 l 257
461 130 m 257
 461 70 l 257
 2014 70 l 257
 2014 130 l 257
 461 130 l 257
964 -80 m 257
 964 -194 l 257
 1108 -194 l 257
 1108 -80 l 257
 964 -80 l 257
EndSplineSet
EndChar

StartChar: uni095A
Encoding: 2394 2394 605
GlifName: uni095A_
Width: 2048
VWidth: 0
Flags: W
LayerCount: 2
Fore
SplineSet
59 853 m 257
 129 853 l 257
 129 1044 l 257
 59 1044 l 257
 59 853 l 257
59 882 m 257
 59 812 l 257
 918 812 l 257
 918 882 l 257
 59 882 l 257
848 1556 m 257
 848 812 l 257
 918 812 l 257
 918 1556 l 257
 848 1556 l 257
2005 1557 m 257
 730 1557 l 257
 730 1496 l 257
 2005 1496 l 257
 2005 1557 l 257
1854 1523 m 257
 1854 0 l 257
 1924 0 l 257
 1924 1523 l 257
 1854 1523 l 257
944 12 m 257
 944 -102 l 257
 1088 -102 l 257
 1088 12 l 257
 944 12 l 257
EndSplineSet
EndChar

StartChar: uni095A_uni0930_uni094D.vatu
Encoding: 65695 -1 606
GlifName: uni095A__uni0930_uni094D_.vatu
Width: 2048
VWidth: 0
Flags: W
LayerCount: 2
Fore
SplineSet
698 521 m 257
 698 407 l 257
 841 407 l 257
 841 521 l 257
 698 521 l 257
196 0 m 257
 453 0 l 257
 1870 357 l 257
 1870 416 l 257
 196 0 l 257
51 853 m 257
 121 853 l 257
 121 1044 l 257
 51 1044 l 257
 51 853 l 257
51 882 m 257
 51 812 l 257
 910 812 l 257
 910 882 l 257
 51 882 l 257
840 1556 m 257
 840 812 l 257
 910 812 l 257
 910 1556 l 257
 840 1556 l 257
1997 1557 m 257
 722 1557 l 257
 722 1496 l 257
 1997 1496 l 257
 1997 1557 l 257
1846 1523 m 257
 1846 0 l 257
 1916 0 l 257
 1916 1523 l 257
 1846 1523 l 257
EndSplineSet
EndChar

StartChar: uni095A_uni094D.half
Encoding: 65696 -1 607
GlifName: uni095A__uni094D_.half
Width: 2048
VWidth: 0
Flags: W
LayerCount: 2
Fore
SplineSet
59 853 m 257
 129 853 l 257
 129 1044 l 257
 59 1044 l 257
 59 853 l 257
59 882 m 257
 59 812 l 257
 918 812 l 257
 918 882 l 257
 59 882 l 257
848 1556 m 257
 848 812 l 257
 918 812 l 257
 918 1556 l 257
 848 1556 l 257
2005 1557 m 257
 730 1557 l 257
 730 1496 l 257
 2005 1496 l 257
 2005 1557 l 257
944 12 m 257
 944 -102 l 257
 1088 -102 l 257
 1088 12 l 257
 944 12 l 257
EndSplineSet
EndChar

StartChar: uni095B
Encoding: 2395 2395 609
GlifName: uni095B_
Width: 2048
VWidth: 0
Flags: W
LayerCount: 2
Fore
SplineSet
0 1550 m 257
 0 1492 l 257
 2082 1492 l 257
 2082 1550 l 257
 0 1550 l 257
1874 1550 m 257
 1874 -12 l 257
 1935 -12 l 257
 1935 1550 l 257
 1874 1550 l 257
1047 860 m 257
 1047 801 l 257
 1895 801 l 257
 1895 860 l 257
 1047 860 l 257
1037 860 m 257
 1037 512 l 257
 1097 512 l 257
 1097 860 l 257
 1037 860 l 257
75 567 m 257
 75 508 l 257
 1097 508 l 257
 1097 567 l 257
 75 567 l 257
75 727 m 257
 75 509 l 257
 135 509 l 257
 135 727 l 257
 75 727 l 257
948 -56 m 257
 948 -170 l 257
 1090 -170 l 257
 1090 -56 l 257
 948 -56 l 257
EndSplineSet
EndChar

StartChar: uni095B_uni0930_uni094D.vatu
Encoding: 65698 -1 610
GlifName: uni095B__uni0930_uni094D_.vatu
Width: 2048
VWidth: 0
Flags: W
LayerCount: 2
Fore
SplineSet
590 381 m 257
 590 267 l 257
 733 267 l 257
 733 381 l 257
 590 381 l 257
191 0 m 257
 448 0 l 257
 1865 357 l 257
 1865 416 l 257
 191 0 l 257
-17 1550 m 257
 -17 1492 l 257
 2065 1492 l 257
 2065 1550 l 257
 -17 1550 l 257
1857 1550 m 257
 1857 -12 l 257
 1918 -12 l 257
 1918 1550 l 257
 1857 1550 l 257
1030 860 m 257
 1030 801 l 257
 1878 801 l 257
 1878 860 l 257
 1030 860 l 257
1020 860 m 257
 1020 512 l 257
 1080 512 l 257
 1080 860 l 257
 1020 860 l 257
58 567 m 257
 58 508 l 257
 1080 508 l 257
 1080 567 l 257
 58 567 l 257
58 727 m 257
 58 509 l 257
 118 509 l 257
 118 727 l 257
 58 727 l 257
EndSplineSet
EndChar

StartChar: uni095B_uni094D.half
Encoding: 65699 -1 611
GlifName: uni095B__uni094D_.half
Width: 2048
VWidth: 0
Flags: W
LayerCount: 2
Fore
SplineSet
0 1550 m 257
 0 1492 l 257
 2082 1492 l 257
 2082 1550 l 257
 0 1550 l 257
1047 860 m 257
 1047 801 l 257
 1895 801 l 257
 1895 860 l 257
 1047 860 l 257
1037 860 m 257
 1037 512 l 257
 1097 512 l 257
 1097 860 l 257
 1037 860 l 257
75 567 m 257
 75 508 l 257
 1097 508 l 257
 1097 567 l 257
 75 567 l 257
75 727 m 257
 75 509 l 257
 135 509 l 257
 135 727 l 257
 75 727 l 257
948 -56 m 257
 948 -170 l 257
 1090 -170 l 257
 1090 -56 l 257
 948 -56 l 257
EndSplineSet
EndChar

StartChar: uni095C
Encoding: 2396 2396 613
GlifName: uni095C_
Width: 2048
VWidth: 0
Flags: W
LayerCount: 2
Fore
SplineSet
0 1548 m 257
 0 1488 l 257
 2048 1488 l 257
 2048 1548 l 257
 0 1548 l 257
384 1091 m 257
 384 579 l 257
 444 579 l 257
 444 1091 l 257
 384 1091 l 257
384 597 m 257
 384 538 l 257
 1741 538 l 257
 1741 597 l 257
 384 597 l 257
1681 554 m 257
 1681 5 l 257
 1741 5 l 257
 1741 554 l 257
 1681 554 l 257
62 60 m 257
 62 0 l 257
 1741 0 l 257
 1741 60 l 257
 62 60 l 257
62 331 m 257
 62 5 l 257
 123 5 l 257
 123 331 l 257
 62 331 l 257
384 1134 m 257
 384 1074 l 257
 1741 1074 l 257
 1741 1134 l 257
 384 1134 l 257
1679 1503 m 257
 1679 1098 l 257
 1741 1098 l 257
 1741 1503 l 257
 1679 1503 l 257
952 -80 m 257
 952 -194 l 257
 1096 -194 l 257
 1096 -80 l 257
 952 -80 l 257
EndSplineSet
EndChar

StartChar: uni095C_uni0930_uni094D.vatu
Encoding: 65701 -1 614
GlifName: uni095C__uni0930_uni094D_.vatu
Width: 2048
VWidth: 0
Flags: W
LayerCount: 2
Fore
SplineSet
330 132 m 257
 330 18 l 257
 474 18 l 257
 474 132 l 257
 330 132 l 257
983 158 m 257
 1166 -181 l 257
 1234 -181 l 257
 1027 225 l 257
 983 158 l 257
1027 225 m 257
 767 -168 l 257
 835 -168 l 257
 1057 166 l 257
 1027 225 l 257
0 1548 m 257
 0 1488 l 257
 2048 1488 l 257
 2048 1548 l 257
 0 1548 l 257
384 1091 m 257
 384 825 l 257
 444 825 l 257
 444 1091 l 257
 384 1091 l 257
384 843 m 257
 384 784 l 257
 1741 784 l 257
 1741 843 l 257
 384 843 l 257
1681 800 m 257
 1681 251 l 257
 1741 251 l 257
 1741 800 l 257
 1681 800 l 257
62 306 m 257
 62 246 l 257
 1741 246 l 257
 1741 306 l 257
 62 306 l 257
62 577 m 257
 62 251 l 257
 123 251 l 257
 123 577 l 257
 62 577 l 257
384 1134 m 257
 384 1074 l 257
 1741 1074 l 257
 1741 1134 l 257
 384 1134 l 257
1679 1503 m 257
 1679 1098 l 257
 1741 1098 l 257
 1741 1503 l 257
 1679 1503 l 257
EndSplineSet
EndChar

StartChar: uni095D
Encoding: 2397 2397 616
GlifName: uni095D_
Width: 2048
VWidth: 0
Flags: W
LayerCount: 2
Fore
SplineSet
0 1550 m 257
 0 1488 l 257
 2048 1488 l 257
 2048 1550 l 257
 0 1550 l 257
1711 1528 m 257
 1711 988 l 257
 1793 988 l 257
 1793 1528 l 257
 1711 1528 l 257
1793 1023 m 257
 120 1023 l 257
 120 962 l 257
 1793 962 l 257
 1793 1023 l 257
99 1023 m 257
 99 5 l 257
 159 5 l 257
 159 1023 l 257
 99 1023 l 257
99 60 m 257
 99 0 l 257
 1836 0 l 257
 1836 60 l 257
 99 60 l 257
1778 544 m 257
 1778 0 l 257
 1838 0 l 257
 1838 544 l 257
 1778 544 l 257
1508 547 m 257
 1508 487 l 257
 1836 487 l 257
 1836 547 l 257
 1508 547 l 257
1038 -152 m 257
 1038 -266 l 257
 1182 -266 l 257
 1182 -152 l 257
 1038 -152 l 257
EndSplineSet
EndChar

StartChar: uni095D_uni0930_uni094D.vatu
Encoding: 65703 -1 617
GlifName: uni095D__uni0930_uni094D_.vatu
Width: 2048
VWidth: 0
Flags: W
LayerCount: 2
Fore
SplineSet
590 271 m 257
 590 157 l 257
 733 157 l 257
 733 271 l 257
 590 271 l 257
983 159 m 257
 1166 -180 l 257
 1234 -180 l 257
 1027 226 l 257
 983 159 l 257
1027 226 m 257
 767 -167 l 257
 835 -167 l 257
 1057 167 l 257
 1027 226 l 257
0 1550 m 257
 0 1488 l 257
 2048 1488 l 257
 2048 1550 l 257
 0 1550 l 257
1711 1528 m 257
 1711 988 l 257
 1793 988 l 257
 1793 1528 l 257
 1711 1528 l 257
1793 1023 m 257
 120 1023 l 257
 120 962 l 257
 1793 962 l 257
 1793 1023 l 257
99 1023 m 257
 99 305 l 257
 159 305 l 257
 159 1023 l 257
 99 1023 l 257
99 360 m 257
 99 300 l 257
 1836 300 l 257
 1836 360 l 257
 99 360 l 257
1778 844 m 257
 1778 298 l 257
 1838 298 l 257
 1838 844 l 257
 1778 844 l 257
1508 847 m 257
 1508 787 l 257
 1836 787 l 257
 1836 847 l 257
 1508 847 l 257
EndSplineSet
EndChar

StartChar: uni095E
Encoding: 2398 2398 619
GlifName: uni095E_
Width: 2048
VWidth: 0
Flags: W
LayerCount: 2
Fore
SplineSet
0 1550 m 257
 0 1491 l 257
 2047 1491 l 257
 2047 1550 l 257
 0 1550 l 257
1452 1539 m 257
 1452 0 l 257
 1512 0 l 257
 1512 1539 l 257
 1452 1539 l 257
93 1550 m 257
 93 965 l 257
 153 965 l 257
 153 1550 l 257
 93 1550 l 257
93 1023 m 257
 93 964 l 257
 1987 964 l 257
 1987 1023 l 257
 93 1023 l 257
1936 1023 m 257
 1936 686 l 257
 1996 686 l 257
 1996 1023 l 257
 1936 1023 l 257
966 6 m 257
 966 -108 l 257
 1109 -108 l 257
 1109 6 l 257
 966 6 l 257
EndSplineSet
EndChar

StartChar: uni095E_uni0930_uni094D.vatu
Encoding: 65705 -1 620
GlifName: uni095E__uni0930_uni094D_.vatu
Width: 2048
VWidth: 0
Flags: W
LayerCount: 2
Fore
SplineSet
590 421 m 257
 590 307 l 257
 733 307 l 257
 733 421 l 257
 590 421 l 257
126 0 m 257
 383 0 l 257
 1509 289 l 257
 1509 348 l 257
 126 0 l 257
0 1550 m 257
 0 1491 l 257
 2048 1491 l 257
 2048 1550 l 257
 0 1550 l 257
1452 1539 m 257
 1452 0 l 257
 1512 0 l 257
 1512 1539 l 257
 1452 1539 l 257
94 1550 m 257
 94 965 l 257
 154 965 l 257
 154 1550 l 257
 94 1550 l 257
94 1023 m 257
 94 964 l 257
 1988 964 l 257
 1988 1023 l 257
 94 1023 l 257
1936 1023 m 257
 1936 686 l 257
 1996 686 l 257
 1996 1023 l 257
 1936 1023 l 257
EndSplineSet
EndChar

